<?xml version="1.0" encoding="utf-8"?>
<!-- Generator: Adobe Illustrator 18.1.0, SVG Export Plug-In . SVG Version: 6.00 Build 0)  -->
<svg version="1.1" id="Слой_1" xmlns="http://www.w3.org/2000/svg" xmlns:xlink="http://www.w3.org/1999/xlink" x="0px" y="0px"
	 viewBox="0 0 56.9 96.6" enable-background="new 0 0 56.9 96.6" xml:space="preserve">
<g>
	<defs>
		<path id="SVGID_1_" d="M39.7,95.4C39.8,95.4,39.8,95.4,39.7,95.4C39.8,95.4,39.7,95.4,39.7,95.4 M0.6,93.1L0.6,93.1
			C0.6,93.1,0.6,93.1,0.6,93.1C0.6,93.1,0.6,93.1,0.6,93.1 M0.7,93c0,0,0,0.1,0,0.1C0.7,93,0.7,92.9,0.7,93C0.7,92.9,0.7,93,0.7,93
			 M47.3,78.6C47.3,78.6,47.2,78.5,47.3,78.6C47.2,78.5,47.3,78.6,47.3,78.6 M3.5,78.2C3.5,78.1,3.5,78.1,3.5,78.2
			C3.5,78.1,3.5,78.1,3.5,78.2 M16,35.7C16,35.7,16,35.6,16,35.7C16,35.7,16.1,35.7,16,35.7 M12,34.7c0,0,0.1,0,0.2,0
			C12.1,34.7,12,34.7,12,34.7C12,34.7,12,34.7,12,34.7 M12.5,34.5C12.5,34.5,12.5,34.5,12.5,34.5C12.6,34.5,12.6,34.5,12.5,34.5
			C12.6,34.5,12.5,34.5,12.5,34.5C12.5,34.5,12.5,34.5,12.5,34.5 M42.4,14.4C42.4,14.4,42.3,14.4,42.4,14.4
			C42.3,14.4,42.4,14.4,42.4,14.4 M3.1,94.8c0,0.1,0,0.1,0,0.2c0,0,0,0,0,0C3,94.9,3,94.8,3.1,94.8 M0.4,94.1c0,0,0,0.1,0,0.1
			c0,0,0,0,0,0C0.4,94.2,0.4,94.1,0.4,94.1 M0.4,93.4C0.4,93.4,0.4,93.4,0.4,93.4c0.1,0,0.1,0,0.2,0c0.1,0,0.2,0,0.2,0.1
			c0,0,0,0,0,0.1c0,0,0,0,0,0c0,0,0-0.1,0-0.1c0,0,0,0,0,0l0.1,0c0,0-0.1,0.1-0.2,0.1c0,0,0,0,0-0.1c-0.1,0-0.3,0.1-0.4,0.1
			c0,0.1,0.1,0.1,0.1,0.1c0,0-0.1,0.1-0.1,0.1c0,0,0,0,0,0l0,0c0,0-0.1,0.1-0.1,0.1c0,0-0.1,0-0.1,0c0,0,0.1,0,0.1,0c0,0,0,0,0,0
			C0.1,93.8,0.2,93.6,0.4,93.4 M15,34.9c0-0.1,0.1-0.1,0.1,0C15.1,34.9,15.1,34.9,15,34.9C15.1,34.9,15,34.9,15,34.9 M13.4,34.8
			c0-0.1,0.1-0.1,0.1-0.1C13.6,34.7,13.6,34.8,13.4,34.8C13.5,34.8,13.5,34.8,13.4,34.8 M15.4,34.9C15.4,34.9,15.4,34.9,15.4,34.9
			L15.4,34.9c0-0.1,0-0.2,0-0.2c0,0,0-0.1,0.1-0.1c0,0,0,0.1,0,0.1c0-0.1,0.2,0.2,0.3,0.5c-0.1,0.1-0.1,0.3-0.2,0.3c0,0,0,0,0,0
			l0,0.1c0,0,0-0.1-0.1-0.2c0,0,0,0,0,0.1c0,0,0,0,0,0c0,0,0,0,0.1,0c0,0,0,0,0-0.1c0.1-0.1,0.1-0.3,0.1-0.4c0,0-0.1,0-0.1,0
			c0,0,0,0,0,0c0,0,0,0,0,0C15.5,35,15.4,35,15.4,34.9 M12.7,35c-0.1-0.2-0.3-0.4-0.2-0.5c0,0,0,0-0.1,0l-0.1-0.1
			c0.1,0,0.2,0.1,0.3,0.2c0,0-0.1,0-0.1,0c0,0.1,0.3,0.4,0.5,0.5c0.1-0.1,0-0.1,0-0.1c0.1,0,0.2,0.1,0.2,0.1c0,0,0,0,0.1,0l0,0
			c0.1,0,0.1,0.1,0.2,0.1c0,0,0.1,0.1,0.1,0.1c-0.1,0-0.1-0.1-0.2-0.1c0,0,0,0,0,0C13.4,35.2,13.1,35.1,12.7,35 M38.4,34.4
			c0-0.1,0-0.1,0.1,0C38.5,34.3,38.4,34.4,38.4,34.4C38.4,34.4,38.4,34.4,38.4,34.4 M38.7,34.2C38.7,34.2,38.7,34.2,38.7,34.2
			L38.7,34.2c0-0.1-0.1-0.2-0.1-0.2c0,0,0-0.1,0-0.1c0,0,0,0.1,0,0.1c0-0.1,0.1,0,0.3,0.1c-0.1,0-0.1,0.1-0.2,0.1
			C38.8,34.3,38.8,34.2,38.7,34.2 M24.5,0.6c-0.3,0-0.7,0-1,0c-0.3,0-0.6,0.1-1,0.1c-0.3,0-0.6,0.1-0.9,0.1C21.3,0.9,21,1,20.8,1.1
			c-0.2,0.1-0.5,0.3-0.7,0.4c-0.2,0.2-0.4,0.3-0.6,0.5c-0.4,0-0.4,0.3-0.9,0.4c-0.7,0-1.2,0.1-1.4,0.3C17,2.9,17,3,17.4,2.9
			c-0.9,0.6-1.8,1.1-2.5,1.6c-0.3,0.3-0.6,0.6-0.9,0.9c-0.2,0.3-0.5,0.3-0.7,0.3c-0.6,0.7-0.5,0.4-1.3,1.1c-0.2,0-0.5,0.5-0.8,1.1
			c-0.3,0.5-0.6,1.1-0.7,1.2L10.6,9c-0.4,0.4-0.7,0.8-1,1.1c-0.4,0.3-0.7,0.7-0.9,1.2c-0.8,1.3-1.4,2.9-1.7,4.5
			c-0.1,0.4-0.2,0.8-0.2,1.2c-0.1,0.4-0.1,0.8-0.2,1.2c0,0.4-0.1,0.8-0.1,1.1c0,0.4,0,0.8,0,1.1c0.2,0,0-0.6,0.3-0.7
			c-0.1,1.7-0.2,3.4,0.1,5.2c0,0.3,0,0.7,0,0.9C6.7,26.2,6.9,26,7,26.4l-0.2,0.1C6.9,26.7,7,27,7,27.2c0,0.2,0,0.5,0.2,0.7
			c0.1,0,0.2,0.2,0.3,0.4c-0.2,0.1,0.3,0.6,0.1,0.6h0c0.1,0.1,0.1,0.2,0.1,0.3c0.1,0.1,0.5,0.5,0.9,1c0.5,0.4,0.9,0.8,1,0.9l0,0.1
			c0.2,0.3,0.4,0.3,0.3,0.1c0,0,0,0.1,0.1,0.2c0.1,0.1,0.1,0.2,0.1,0.2l0,0l0.2,0.3c0,0.1,0,0.2-0.1,0.2c0.2,0.1,0.4,0.3,0.5,0.5
			c-0.3-0.6-0.6-1.3-0.7-1.9c0.2,0.2,0.3,0.6,0.5,0.8c0.1,0.3,0.4,1,0.6,1.5c0.1,0.1,0.3,0,0.4,0.3c0,0.2,0.2,0.2,0.3,0.5
			c-0.2-0.1-0.4-0.3-0.5-0.5c-0.1,0.2,0.3,0.6,0.4,0.8c0.1,0,0.4,0.5,0.7,0.6c-0.2,0-0.1,0.1,0,0.3c0,0-0.1,0-0.1,0c0,0,0.1,0,0.1,0
			v0c0,0,0.1,0,0.1,0c0,0-0.1,0-0.1,0c0.1,0.1,0.1,0.1,0.1,0.2c0.1,0.2,0.3,0.2,0.3,0.1c0,0,0-0.1,0-0.1c0.5,0.2,1,0.5,0.9,0.4
			c0-0.1,0-0.1,0-0.1c0,0,0.1,0,0.1,0c0,0,0.1,0,0-0.1l-0.1,0c-0.3-0.3,0-0.4,0.3-0.5c0,0,0.1,0,0.1,0c0,0,0,0.1,0,0.1
			c0.3-0.3,0.2,0.1,0.2,0.4c-0.1,0-0.2,0.1-0.3,0.4c0,0.2,0.1,0.1,0.1,0.2c-0.1,0.1-0.1,0.3-0.3,0.3c0.1,0.2-0.1,0.2-0.1,0.4
			c0,0.1,0,0.1,0.1,0.1c0,0,0,0,0.1,0c0,0.2-0.1,0.6-0.1,0.7c-0.1,0.1-0.4,0.3-0.5,0.1c0-0.2,0.1-0.1,0.2-0.1c0.1,0,0.1,0.1,0.1-0.1
			c-0.3,0.1,0-0.3-0.2-0.4c-0.1,0.1-0.2,0.3-0.1,0.5l0,0c0,0.2,0,0.5-0.1,0.7c-0.1-0.1-0.2,0-0.2-0.1l0,0.2c0,0,0.1,0.1,0.1,0
			c0.1,0.1,0,0.2-0.1,0.3c-0.1,0,0.3,1.3,0.2,1.3c0,0.1,0,0.1-0.1,0.2c0-0.4-0.2-1.4-0.2-1.3c-0.1,0.1,0.3,2,0.1,2.1
			c0,0.1,0,0.3,0.1,0.3c0,0.1-0.1,0.1-0.1,0c0,0-0.1-0.1-0.2,0c0,0,0.1,0,0,0l-0.1,0.1c0.1,0.4-0.1,0.8,0,1.2
			c-0.1-0.1-0.3-0.3-0.4-0.5l0.1,0c0,0,0-0.2-0.1-0.2c-0.1,0.2-0.1,0.4,0,0.6c0,0-0.1,0.1-0.1,0.1c0,0,0,0,0,0
			c-0.1,0.1-0.1,0.1-0.1,0c0,0,0,0,0,0c-0.3,0.1,0.1,0.9-0.1,1.2c0,0.1,0.1,0,0.1,0.2c-0.2,0.4-0.3,0.6-0.4,1.1
			c0.1,0.1,0.2,0.2,0.3,0L11.8,45c-0.2-0.2-0.3,0-0.4,0.1c-0.1,0.1-0.2,0.3-0.4,0.1C11,45.3,11,45.5,11,45.7c0.1,0,0.2,0.1,0.2,0.3
			c-0.2,0.3-0.1,0.2-0.2,0.5c-0.1,0-0.2-0.1-0.2-0.1c0.1,0.4-0.3,0.3-0.3,0.7c0,0.2,0,0.7,0.2,0.7c0,0.3-0.2,0.3-0.4,0.2l-0.1,0.3
			c0.1-0.8,0.3-1.7,0.5-2.5c-0.9,1.8-1.8,3.8-0.6,5.5c-0.8,0-1.4,1.8-1.2,1.8c0.1,0.4,0.1,0.8,0.2,1.2c0.1,1.2,0,2.5-0.3,3.8
			c-0.3,1.3-0.7,2.6-1.1,3.9c-0.2,0.7-0.6,2.1-1,3.4c-0.2,0.7-0.4,1.3-0.6,1.9c-0.2,0.6-0.4,1.1-0.5,1.5c-0.1,0.2-0.2,0.4-0.2,0.6
			C5.2,69,5.2,69,5.4,68.6c0,1,0,1.8-0.2,2.7c0.1-0.1,0.3-0.1,0.5-0.4l-0.2,0.4c0.2,0.5-0.1,1.3-0.1,1.7c-0.1-0.1-0.3,0.2-0.4,0.4
			l0.1-0.1c-0.4,1-0.6,2.3-1,3.3c0,0.1-0.1,0.2-0.2,0.3l-0.2,1c-0.1-0.1-0.2,0.1-0.2,0.2c-0.1,0.1-0.2,0.3-0.2,0.1
			c0,0.7-0.3,1.4-0.3,2.1c-0.3,1.2-0.7,2.4-0.9,3.7c-0.1,0.6-0.2,1.3-0.3,1.9c-0.1,0.6-0.2,1.3-0.2,1.9l0.1,0c0,0.4,0,0.9,0,1.3
			c0,0.5,0,0.9-0.2,1.4c0.2,0.8,0.1,1.9,0.5,2.3c0,0,0,0,0,0c0,0-0.1,0-0.1,0c0,0,0.1,0,0.1,0c0,0.1,0,0.2,0,0.2c-0.1,0-0.2,0-0.4,0
			c-0.1,0,0,0.3-0.2,0.2c-0.1-0.1-0.1,0-0.2,0c0,0-0.1,0-0.2,0c0.1-0.1,0.3-0.1,0.4-0.2C1.7,92.9,1.6,93,1.4,93c-0.1,0-0.1,0-0.2,0
			c0,0.1-0.3,0.1-0.5,0.2c0-0.1-0.1-0.1-0.2-0.1c0,0,0,0,0,0c0,0,0,0,0,0.1c0,0,0,0,0-0.1c0,0-0.1,0-0.2,0c-0.1,0-0.2,0.1-0.1,0.2
			c0,0,0,0.1,0.1,0.1c-0.2,0.3-0.5,0.5-0.4,0.5c0,0,0.1,0,0.1,0.1c0,0,0,0,0,0.1c0,0,0,0.1,0.1,0.1l0-0.1c0.3-0.1,0.3,0.2,0.3,0.5
			c0,0.3,0,0.6,0.3,0.5c-0.3-0.1,0-0.3,0.2-0.4c0.1,0.1,0.2,0.1,0.4,0.1c0.2-0.1,0.1-0.1,0.1-0.2c0.1,0,0.3,0,0.3,0.1
			c0-0.1,0.1-0.1,0.2-0.1c0.1,0,0.1,0,0.2,0c0.1-0.1,0-0.1,0-0.2c0.1,0,0.2,0,0.2-0.1c0,0.1,0,0.2,0,0.3c0.1-0.1,0.1,0,0.2,0.2
			c0,0,0,0.1,0,0.1c0,0,0,0,0.1,0c0,0.2,0.1,0.4,0.2,0.2c0.1-0.1,0.1-0.1,0.1-0.2c0,0,0.1,0,0.1,0l0,0c0.1-0.1,0.4-0.2,0.6-0.1
			c0,0.1,0.1,0.2,0,0.2l0.2,0c0,0,0-0.1,0-0.1c0.1-0.1,0.2-0.1,0.3,0c0,0,0.3-0.1,0.5-0.3C4.7,94.5,5,94.3,5,94.4c0.1,0,0.1,0,0.1,0
			c0,0,0,0,0,0c-0.1,0.1-0.3,0.1-0.5,0.2c-0.3,0.2-0.6,0.4-0.5,0.3c0.1,0,0.4-0.2,0.8-0.4c0.4-0.2,0.8-0.4,0.8-0.3
			c0.1,0,0.2-0.1,0.2-0.2c0.2,0,0,0.2,0.1,0.3c0,0,0,0,0-0.1l0.1,0.1c0.3-0.2,0.7-0.1,1-0.3c-0.1,0.1-0.1,0.3-0.3,0.5l0,0
			c0,0-0.2,0.1-0.2,0.2c0.2,0,0.3,0,0.5-0.1c0,0,0.1,0,0.1,0.1c0,0,0,0,0,0c0.1,0.1,0.1,0.1,0.1,0.1c0,0,0,0,0,0
			c0.1,0.2,0.3,0,0.5-0.1c0.2-0.1,0.4-0.2,0.5-0.1c0.1-0.1,0-0.1,0.1-0.1c0.4,0.1,0.6,0.2,1,0.2c0.1-0.1,0.1-0.2,0-0.3l0.3,0
			c-0.2,0.4,0.5,0.3,0.3,0.7c0.1,0.1,0.2,0.1,0.4,0c0-0.1,0-0.2,0.2-0.3c0.3,0.1,0.2,0.1,0.4,0.2c0.1,0.1,0,0.2,0,0.3
			c0.2-0.1,0.3,0,0.3,0.1c0.1,0.1,0.1,0.1,0.3,0.1c0.2,0,0.6-0.1,0.6-0.3c0.3,0,0.3,0.1,0.3,0.3l0.2,0c-0.7,0.1-1.4,0-2.2,0
			c0.8,0.3,1.7,0.6,2.5,0.6c0.8,0,1.6-0.2,2.2-0.9c0.1,0.8,1.7,1.1,1.7,0.9c0.3-0.1,0.7-0.3,1-0.3c2.1-0.6,4.4-0.2,6.8,0.2
			c1.3,0.2,5,0.5,6.4,0.8c0.2,0,0.4,0.1,0.6,0.1c-0.3-0.1-0.3-0.1-0.7-0.1c0.9-0.2,1.6-0.4,2.4-0.5c-0.1-0.1-0.2-0.2-0.5-0.4
			l0.4,0.1c0.3-0.3,1.2-0.3,1.5-0.5c-0.1,0.2,0.2,0.2,0.5,0.2l-0.1-0.1c0.5,0,1,0,1.5-0.1c0.5,0,1-0.1,1.4-0.1
			c0.1,0,0.2,0.1,0.3,0.1l0.8-0.1c-0.1,0.2,0.6,0.2,0.3,0.3c0.6-0.2,1.2-0.1,1.8-0.3c0.5,0,1.1,0,1.6,0c0.5,0,1.1,0,1.6,0
			c1.1,0,2.2-0.1,3.3-0.1l0-0.1c0.8-0.1,1.5-0.4,2.4-0.1c0.7-0.2,1.7-0.2,2-0.6c0.4,0,0.7,0,1.1,0c0.2,0,0.5-0.1,0.8,0
			c-0.1-0.3,0.8-0.1,0.5-0.4c-0.4-0.4-0.5-0.2-0.9-0.5l0,0.1c-0.5-0.2-1-0.4-1.5-0.5c-0.5-0.2-1-0.3-1.5-0.4c-1-0.3-2-0.5-3-0.7
			c-0.7,0-1.4,0-2.1-0.1c-0.4,0-0.7-0.1-1.1-0.1c-0.4,0-0.7,0-1.1,0c-0.4,0-0.8,0-1.2,0c-0.4,0-0.8,0-1.2,0.1
			c-0.8,0.1-1.5,0.1-2.2,0.2c-0.3,0.1-0.5-0.1-0.8-0.2c-0.3,0-0.6,0-1,0.1c-0.3,0-0.7,0-1,0.1c-0.7,0-1.4,0.1-2.1,0.2c0,0,0,0,0.1,0
			c-0.4,0-0.7,0-1-0.1c-0.3,0-0.6-0.1-0.9-0.1c0,0.1-0.1,0.1-0.2,0.1c-0.1-0.2-1.1,0-2.1,0.2c-1,0.2-2.1,0.3-2.2,0.2
			c-0.1,0-0.1,0-0.2,0c-1.4-0.2-2.9-0.9-4.2-0.9c-0.3,0.1-0.6,0.2-0.8,0.4c-0.1-0.1-0.2,0-0.3,0c-0.1,0-0.1,0.1-0.3,0.1
			c-0.7-0.6-1.1-0.4-0.7-0.2c-0.4,0-0.7,0-1.1,0c-0.2,0-0.4,0-0.6,0c-0.2,0-0.5,0.1-0.7,0.1c-0.2,0-0.3,0-0.4-0.2
			c-0.5,0.1-0.4-0.1-0.9-0.1c-0.1-0.1-0.5,0-0.9,0.1c-0.3,0.1-0.6,0.2-0.6,0.2l0.1,0c-0.6,0-1-0.5-1.7-0.5c-0.9-0.1-1.8-0.1-2.6,0
			c-0.4,0-0.9,0.1-1.3,0.1c-0.4,0-0.8,0.1-1.3,0.1c0,0.1,0.1,0.1,0.2,0.1c0.1,0,0.2,0,0.2,0.1c-0.5,0-1,0-1.4,0c-0.5,0-1,0-1.5,0
			c-0.2,0-0.4-0.1-0.5-0.2c-0.3,0-0.2,0.1-0.4,0.1L6,91.3c-0.2,0.1-0.3,0.1-0.4,0c-0.1,0-0.2-0.1-0.4,0c0,0.1-0.1,0.1-0.2,0.1
			c0-0.1-0.1-0.1-0.2-0.1c-0.1,0-0.2,0-0.2-0.1v0c-0.1,0-0.1,0-0.2,0c0,0-0.3,0.2-0.6,0.5l0.2-0.8c0.2-0.5,0.3-1.1,0.5-1.6
			c0.2-0.5,0.3-1.1,0.5-1.6c0-0.4,0.1-0.8,0.2-1.1c0.1-0.4,0.2-0.8,0.3-1.1c0.2-0.8,0.4-1.5,0.6-2.3c0.2-0.8,0.4-1.7,0.6-2.5
			C7,80,7.1,79.1,7.2,78.4c0-0.4,0.3-0.5,0.5-0.8c0.3-1.3,0.9-3,1.2-4.5c0,0,0,0.1,0,0.1c0.2-0.8,0.6-1.3,0.8-2.1
			c-0.1,0,0-0.1-0.1-0.2c0.3-0.1,0.6-4.8,0.8-5c0-0.1,0-0.2,0-0.3c0.5-1.6,1.5-3.2,1.7-4.6c-0.1-0.3-0.1-0.7-0.2-1
			c0.2-0.2-0.1-0.3,0-0.6c0.8-0.7,0.6-1.2,0.3-0.8c0.1-0.6,0.2-1.3,0.3-1.9c0-0.3,0-0.5,0-0.8c0-0.2,0.1-0.3,0.3-0.4
			c0-0.6,0.1-0.4,0.3-1c0.2-0.1-0.1-1.6,0-1.7l0,0.1c0.1-0.7,0.6-1.1,0.7-1.8c0.2-0.9,0.4-1.9,0.5-2.9c0.1-1,0.2-1.9,0.4-2.8
			c-0.1,0-0.1,0.1-0.1,0.2c0,0.1,0,0.2-0.2,0.2c0.2-1,0.6-2,0.7-3.1c0.1-0.2,0.2-0.4,0.3-0.5c0.1-0.3-0.1-0.2,0-0.5l0.2,0
			c-0.1-0.4,0.3-0.5,0.2-0.9c-0.1,0-0.1-0.2-0.1-0.3c0.1,0,0.1-0.1,0.1-0.2c0-0.1,0-0.2,0.1-0.2l0,0c0-0.1,0-0.1,0.1-0.2
			c-0.1-0.1-0.5-1.5-0.6-1.7l0-0.1c0-0.2-0.1-0.3-0.2-0.2l0-0.2l0,0l0-0.2c0,0,0.1-0.1,0.2,0c-0.1-0.1-0.1-0.3,0-0.4
			c-0.2,0.4-0.4,0.8-0.7,1.2c-0.1-0.2,0.1-0.4,0.1-0.6c0.2-0.2,0.3-0.6,0.5-0.9c0-0.1-0.2-0.1-0.1-0.3c0.2-0.1,0-0.2,0.1-0.3
			c0.1,0.2,0,0.3,0,0.5c0.2,0,0.2-0.4,0.2-0.5c-0.1-0.1,0-0.4,0-0.6c0.1,0.1,0.1,0,0.2-0.1c0,0,0,0,0-0.1c0,0,0,0,0,0.1v0
			c0,0,0,0.1,0.1,0.1c0,0,0-0.1-0.1-0.1c0,0,0-0.1,0.1-0.1c0-0.1,0-0.2-0.1-0.2c0,0-0.1,0-0.1,0c-0.1-0.3-0.3-0.7-0.3-0.6
			c0,0-0.1,0-0.1,0c0,0,0,0-0.1,0c0,0-0.1,0-0.1,0l0,0.1c-0.1,0.4-0.6-0.1-0.9-0.1c0.1-0.1,0.2-0.2,0-0.4c0.1,0.5-0.3,0.1-0.6-0.2
			c0-0.1,0-0.3-0.2-0.6c-0.2-0.2-0.2-0.1-0.3,0c-0.1-0.2-0.2-0.4-0.1-0.5c-0.3-0.1-0.2-0.3-0.4-0.5c-0.1-0.1-0.1,0-0.1,0
			c0,0,0,0-0.1,0c-0.1-0.1-0.2-0.3-0.4-0.5c-0.1-0.2-0.2-0.3-0.3-0.4c0-0.2,0-0.5,0.3-0.5c0.3,0.4-0.4,0,0,0.4
			c0-0.2,0.2-0.1,0.3,0.1c0.1,0.1,0.2,0.2,0.3,0.2c0-0.2-0.2-0.5-0.4-0.7l0,0.1c-0.2-0.2-0.5-0.6-0.6-0.9c0.1,0,0.1-0.1,0.2,0
			c0,0,0-0.1-0.1-0.1c0-0.1-0.1-0.1-0.1-0.1c0,0-0.1,0-0.1,0.1c-0.1-0.1-0.2-0.3-0.2-0.4c0,0-0.3-0.4-0.6-0.7
			c-0.3-0.3-0.6-0.7-0.6-0.7c-0.1-0.1-0.1-0.2-0.1-0.3c0.1,0.2,0.3,0.5,0.5,0.7c0.1,0.1,0.2,0.2,0.2,0.3c0.1,0.1,0.2,0.2,0.2,0.2
			c0.1,0.1,0.2,0.2,0.1,0.1c0-0.1-0.1-0.2-0.3-0.4c-0.2-0.2-0.4-0.5-0.6-0.8c-0.1-0.1-0.2-0.3-0.3-0.4c-0.1-0.1-0.2-0.3-0.2-0.4
			c-0.1-0.2-0.2-0.4-0.2-0.5c-0.1-0.2-0.2-0.4-0.3-0.3c0-0.2,0-0.1,0.1-0.1c0.1,0,0.1,0,0.1-0.1c0,0,0,0-0.1,0l0.1-0.2
			c-0.3-0.4-0.3-1.1-0.6-1.6c0.1,0.1,0.4,0.2,0.5,0.5l0,0.1c0,0,0.2,0.3,0.3,0.2c0-0.2,0-0.3-0.1-0.4c0-0.1-0.1-0.3-0.2-0.4
			c0-0.1,0-0.1,0-0.2c0,0,0,0,0,0C9.7,24,9.7,24,9.7,24c0,0,0,0,0,0c0.1-0.1,0-0.4-0.1-0.7c-0.1-0.3-0.3-0.7-0.2-1
			c-0.1-0.2-0.1,0-0.1-0.2c0.1-0.6,0.1-1,0.2-1.5c-0.1-0.2-0.2-0.2-0.3,0l0.1-0.4c0.2,0.2,0.3,0,0.3-0.2c0.1-0.2,0.2-0.4,0.4-0.2
			c0.1-0.1,0.1-0.4,0.1-0.6c-0.1,0-0.2-0.1-0.2-0.4c0.2-0.4,0.1-0.3,0.3-0.6c0.1,0,0.1,0,0.2,0c0,0,0.1,0,0.1,0
			c-0.1-0.5,0.3-0.4,0.4-0.9c0-0.3,0.2-0.9,0-1c0.1-0.4,0.3-0.4,0.4-0.3l0.1-0.3c-0.1,0.3-0.1,0.5-0.2,0.8L10.8,17
			c0,0.1-0.1,0.3-0.1,0.4c-0.1,0.3-0.1,0.5-0.2,0.8l-0.1,0.8c0.4-1.2,1-2.4,1.5-3.5c0.1-0.3,0.2-0.6,0.3-0.8
			c0.1-0.3,0.2-0.6,0.2-0.8c0.1-0.3,0.1-0.6,0.1-0.9c0-0.3,0-0.6,0-0.9c0.2,0.1,0.4,0,0.7-0.2c0.3-0.1,0.5-0.3,0.8-0.5
			c0.2-0.2,0.5-0.4,0.6-0.6c0.2-0.2,0.3-0.3,0.2-0.3c0.1-0.2,0.2-0.4,0.3-0.7c0.1-0.2,0.3-0.4,0.4-0.6c0.9-1.3,2.2-2.4,3.8-3.2
			c1.5-0.8,3.3-1.2,5.1-1.3c1-0.1,2.9-0.2,4.7,0.1c0.2,0,0.5,0.1,0.7,0.1l0.3,0C30.2,5,30.3,5,30.4,5c0.4,0.1,0.8,0.2,1.1,0.3
			c0.7,0.2,1.3,0.6,1.7,0.8c0.2,0.2,0.5,0.3,0.7,0.4c-0.4-0.3-0.4-0.3-0.8-0.5c1.1,0.3,2.2,0.7,3.1,1.3c-0.1-0.2,0-0.3-0.3-0.7
			L36.4,7c0.3,0,0.7,0.2,1.1,0.5c0.4,0.2,0.7,0.5,1,0.7c-0.2,0,0.1,0.4,0.4,0.7l0-0.2c1,1.1,2.2,2.5,2.8,3.7
			c0.1,0.2,0.1,0.3,0.1,0.4c0,0,0,0.1,0.1,0.2c0.1,0.1,0.2,0.2,0.2,0.4c0.2,0.3,0.4,0.5,0.4,0.5c-0.2,0,0.2,0.9-0.1,0.6
			c0.3,0.4,0.5,0.8,0.7,1.2c0.1,0.2,0.2,0.4,0.3,0.7c0.1,0.2,0.2,0.4,0.3,0.6c1,3.2,1.4,6.7,0.4,10l0.1,0c-0.2,0.6-0.3,1.2-0.5,1.7
			c-0.1,0.3-0.2,0.6-0.4,0.9c-0.2,0.3-0.4,0.6-0.7,0.8c-0.1,0.2-0.3,0.5-0.5,0.8c-0.2,0.3-0.4,0.5-0.6,0.7c-0.4,0.5-0.7,0.9-0.8,1.2
			c-0.5,0.4-0.9,0.7-1.3,0.9c-0.1,0.1-0.2,0.1-0.3,0.2c-0.2-0.2-0.4-0.4-0.4-0.3c0,0,0,0.1-0.1,0.1c0,0,0,0-0.1,0c0,0-0.1,0-0.1,0.1
			l0.1,0c0.1,0.3-0.2,0.3-0.5,0.2c-0.3,0-0.6,0-0.6,0.3c0.1-0.4,0.3,0,0.4,0.3c0,0-0.1,0.1-0.1,0.2l-0.1,0.1
			c-0.3,0.2-0.5,0.3-0.1,0.3c0.2,0,0.3,0,0.4,0c0,0.1,0,0.3-0.1,0.3c0.2,0.1,0,0.3,0.1,0.4c0.1,0.1,0.1,0.1,0.1,0c0,0,0,0,0.1,0
			c0.1,0.2,0.1,0.5,0.2,0.7c-0.1,0.1-0.2,0.4-0.5,0.3c0-0.2,0-0.2,0.1-0.2c0.1,0,0.1,0,0.1-0.2c-0.1,0.1-0.2,0-0.2-0.1
			c0-0.1-0.1-0.2-0.2-0.2c-0.1,0.2,0,0.4,0.1,0.6l0,0c0.1,0.2,0.2,0.5,0.2,0.7c0,0-0.1,0-0.1,0c0,0-0.1,0-0.1,0l0.1,0.2
			c0,0,0.1,0,0.1,0c0.1,0.1,0.1,0.2,0.1,0.3c-0.1,0.1,0.8,1.1,0.7,1.1c0,0.1,0,0.1,0,0.2c-0.2-0.4-0.7-1.2-0.7-1.1
			c-0.1,0.2,1.1,1.7,0.9,1.9c0,0.1,0.1,0.3,0.2,0.2c0,0.1-0.1,0.1-0.1,0.1c-0.1,0-0.1,0-0.1,0.1c0,0,0,0,0.1,0L38.6,41
			c0.3,0.3,0.2,0.8,0.5,1.1c-0.1-0.1-0.4-0.1-0.5-0.3l0-0.1c0,0-0.1-0.2-0.2-0.2c0,0.2,0.1,0.4,0.2,0.6c0,0,0,0.1,0,0.1c0,0,0,0,0,0
			c0,0.1-0.1,0.1-0.1,0.1c0,0,0,0,0,0c-0.3,0.2,0.4,0.8,0.4,1.2c0.1,0.1,0.1,0,0.1,0.1c0,0.4,0,0.7,0,1.1c0.2,0.1,0.2,0.1,0.3-0.1
			l0,0.3c-0.2-0.1-0.2,0.1-0.3,0.2c0,0.2-0.1,0.3-0.3,0.2c-0.1,0.1,0,0.3,0.1,0.5c0.1,0,0.2,0,0.3,0.2c0,0.3,0,0.2,0,0.5
			c-0.1,0.1-0.1,0-0.2,0c0,0-0.1,0-0.1,0c0.2,0.3-0.1,0.4,0,0.8c0.1,0.2,0.2,0.7,0.4,0.6c0.1,0.3-0.1,0.3-0.2,0.4l0,0.3
			c-0.2-0.8-0.4-1.7-0.6-2.5c-0.2,2-0.1,4.3,1.6,5.3c-0.7,0.4-0.6,2.2-0.4,2.2c0.2,0.3,0.4,0.7,0.6,1c1.2,2.2,1.7,4.9,2.2,7.6
			c0.1,0.4,0.2,0.9,0.3,1.5c0.1,0.6,0.3,1.3,0.4,2c0.1,0.7,0.3,1.4,0.4,2c0.1,0.6,0.2,1.2,0.2,1.5c0,0.2,0.1,0.4,0.1,0.7
			c0-0.4,0-0.4,0-0.8c0.4,0.9,0.8,1.7,1.1,2.4c0.1-0.2,0.2-0.2,0.2-0.6l0,0.4c0.4,0.3,0.6,1.2,0.8,1.6c-0.2,0-0.1,0.3-0.1,0.6
			l0.1-0.1c0.2,1.1,0.6,2.3,0.8,3.3c0,0.1,0,0.3,0,0.3l0.4,0.9c-0.1,0-0.1,0.1-0.1,0.3c0,0.2,0,0.4-0.1,0.2c0.4,0.6,0.4,1.3,0.9,1.9
			c0.7,2.4,1.6,4.9,2.8,7.2l0.1-0.1c0.5,0.8,1.1,1.4,1.4,2.4c0.6,0.6,1.2,1.5,1.7,1.6c0.2,0.4,0.4,0.6,0.6,0.8
			c0.2,0.2,0.4,0.4,0.7,0.8c0-0.1,0.2,0,0.3,0.1c0.2,0.1,0.3,0.3,0.3,0c0-0.6-0.2-0.5-0.2-1.1l-0.1,0c-0.7-2.1-1.4-4.2-2-6.3
			c-0.7-1.3-1-2.9-1.5-4.4c-0.5-1.6-1.1-3.4-1.7-4.7c-0.1-0.3,0-0.6,0-0.9c-0.4-1.3-0.7-3-1.2-4.5c0,0,0,0.1,0,0.1
			c-0.2-0.8-0.1-1.4-0.4-2.2c-0.1,0-0.1-0.1-0.1-0.1c0.1-0.1-0.3-1.2-0.8-2.3c-0.5-1.1-1-2.3-1-2.4c0-0.1-0.1-0.2-0.1-0.2
			c-0.2-0.8-0.2-1.7-0.3-2.6c-0.1-0.8-0.2-1.6-0.4-2.3c-0.2-0.3-0.4-0.6-0.7-0.8c0.1-0.3-0.2-0.3-0.3-0.6c0.4-0.9,0-1.3-0.1-0.8
			c-0.3-0.6-0.4-1.2-0.6-1.8c-0.1-0.2-0.2-0.5-0.3-0.7c-0.1-0.2-0.1-0.4,0.1-0.5c-0.2-0.5,0-0.4-0.1-1c0.2-0.2-0.7-1.4-0.7-1.6
			l0.1,0.1c-0.1-0.7,0.1-1.3,0-1.9c-0.3-1.9-1.1-3.9-1.5-5.6c-0.2,0,0.2,0.4-0.1,0.5c-0.2-1-0.3-2.1-0.5-3.2c0-0.2,0.1-0.5,0.1-0.6
			c0-0.3-0.2-0.2-0.2-0.4l0.2-0.1c-0.3-0.3,0.1-0.6-0.1-0.9c-0.1,0-0.1-0.1-0.2-0.2c0.2-0.1-0.1-0.4,0.1-0.4l0,0c0-0.1,0-0.1,0-0.2
			c-0.1-0.1-1.1-1.2-1.2-1.3l0-0.1c-0.1-0.2-0.2-0.2-0.2-0.1l-0.1-0.2l0,0l-0.1-0.2c0,0,0.1-0.1,0.2-0.1c-0.1-0.1-0.2-0.2-0.2-0.4
			c0,0.4,0,0.9-0.1,1.4c-0.1-0.1-0.1-0.4-0.2-0.6c0.1-0.2,0.1-0.7,0-1c0-0.1-0.3,0-0.2-0.2c0.1-0.1-0.1-0.2,0-0.4
			c0.1,0.1,0.1,0.3,0.2,0.4c0.2-0.1,0-0.4,0-0.6c0,0-0.1-0.1-0.1-0.3c1.7-0.6,3.3-1.5,4.7-2.8c1.5-1.3,2.6-3.1,3.3-5
			c0-0.2,0.1-0.3,0.1-0.5c0-0.2,0.1-0.3,0.1-0.5c0.1-0.3,0.2-0.7,0.2-1c0.1-0.7,0.2-1.3,0.3-2c0.1-1.4,0.1-2.7-0.1-4
			c-0.2-1.4-0.7-2.8-1.1-4.1c-0.3-0.6-0.5-1.3-0.9-1.8c-0.2-0.3-0.3-0.6-0.5-0.8c-0.2-0.3-0.3-0.5-0.5-0.8c-0.3-0.5-0.4-0.9-0.5-1.4
			c-0.6-0.9-1.3-1.9-2.1-2.9c-0.8-1-1.7-1.9-2.7-2.6c0,0,0.1,0.1,0.1,0.1c-0.3-0.2-0.5-0.4-0.7-0.6c-0.2-0.2-0.4-0.4-0.7-0.6
			c-0.2-0.2-0.4-0.4-0.7-0.6C37.5,3,37.2,2.8,37,2.7c0,0.1-0.2,0-0.3-0.1c0-0.1-0.5-0.3-1.1-0.6c-0.3-0.2-0.8-0.3-1.2-0.4
			c-0.2-0.1-0.4-0.1-0.7-0.2c-0.2,0-0.5-0.1-0.7-0.1c-0.2,0-0.5-0.1-0.7-0.1C32,1,31.7,1,31.5,1c-0.5-0.1-0.9-0.1-1.3-0.1
			c-0.7,0-1.3,0-1.4-0.1c-0.1,0-0.3,0-0.4,0c-1.2-0.1-2.5-0.3-3.7-0.3C24.7,0.6,24.6,0.6,24.5,0.6"/>
	</defs>
	<clipPath id="SVGID_2_">
		<use xlink:href="#SVGID_1_"  overflow="visible"/>
	</clipPath>
	<g clip-path="url(#SVGID_2_)">
		<defs>
			<polygon id="SVGID_3_" points="56.1,0.6 60.3,96.6 -5.7,96.6 0,0.6 			"/>
		</defs>
		<clipPath id="SVGID_4_">
			<use xlink:href="#SVGID_3_"  overflow="visible"/>
		</clipPath>
		<g transform="matrix(1 0 0 1 0 0)" clip-path="url(#SVGID_4_)">
			
				<image overflow="visible" width="671" height="503" xlink:href="../img/gold.jpg"  transform="matrix(0 0.2398 0.2396 0 -27.5429 -30.6506)">
			</image>
		</g>
	</g>
</g>
</svg>
