<?xml version="1.0" encoding="utf-8"?>
<!-- Generator: Adobe Illustrator 18.1.0, SVG Export Plug-In . SVG Version: 6.00 Build 0)  -->
<svg version="1.1" id="Слой_1" xmlns="http://www.w3.org/2000/svg" xmlns:xlink="http://www.w3.org/1999/xlink" x="0px" y="0px"
	 viewBox="0 0 57.1 68.5" enable-background="new 0 0 57.1 68.5" xml:space="preserve">
<path fill="#0D0F0F" d="M48.6,9.2C48.4,9.1,48.1,9,48,9c-0.2,0-0.1-0.1-0.2-0.2c-0.3-0.1-0.6-0.1-0.9-0.2c-0.2-0.1-0.5-0.3-0.7-0.4
	c-0.3-0.1-0.7-0.1-0.9-0.2c-0.1,0-0.2-0.3-0.4-0.4c-0.4-0.2-0.6-0.4-0.9-0.6c-0.2-0.1-0.3-0.1-0.6-0.2c-0.4-0.2-0.6-0.4-0.9-0.6
	c-0.7-0.3-1.7-0.3-2,0.2c-0.1,0.2-0.3,0.4-0.2,0.7c-0.9,0.1-1,1.1-1.7,1.5C38.4,9,38.2,8.9,37.9,9c-0.2,0.1-0.4,0.2-0.6,0.4
	c-0.1,0.1-0.2,0.3-0.4,0.4c0,0,0,0.2,0,0.2c0,0.1-0.3,0-0.4,0c-0.1,0.1-0.2,0.3-0.4,0.4c-0.3,0.1-0.7,0.2-0.9,0.4
	c-0.1,0.1-0.1,0.3-0.2,0.4c-0.2,0.1-0.4,0.1-0.6,0.2c-0.1,0.1-0.1,0.3-0.2,0.4c-0.2,0.1-0.4,0.1-0.6,0.2c-0.1,0.1-0.1,0.3-0.2,0.4
	c-0.2,0.1-0.4,0.1-0.6,0.2c-0.1,0.1-0.2,0.3-0.4,0.4c-0.2,0.1-0.4,0.1-0.6,0.2c-0.3,0.3-0.6,0.8-0.9,1.1c-0.3,0.4-0.8,0.6-1.1,0.9
	c-0.1,0.1,0,0.3,0,0.4c0,0-0.3,0.1-0.4,0.2c-0.5,0.6-1.1,1.4-1.3,2c-1,0.6-1.8,1.5-2.2,2.8c-0.3,0.3-0.8,0.3-0.9,0.7
	c-0.3,0.1-0.3,0.3-0.4,0.6c0,0.2-0.1,0.1-0.2,0.2c-0.2,0.3-0.3,0.6-0.6,0.9c-0.3,0.4-0.9,0.7-1.1,0.9c-0.1,0.1,0.1,0.3,0,0.4
	c-0.1,0.1-0.3-0.1-0.4,0c-0.2,0.2-0.1,0.5-0.2,0.7c0,0-0.2,0-0.2,0c-0.1,0.1,0,0.3,0,0.4c-0.1,0.1-0.3,0.1-0.4,0.2
	c-0.3,0.5-0.4,1.1-0.7,1.5c-0.2,0.2-0.4,0.4-0.6,0.6c-0.3,0.3-0.5,0.6-0.6,0.7c0,0.2-0.1,0.1-0.2,0.2c-0.3,0.4-0.3,0.8-0.7,0.9
	c0,0.7-0.4,1.7-0.6,1.8c-0.1,0,0,0.3,0,0.4c-0.1,0.1-0.3,0.2-0.4,0.4c-0.1,0.1-0.1,0.2-0.2,0.4c-0.2,0.4-0.7,0.6-0.7,0.9
	c-0.1,0.2,0,0.2-0.2,0.4c-0.1,0,0,0.3,0,0.4c-0.1,0.1-0.3,0.2-0.4,0.4c-0.2,0.3-0.2,0.7-0.4,0.9c0,0.1-0.3,0.1-0.4,0.2
	c-0.1,0.1-0.1,0.4-0.2,0.6c0,0-0.2,0-0.2,0c-0.1,0,0,0.3,0,0.4c-0.2,0.5-0.6,0.8-0.7,1.3c-0.3,0.3-0.2,0.8-0.4,1.1
	c0,0.1-0.3,0.2-0.4,0.4c-0.1,0.3-0.1,0.5-0.2,0.7c0,0.1-0.3,0.3-0.4,0.4c-0.3,0.6-0.4,1.2-0.6,1.8c-0.1,0-0.4,0.2-0.4,0.4
	c0,0.2-0.1,0.1-0.2,0.2c-0.2,0.4-0.4,0.8-0.6,0.9c0,0,0,0.3,0,0.4c-0.1,0.2-0.2,0.4-0.4,0.5c-0.1,0.1-0.1,0.5-0.2,0.6
	c-0.3,0.5-0.3,1.6-0.6,2c-0.5,0.7-0.3,1.7-0.6,2.4c0,0-0.2,0-0.2,0c-0.1,0.1-0.1,0.5-0.2,0.6c-0.3,0.4-0.4,1.1-0.6,1.3
	c-0.1,0,0,0.3,0,0.4c-0.1,0.2-0.3,0.2-0.4,0.4C9.1,52,9.2,52.4,9,52.8c0,0-0.2,0-0.2,0c0,0,0,0.3,0,0.4c-0.1,0.5-0.1,0.9-0.2,1.5
	c0,0.1-0.2,0.2-0.2,0.2c-0.2,0.7-0.3,1.6-0.4,2c0,0.1-0.2,0.2-0.2,0.2c-0.1,0.4,0.2,0.9,0.2,1.3c0,0.2-0.2,0.3-0.2,0.6
	C7.9,59,7.8,59,7.7,59c-0.1,0.7,0.1,1.1-0.2,1.3c-0.4,0.3,0.2,1.9,0.2,2c1.2,0.7,2.5,0.2,3.5-0.2c0.2-0.1,0.3-0.2,0.5-0.2
	c0.3,0,0.4-0.4,0.6-0.6c0-0.1,0.3,0,0.4,0c0.2-0.1,0.5-0.3,0.7-0.4c0.2-0.1,0.6-0.1,0.7-0.4c0.7-0.5,1.5-0.8,2.2-1.3
	c0.4-0.3,1.1-0.7,1.3-0.9c0,0,0-0.1,0-0.2c0-0.1,0.3,0.1,0.4,0c0.2-0.1,0.2-0.4,0.4-0.6c0.4,0,0.5-0.3,1.1-0.2c0.5-0.9,1.3-1.6,2-2
	c0,0,0.1-0.1,0.2-0.2c0.1-0.1,0.3-0.1,0.4-0.2c0.1,0,0-0.3,0-0.4c0.2-0.2,1-0.1,0.9-0.6c0.5,0.1,0.4-0.4,0.6-0.6
	c0.3-0.1,0.5-0.4,0.9-0.4c0.3-0.7,0.8-1.2,1.3-1.7c0.2-0.3,0.5-0.5,0.7-0.7c0.5-0.4,1.3-1,1.5-1.5c0.1-0.1,0-0.4,0.2-0.4
	c0.7-0.4,1-1.1,1.5-1.5c0.2-0.2,0.5-0.2,0.7-0.4c0.2-0.2,0.2-0.4,0.4-0.6c0.2-0.2,0.4-0.4,0.6-0.6c0.1-0.2,0.2-0.4,0.4-0.6
	c0.1-0.2,0.4-0.4,0.6-0.6c0.2-0.2,1.3-1.3,1.3-1.3c0.4,0,0.6-0.6,0.7-0.7c0.1-0.1,0.1-0.3,0.2-0.4c0-0.1,0.3,0.1,0.4,0
	c0,0,0.2-0.6,0.2-0.6c0-0.2,0.1-0.1,0.2-0.2c0.3-0.4,0.5-1,0.9-1.3c0.2-0.1,0.4-0.2,0.7-0.2c0.9-1.1,2.3-1.7,2.6-3.5
	c0.3-0.2,0.6-0.5,0.9-0.7c0.5-0.1,0.3-0.8,0.7-0.9c0.1-0.4,0.3-0.3,0.6-0.6c0.2-0.3,0.2-0.7,0.4-0.9c0.2-0.3,0.7-0.4,0.7-0.7
	c0-0.4,0.3-0.6,0.6-0.7c0.1,0,0-0.3,0-0.4c0,0,0.2,0,0.2,0c0.1,0,0-0.3,0-0.4c0.2-0.2,0.6-0.3,0.7-0.6c0.2-0.3,0.2-0.6,0.4-0.9
	c0.2-0.3,0.5-0.5,0.4-0.9c0.4-0.3,0.8-0.6,1.1-0.9c0.3-1,0.8-1.7,1.5-2.4v-1.1c0.4-0.2,0.7-0.7,0.7-0.9c0-0.1,0-0.3,0-0.4
	c0-0.1,0.3-0.3,0.4-0.4c0.1-0.1,0.1-0.2,0.2-0.4c0.1-0.1,0.3-0.2,0.4-0.4c0.1-0.2,0.1-0.4,0.2-0.6c0,0,0.1-0.1,0.2-0.2
	c0.2-0.3,0.2-0.5,0.2-0.9c0-0.2,0.2-0.1,0.2-0.2c0.1-0.3,0.1-0.8,0.2-1.1c0.2-0.7,0.7-1.3,0.6-2c1.1-1.3,0.8-4.6,0.6-6.6
	C50.5,10.2,49.7,9.7,48.6,9.2 M31.1,0.2c0.3-0.4,2.1,0,2.8,0.2c0.6,0.2,1.3,0.6,1.8,0.9c0.4,0.3,0.7,0.5,1.1,0.6
	c0.7,0,1.2-0.3,1.8-0.9c0.5,0,0.5-0.1,0.9-0.2c0.2,0,0.4-0.1,0.9-0.2c-0.1,0,1.2-0.5,1.5-0.2c0.2,0.3,0.4-0.1,0.9,0
	c0,0,0.1,0.2,0.2,0.2c0.3,0.1,0.5,0.1,0.9,0.2c0.4,0.1,1,0.1,1.3,0.2c0.1,0,0.3,0.3,0.4,0.4c0.2,0,0.4-0.1,0.6,0
	c0.1,0,0,0.2,0.2,0.2c0.3,0,0.4,0.4,0.7,0.4c0.4,0,0.7,0.5,1.1,0.7c0.1,0.1,0.3,0.3,0.4,0.4c0.1,0,0.3-0.1,0.4,0
	c0.1,0.1-0.1,0.4,0.2,0.4c0.4,0,1.3,0.9,1.7,1.3c0.2,0.3,0.6,0.3,0.9,0.6c0.1,0.1,0.3,0.3,0.4,0.4c0.3,0.2,0.7,0.3,1.1,0.7
	C53.9,7,54.8,8,55.6,9c0.1,0.1,0.2,0,0.2,0.2c0,0,0.1,0.5,0.2,0.6c0.1,0.1,0.5,0.2,0.6,0.4c0.1,0.2,0.1,0.9,0.2,1.3
	c0,0,0.2,0.1,0.2,0.2c0.1,0.4,0.4,1.2,0.2,2c0,0-0.2,0-0.2,0.2c0,0.3-0.2,0.3-0.2,0.6c0,0.3,0.2,0.6,0.2,0.9
	c0.1,0.6-0.1,1.2-0.2,1.7c0,0.2,0.1,0.5,0,0.7c-0.1,0.5-0.5,1-0.7,1.5c0,0.7,0,1.4-0.2,1.8c0.2,0.4-0.4,0.4-0.6,0.6
	c-0.1,0.1,0.1,0.3,0,0.4c-0.2,0.1-0.4,0-0.6,0.2c0.1,0.4-0.2,0.7-0.4,1.1c-0.1,0.2-0.3,0.2-0.4,0.4c-0.2,0.3,0,0.4-0.2,0.9
	c0,0.2-0.2,0.4-0.4,0.7c-0.2,0.3-0.2,0.2-0.4,0.7c0,0.2-0.1,0.1-0.2,0.2c-0.2,0.3-0.2,0.8-0.4,1.1c-0.1,0.1-0.3,0.3-0.4,0.4
	c-0.2,0.3-0.4,0.5-0.6,0.9c-0.1,0.2-0.1,0.4-0.2,0.6c-0.4,0.7-0.9,1.5-1.8,1.8c-0.4,0.7-1,1.2-1.5,1.8c-0.1,0.1-0.4,0.2-0.6,0.4
	c-0.1,0.2-0.1,0.4-0.2,0.6c-0.1,0.1-0.2,0-0.2,0.2c0,0.2-0.3,0.5-0.7,0.6c0.1,0.9-0.4,1.2-0.4,2c-0.5,0.2-0.6,0.7-0.9,1.1
	c-0.2,0.3-0.5,0.5-0.7,0.9c-0.1,0.1-0.2,0.1-0.2,0.2c-0.3,0.5-0.3,1.2-0.6,1.7c-0.1,0.2-0.5,0.2-0.6,0.6c0,0.1-0.4,0.5-0.6,0.7
	c-0.4,0.5-0.5,1.1-1.1,1.3c0.1,0.9-0.7,0.9-1.1,1.3c0.1,0.4-0.4,0.5-0.6,0.7c-0.1,0.2-0.1,0.7-0.6,0.6c0,0.3-0.1,0.3-0.2,0.6
	c-0.1,0.1-0.1,0.4-0.2,0.6c0,0.1-0.3-0.1-0.4,0c-0.2,0.2,0,0.6-0.2,0.7c-0.3,0.3-0.7,0.5-1.1,0.7c-0.3,0.3-0.4,0.8-0.7,1.1
	c-0.1,0.2-0.3,0.3-0.6,0.4c0.3,0.5-0.4,0.6-0.6,0.9c-0.2,0.3-0.2,0.7-0.4,0.9c-0.1,0.2-0.4,0.3-0.6,0.6c0,0-0.3,0.1-0.4,0.2
	c0,0.1,0.1,0.3,0,0.4c-0.2,0.2-0.4,0.3-0.6,0.6c0,0.1-0.3,0.1-0.4,0.2c0,0.1,0.1,0.3,0,0.4c-0.1,0.1-0.3-0.1-0.4,0
	c-0.1,0.2-0.1,0.4-0.2,0.6c-0.4,0.4-1,0.8-1.5,1.3c-0.7,0.7-1.3,1.3-2,2c-0.3,0.3-0.8,0.6-1.1,0.9c-0.1,0.1,0,0.2-0.2,0.2
	c-0.2,0-0.2,0.7-0.5,0.9c-0.8,0.5-1.5,1-2.2,1.7c-0.3,0.3-0.6,0.8-0.9,1.1c-0.1,0.1-0.3-0.1-0.4,0c-0.1,0.1-0.1,0.3-0.2,0.4
	c-0.1,0-0.3-0.1-0.4,0c-0.3,0.4-0.8,0.9-1.3,1.3c-0.1,0.1,0,0.2-0.2,0.2c-0.2,0-0.6,0.3-0.9,0.6c-0.4,0.3-0.8,0.5-1.1,0.7
	c-0.1,0-0.1,0.3-0.2,0.4c-0.1,0-0.3-0.1-0.4,0c-0.3,0.2-0.4,0.5-0.9,0.7c-0.1,0-0.3,0-0.4,0c-0.1,0.2-0.1,0.3-0.4,0.4
	c-0.1,0-0.3-0.1-0.4,0c0,0,0,0.2,0,0.2c-0.3,0.1-0.7,0.1-0.9,0.2c-0.1,0.1-0.1,0.3-0.2,0.4c-0.1,0-0.3-0.1-0.4,0
	c-0.2,0.2-0.9,0.3-1.3,0.4c-0.2,0-0.3,0.2-0.6,0.2c-1.3,0.2-2.7,0.7-4.2,0.4c-0.5-0.1-1-0.2-1.3-0.4c-0.1,0-0.5-0.1-0.6-0.2
	c-0.1-0.2-0.3-0.3-0.6-0.4c-0.1,0-0.3,0-0.4,0c-0.1-0.1-0.5-0.4-0.9-0.6c-0.1,0,0-0.1-0.2-0.2c-0.4-0.1-0.5,0-0.7-0.2
	c-0.2-0.1-0.3-0.4-0.6-0.6c-0.1-0.1-0.4-0.4-0.6-0.4c-0.3,0-0.4-0.5-0.7-0.9c-0.1-0.2-0.5-0.2-0.6-0.6c0-0.3-0.5-0.5-0.7-0.7
	c-0.1-0.1-0.1-0.4-0.2-0.6c-0.1-0.1-0.3-0.1-0.4-0.2c-0.1-0.1-0.2-1-0.4-1.3c0,0-0.4-0.1-0.4-0.2c-0.1-0.2,0.1-0.8,0-1.1
	c0-0.1-0.2,0-0.2-0.2c0-0.1-0.2-0.2-0.2-0.4c-0.1-0.4,0-0.8,0-1.3C0.2,58,0,57.7,0,57.4c0,0,0.2-0.2,0.2-0.4c0,0-0.2,0-0.2-0.2
	c0-0.5-0.1-1.7,0.2-2.2c0-0.1,0.2,0,0.2-0.2c0-0.1,0.2-0.2,0.2-0.4c-0.3-0.4,0-0.9,0-1.3c0-0.6-0.1-0.2,0-0.7
	c0.1-0.6,0.2-1.7,0.4-2.4c0-0.1,0.1-0.2,0.2-0.4c0.1-0.3,0.1-0.6,0.2-0.9c0.2-0.5,0.4-1.1,0.6-1.7C2,46.4,2,46.2,2.1,45.8
	c0-0.1,0-0.3,0-0.4c0,0,0.2,0,0.2,0c0-0.1-0.1-0.3,0-0.4c0.3-0.2,0.2-0.4,0.4-0.9c0.1-0.2,0.3-0.5,0.4-0.7c0.2-0.5,0.4-1.1,0.6-1.7
	c0.2-0.5,0.3-1.2,0.6-1.7c0-0.1,0.2,0,0.2-0.2c0-0.3,0.1-0.4,0.2-0.6c0-0.1,0.3-0.1,0.4-0.2c0.1-0.2-0.1-0.4,0-0.6
	c0-0.1,0.2,0,0.2-0.2c0-0.1,0.1-0.4,0.2-0.6c0.1-0.3,0.1-0.7,0.2-0.9c0-0.1,0.2,0,0.2-0.2c0-0.1,0.1-0.3,0.2-0.4
	c0.2-0.3,0.5-0.9,0.9-1.3c-0.1-0.6,0.1-1,0.4-1.5c0.2-0.3,0.4-0.6,0.6-1.1c0-0.1,0-0.3,0-0.4c0,0,0.2,0,0.2,0c0.1-0.3,0-0.8,0.2-1.1
	c0.1-0.1,0.3-0.3,0.4-0.4c0.1-0.2,0.3-0.5,0.6-0.7c0.1-0.1,0.2-0.2,0.4-0.2c0.2-0.5,0.1-1,0.4-1.5c0-0.1,0.2,0,0.2-0.2
	c0-0.2,0.2-0.8,0.7-0.7c-0.1-0.4,0.1-0.5,0.2-0.7c0.1-0.3,0.3-0.6,0.6-0.9c0.1-0.1,0.3-0.3,0.4-0.4c0.2-0.4,0.2-0.9,0.4-1.3
	c0.1-0.1,0.3-0.2,0.4-0.4c0.1-0.1,0.1-0.4,0.2-0.6c0-0.1,0.3-0.1,0.4-0.2c0.1-0.3,0.1-0.4,0.4-0.7c0.1-0.2,0.3-0.2,0.4-0.4
	c0.1-0.2,0.1-0.4,0.2-0.6c0.1-0.1,0.3-0.3,0.4-0.4c0-0.1,0-0.3,0-0.4c0.1-0.3,0.3-0.3,0.6-0.6c0.1-0.2,0.1-0.3,0.2-0.6
	c0.1-0.2,0.3-0.3,0.4-0.6c0.1-0.2,0.1-0.4,0.2-0.6c0.2-0.3,0.4-0.6,0.6-0.9c0.2-0.3,0.2-0.2,0.4-0.7c0.1-0.3,0.3-0.3,0.6-0.6
	c0.1-0.1,0.1-0.4,0.2-0.6c0.1-0.2,0.4-0.2,0.6-0.4c0.1-0.2,0.1-0.4,0.2-0.6c0.1-0.2,0.3-0.2,0.4-0.4c0.1-0.2,0.1-0.4,0.2-0.6
	c0.2-0.3,0.4-0.6,0.6-0.9c0.1-0.2,0.3-0.3,0.4-0.4c0.1-0.2-0.1-0.6,0.2-0.6c0.3-0.4,0.7-0.9,0.9-1.5c0.2-0.3,0.5-0.4,0.7-0.6
	c-0.1-0.4,0.3-0.4,0.4-0.6c0.1-0.2,0-0.5,0.2-0.7c0-0.1,0.3-0.1,0.4-0.2c0.1-0.2,0-0.6,0.6-0.5c0.2-0.5,0.4-1.1,1.1-1.1
	c0.2-0.1,0.1-0.4,0.2-0.6C24,6.1,24.2,6,24.3,5.9c0.2-0.3,0.3-0.7,0.6-0.9c0.2-0.2,0.7-0.3,0.9-0.6c0.1-0.1-0.1-0.3,0-0.4
	c0.1-0.1,0.3,0.1,0.4,0c0.1-0.1,0.1-0.3,0.2-0.4c0.3-0.2,0.5-0.5,0.7-0.7c0.6-0.5,1.4-1.2,2-2c0.6,0.1,0.5-0.3,1.1-0.2
	C30.2,0.2,30.6,0.2,31.1,0.2"/>
</svg>
