<?xml version="1.0" encoding="utf-8"?>
<!-- Generator: Adobe Illustrator 18.1.0, SVG Export Plug-In . SVG Version: 6.00 Build 0)  -->
<svg version="1.1" id="Слой_1" xmlns="http://www.w3.org/2000/svg" xmlns:xlink="http://www.w3.org/1999/xlink" x="0px" y="0px"
	 viewBox="0 0 66.9 73.5" enable-background="new 0 0 66.9 73.5" xml:space="preserve">
<path fill="#0D0F0F" d="M20.8,61.4c0.3,0.6,0.8,0.7,1.4,1c0.3,0.1,1.1,0.2,1.8,0.4c0.1,0,0,0.2,0.2,0.2c0.1,0,0.3-0.2,0.2-0.2
	c0.5,0.1,0.7,0.3,1.2,0.4c1,0.1,2.2,0.1,3.3,0.2c0.2,0,0.2,0.2,0.4,0.2c0.1,0,0.2-0.2,0.2-0.2c0.3,0,0.3,0.2,0.6,0.2
	c1,0.1,1.8,0,2.7,0.2c0.2,0.1,0.4,0.1,1,0.2c0.3,0,0.3,0.2,0.6,0.2c1.1,0.1,2.1-0.1,3.1,0.2c0.1,0,0.2,0.2,0.2,0.2
	c0.5,0.1,1.2-0.1,1.8,0c0.2,0,0.4,0.2,0.8,0.2c0.7,0,1.2,0,2.1,0.2c0.5,0.1,1.1,0.4,1.6,0.6c0.3,0.1,0.7,0.1,1,0.2
	c0.4,0.1,0.5,0.1,0.8,0.2c1,0.3,1.9,0.8,2.9,1.2c0.2,0.4,0.5,0.7,0.8,1c0.3,0.3,0.7,0.5,1,0.8c0.2,0.2,0.1,0.5,0.2,0.8
	c0.1,0.1,0.3,0.3,0.4,0.4c0.2,0.4,0.6,0.7,0.4,1.2c-1.1,0.3-2.1-0.1-3.1-0.4c-0.4-0.1-1.1-0.2-1.6-0.4c-0.1,0,0-0.2-0.2-0.2
	c-0.4,0-0.5-0.3-1-0.4c-0.7-0.2-1.7-0.1-2.7-0.2c-1.3-0.1-2.4-0.1-3.9-0.2c-0.2,0-0.3-0.2-0.6-0.2c0,0,0,0.2-0.2,0.2
	c-0.3,0-0.4-0.2-0.8-0.2c-2.7-0.3-6.5-0.6-9.5-0.8c-0.4,0-1,0-1.4,0c-0.8-0.1-1.2-0.2-1.9,0c-0.4,0.1-0.4,0-0.6,0.2
	c-0.1,0.1-1.2-0.2-1.8-0.2c-0.1,0-0.3,0.2-0.6,0.2c-0.5,0.1-1.3-0.2-1.9,0c-0.1,0-0.2,0.2-0.2,0.2c-0.5,0-0.9-0.2-1.4-0.2
	c-0.4,0-0.9,0.3-1.4,0.4c-0.7,0.2-1,0-1.8,0.4c-0.1,0,0,0.2-0.2,0.2c-0.3,0-0.4,0.5-0.8,0.8c-0.1,0.1-0.4,0.1-0.6,0.2
	c-0.1,0.1-0.1,0.3-0.2,0.4c-0.1,0.1-0.3,0.4-0.4,0.4c-0.1,0.1-0.5-0.1-0.6,0c-0.2,0.1-0.2,0.3-0.4,0.4c-0.3,0.2-0.5,0.2-0.8,0.6
	c0,0.1-0.1,0.3-0.2,0.4c-0.1,0.1-0.3,0.4-0.4,0.4c-0.2,0.1-0.4-0.1-0.6,0c-0.4,0.2-0.4,0.6-1.2,0.4c0,0-0.6-0.2-0.6-0.2
	c0,0,0-0.2,0-0.2c-0.3-0.2-0.5-0.2-0.8-0.6c-0.1-0.1-0.2-0.1-0.4-0.2c-0.1,0-0.3,0.1-0.4,0C6.3,72.1,6.3,72,6,71.9
	c-0.1-0.1-0.1-0.1-0.2-0.2c-0.6-0.4-1.3-0.8-1.8-1.6c0-0.1,0.1-0.3,0-0.4c0,0-0.4,0.1-0.4,0c-0.1-0.2,0.1-0.4,0-0.6
	c-0.9-0.2-1.3-0.9-1.9-1.4c-1,0.1-1.7-0.8-1.8-1.4c-0.1-0.6,0.3-0.8,0.6-1.2c0.1-0.1,0.2-0.5,0.4-0.6c0.2-0.1,0.4-0.1,0.6-0.2
	c0.2-0.1,0.4-0.2,0.6-0.4c0.1-0.1,0.3-0.3,0.4-0.4c0.1-0.1,0-0.1,0.2-0.2c0.7-0.2,1.2-0.8,1.7-1.4C4.6,62,4.5,62,4.7,62
	c0.3,0,0.4-0.6,0.8-0.6c0,0,0.2,0,0.2,0C5.9,61.2,6,61,6.2,60.8c0.2-0.2,0.6-0.8,1-0.8c0,0,0.5-0.2,0.6-0.2c0.1-0.1,0.3-0.3,0.4-0.4
	c0.1,0,0.3,0.1,0.4,0c0.1-0.1,0.2-0.8,0.6-0.8c0.3-0.4,0.7-0.5,1.2-0.8c0.1,0,0.1-0.4,0.2-0.4c0.3-0.1,0.8,0,1-0.4
	c0.2-0.2,0.4-0.2,0.6-0.4c0.1-0.1-0.1-0.3,0-0.4c0.1-0.1,0.4,0.1,0.4-0.2c0.2,0,0.3-0.3,0.4-0.4c0.2-0.1,0.4,0.1,0.6,0
	c0.2-0.1,0.4-0.5,0.6-0.6c0.1-0.1,0.5-0.1,0.6-0.2c0.1-0.1-0.1-0.3,0-0.4c0,0,0.2,0,0.2,0c0.3-0.3,0.6-0.5,1.2-0.8
	c0.1-0.1,0.3-0.1,0.4-0.2c0.2-0.1,0.4-0.4,0.6-0.6c0.1-0.1,0.3,0.1,0.4,0c0.2-0.3,0.5-0.6,1-1c0.1-0.1,0.4-0.1,0.6-0.2
	c0.1-0.1,0.1-0.3,0.2-0.4c0.1,0,0.3,0.1,0.4,0c0.2-0.3,0.3-0.5,0.8-0.8c0.2-0.1,0.5-0.2,0.8-0.4c0.1-0.1,0-0.2,0.2-0.2
	c0.3,0,0.4-0.5,0.8-0.8c0.1-0.1,0.4-0.4,0.6-0.4c0.4,0,0.7-1.2,1.6-1c0.2-0.9,1.3-1.1,1.9-1.6c0.1-0.1,0-0.2,0.2-0.2
	c0.2,0,0.5-0.4,0.8-0.6c0.2-0.1,0.4-0.2,0.6-0.4c0.3-0.2,0.5-0.5,1-0.8c0.2-0.1,0.3-0.3,0.4-0.4c0.1-0.1,0.3,0.1,0.4,0
	c0.3-0.3,0.7-0.8,1.2-1.2c0.3-0.3,0.9-0.6,1.4-1c0.7-0.5,1.3-1,1.9-1.6c0.6-0.5,1.3-1,1.9-1.6c0.1,0,0.1-0.4,0.2-0.4
	c0.3-0.1,0.5-0.1,0.8-0.4c0.1-0.1,0-0.2,0.2-0.2c0.4,0,0.2-0.4,0.4-0.6c0.1-0.1,0.3,0.1,0.4,0c0.2-0.1,0.2-0.5,0.4-0.6
	c0.2-0.2,0.6-0.4,1-0.6c0.1-0.1,0.4-0.1,0.6-0.2c0.2-0.1,0.2-0.4,0.4-0.6c0.2-0.2,0.4-0.2,0.6-0.4c0.3-0.3,0.6-0.6,1-1
	c0.2-0.2,0.4-0.2,0.6-0.4c0.1,0,0.1-0.4,0.2-0.4c0.1,0,0.3,0.1,0.4,0c0.5-0.4,0.8-0.9,1.4-1.4c0,0,0.4-0.2,0.4-0.2
	c0.2-0.4,0.1-0.4,0.4-0.6c0.8-0.5,1.5-1.8,2.3-2.5c0.4-0.4,1-0.7,1.4-1.2c0.4-0.4,0.6-1,1-1.4c0.5-0.5,1.3-0.7,1.8-1.2
	c0.1-0.1-0.1-0.3,0-0.4c0,0,0.2,0,0.2,0c0.1-0.1,0.1-0.1,0.2-0.2c0.7-0.8,1.3-2.4,2.5-2.9c0-0.5,0.5-0.9,0.8-1.4
	c0.1-0.1,0.1-0.3,0.2-0.4c0.3-0.3,0.8-0.5,1-1c0-0.1-0.1-0.3,0-0.4c0.2-0.1,0.5-0.4,0.8-0.8c0.2-0.2,0.4-0.4,0.6-0.6
	c0.2-0.3,0.2-0.7,0.4-1c0.1-0.1,0.3-0.1,0.4-0.2c0-0.1-0.1-0.3,0-0.4c0,0,0.2,0,0.2,0c0.2-0.3,0-0.8,0.2-1.2c0-0.1,0.3-0.3,0.4-0.4
	c0.1-0.2,0.1-0.4,0.2-0.8c0.1-0.3,0.4-0.5,0.6-1c0-0.1-0.1-0.3,0-0.4c0.3-0.2,0.1-0.7,0.2-1.6c0-0.4,0.2-0.8,0.2-1.2
	c0-0.2-0.2-0.1-0.2-0.2c0-0.2,0.2-0.2,0.2-0.2c-0.2-0.8-0.7-1.5-0.8-2.3C57.6,5,54.9,5.8,52.7,6C52,6,51.6,6,50.9,6.2
	c0,0-0.1,0.2-0.2,0.2c-0.3,0.1-0.6,0-1,0.2c-0.1,0-0.3,0.4-0.4,0.4c-0.2,0.1-0.7-0.1-0.8,0c-0.4,0.4-1,0.3-1.9,0.6
	c-0.1,0,0,0.2-0.2,0.2c-0.2,0-0.4-0.1-0.6,0c-0.1,0-0.3,0.4-0.4,0.4c-0.1,0-0.3,0-0.4,0c-0.4,0.1-0.7,0.5-1.2,0.8
	C43.7,9,43.6,9,43.4,9.1c-0.3,0.2-0.2,0.3-0.8,0.4c-0.2,0-0.1,0.2-0.2,0.2c-0.5,0.2-0.9,0.2-1.4,0.4c-0.3,0.1-0.4,0.1-0.6,0.2
	c-0.1,0.1-0.3,0.3-0.4,0.4c-0.4,0.2-0.6,0.1-1,0.4c-0.2,0.1-0.3,0.4-0.6,0.6c-0.1,0.1-0.3,0.3-0.4,0.4c-0.7,0.5-1.5,0.7-2.1,1.2
	c-0.2,0.1-0.2,0.3-0.4,0.4c-0.4,0.2-0.9,0.5-1.2,1.2c-0.6-0.1-0.8,0.5-1.2,0.8c-0.1,0.1-0.3-0.1-0.4,0c-0.2,0.2-0.3,0.6-0.8,0.8
	c-0.4,0.3-0.8,0.5-1.2,0.8c-0.3,0.2-0.5,0.5-0.8,0.8c-0.3,0.3-0.5,0.5-0.8,0.8c-0.3,0.3-0.7,0.3-1,0.6c-0.3,0.3-0.3,0.6-0.6,0.8
	c-0.1,0.5-0.6,0.4-0.8,0.8c-0.7,0.8-1.2,1.8-2.3,2.1c-0.2,0.1-0.1,0.3-0.2,0.6c0,0.1,0,0.4,0,0.4c-0.2,0.2-0.8,0.7-1.2,1.2
	c-0.1,0.1-0.2,0-0.2,0.2c0,0.3-0.6,0.5-0.8,0.8c-0.1,0.1,0,0.3,0,0.4c-0.1,0.2-0.1,0.1-0.2,0.2c-0.1,0.2-0.3,0.4-0.4,0.8
	c-0.1,0.4,0,0.5-0.2,0.8c-0.1,0.1-0.2,0-0.2,0.2c0,0.4-0.5,0.4-0.8,0.8c-0.2,0.2,0,0.5-0.2,0.8c-0.1,0.2-0.5,0.2-0.6,0.4
	c-0.2,0.2-0.1,0.5-0.2,0.8c0,0.1-0.4,0.1-0.4,0.2c0,0.1,0.1,0.3,0,0.4c-0.3,0.3-0.6,0.5-1,0.8c0.1,0.3-0.1,0.5-0.2,0.6
	c-0.1,0.2-0.1,0.4-0.2,0.6c-0.3,0.6-0.7,1.2-1.2,1.9c-0.2,0.3-0.3,0.2-0.4,0.8c0,0.2-0.1,0.3-0.2,0.6c0,0.2-0.2,0.1-0.2,0.2
	c-0.2,0.5,0,1,0,1.6c-0.2,0.1-0.3,0.4-0.4,0.6c-0.1,0.1-0.3,0.3-0.4,0.4C15,39.8,15.1,40,15,40.2c-0.1,0.1-0.3,0.3-0.4,0.4
	c-0.1,0.2-0.1,0.4-0.2,0.6c0,0-0.1,0.1-0.2,0.2c-0.1,0.2-0.1,0.1-0.2,0.2c-0.2,0.1-0.4,0.1-0.6,0.2c-0.2,0.1-0.1,0.3-0.4,0.4
	c-0.5,0.1-2,0-2.5-0.6c-0.1-0.1-0.1-0.4-0.2-0.4C10,41,9.6,41.1,9.3,41c-0.1-0.1,0-0.2-0.2-0.2c-0.3,0-0.2-0.3-0.4-0.4
	c-0.1,0-0.3,0.1-0.4,0c0,0,0-0.2,0-0.2c-0.1,0-0.3,0.1-0.4,0c0,0,0-0.2,0-0.2c-0.6-0.3-1.1-0.5-1.6-0.8c-0.6-0.4-0.9-1.2-1.4-1.6
	c-0.6-0.6-1.2-0.7-1.6-1.2c-0.1-0.2,0-0.7-0.2-0.8c-0.2-0.2,0-0.6-0.2-0.8c-0.2-0.2-0.2-0.5,0-1.2c0,0,0.2-0.8,0.2-0.8
	c0,0,0.2,0,0.2,0c0-0.1-0.1-0.3,0-0.4c0.3-0.2,0.3-0.4,0.6-0.8c0.1-0.1,0.2,0,0.2-0.2c0,0,0-0.2,0-0.2c0.1-0.2,0.4-0.4,0.6-0.6
	c0.2-0.2,0.2-0.6,0.4-0.8c0.3-0.3,0.8-0.8,1.2-1.2c0.4,0.1,0.1-0.6,0.4-0.8c0.1-0.1,0.6-0.4,0.8-0.6c0.4-0.5,0.6-0.9,1-1.4
	c0.3-0.4,0.8-0.8,1.2-1.2c0.2-0.2,0.4-0.4,0.6-0.6c0.3-0.2,0.6-0.2,0.8-0.4c0.3-0.3,0.3-0.6,0.6-1c0.5-0.7,1.4-1.6,2.1-2.3
	c0.5-0.5,1-1,1.6-1.6c0.1-0.1,0.5-0.1,0.6-0.2c0.1-0.1,0.1-0.5,0.2-0.6c0.1-0.1,0.3,0.1,0.4,0c0.2-0.2,0-0.6,0.4-0.6
	c0.1-0.6,0.6-0.3,1-0.6c0.3-0.2,0.3-0.7,0.6-1c0.2-0.1,0.4-0.1,0.6-0.2c0.1-0.1-0.1-0.3,0-0.4c0.1-0.1,0.3,0.1,0.4,0
	c0.2-0.1,0.2-0.3,0.4-0.4c0.4-0.3,1-1,1.6-1.4c0.1-0.1,0-0.2,0.2-0.2c0.2,0,0.4-0.3,0.6-0.4c0.1-0.1,0.3,0.1,0.4,0
	c0.1-0.1-0.1-0.3,0-0.4c0.2-0.2,0.4-0.5,0.6-0.8c0.9-0.2,1.4-1,2.1-1.4c0.2-0.5,1-0.3,1.4-0.6c0.1-0.1,0.1-0.3,0.2-0.4
	c0.5-0.3,1.1-0.6,1.6-1c0.2-0.1,0.2-0.3,0.4-0.4c0.1,0,0.3,0.1,0.4,0c0.1-0.2,0.2-0.6,0.6-0.6c0.3,0,1-0.4,1.4-0.6
	c0.1-0.1,0-0.2,0.2-0.2c0.3,0,0.5-0.2,0.8-0.4c0.3-0.2,0.6-0.5,1-0.8c0.3-0.2,0.3-0.3,0.8-0.4c0.2,0,0.4-0.2,0.8-0.4
	c0.3-0.1,0.6-0.2,1-0.4c0.1-0.1,0.3-0.3,0.4-0.4c0.2-0.1,0.4-0.1,0.6-0.2c0.2-0.1,0.2-0.3,0.4-0.4c0.1,0,0.3,0.1,0.4,0
	c0.2-0.2,0.8-0.4,1.4-0.6c0.2-0.1,0.5-0.1,0.8-0.2c0.1-0.1,0.3-0.4,0.4-0.4c0.3-0.1,0.5-0.1,0.8-0.2c0,0,0-0.2,0.2-0.2
	c0.5-0.1,1.2-0.2,1.6-0.6c0.3-0.3,0.9-0.3,1.4-0.4c0.4-0.1,0.9-0.3,1.4-0.4c0.5-0.1,1-0.1,1.6-0.2c0.4-0.1,0.9-0.3,1.4-0.4
	c0.9-0.1,1.8,0,2.7,0c0,0,2.3-0.6,2.7-0.2c0.1,0.1,0.3,0.3,0.8,0.4c0.7,0.1,1.2-0.1,1.7,0c0,0.2,0.2,0.1,0.4,0.2
	c0.1,0.1,0.1,0.2,0.2,0.2c0.4,0.2,0.7,0.2,1.2,0.4c0.2,0.1,0.3,0.3,0.6,0.4c0.4,0.1,0.4,0.1,0.8,0.4c0.1,0.1,0,0.2,0.2,0.2
	c0.3,0,0.5,0.5,0.8,0.8c0.2,0.1,0.4,0.1,0.6,0.2c0.2,0.2,0.4,0.7,0.8,1c0.2,0.1,0.4,0.1,0.6,0.2c0.3,0.2,0.8,1,1.4,1.4
	c0.5,0.3,1,0.9,1.4,1.6c0.1,0.2,0.4,0.4,0.4,0.6c0,0.2,0.3,0.2,0.4,0.4c0.1,0.1-0.1,0.3,0,0.4c0,0,0.2,0,0.2,0
	c0.3,0.7,0.5,1.8,0.8,2.7c0.2,0.8,0.5,1.4,0.4,2.3c0,0.1,0,0.4,0,0.4c-0.3,0.2-0.1,0.5-0.2,1.2c-0.1,0.3-0.3,0.4-0.4,0.8
	c0,0.1,0.1,0.7,0,0.8c0,0-0.2,0-0.2,0c-0.1,0.3-0.1,0.7-0.2,1c-0.2,0.5-0.4,1.4-0.8,1.9c0,0.1-0.1,0.5-0.2,0.6c0,0-0.2,0-0.2,0
	c0,0.1,0.1,0.3,0,0.4c0,0-0.2,0-0.2,0c0,0.1,0.1,0.3,0,0.4c-0.2,0.2-0.3,0.2-0.4,0.4c-0.4,0.7-0.8,1.2-1.4,1.9
	c-0.1,0.1-0.2,0-0.2,0.2c0,0.4-1,1-1.4,1.4c-0.1,0.2,0,0.6-0.2,0.8c-0.1,0.1-0.5,0.1-0.6,0.2c-0.1,0.1,0.1,0.3,0,0.4
	c0,0-0.2,0-0.2,0c-0.2,0.2-0.3,0.3-0.6,0.6c-0.1,0.2-0.2,0.4-0.4,0.6c-0.3,0.3-0.8,0.7-1.2,1.2c-0.8,0.9-1.7,1.7-2.5,2.7
	c-0.1,0.2-0.1,0.4-0.2,0.6c-0.1,0.1-0.3-0.1-0.4,0c-0.1,0.1,0.1,0.3,0,0.4c-0.1,0.1-0.4,0.1-0.6,0.2c-0.1,0.1,0.1,0.3,0,0.4
	c-0.2,0.2-0.6,0-0.8,0.2c-0.2,0.1-0.3,0.5-0.6,0.8c-0.3,0.2-0.6,0.5-1,1c-0.1,0.2-0.1,0.4-0.2,0.6c-0.2,0.2-0.7,0.6-1,1
	c-0.4,0.5-1.1,0.8-1.2,1.6c0,0.3-0.8,0-0.8,0.4c0,0.4-0.4,0.3-0.8,0.6c-0.1,0.1,0.1,0.3,0,0.4c-0.1,0.1-0.3-0.1-0.4,0
	c-0.6,0.5-1.4,1.5-2.1,2.1c-0.4,0.4-0.8,1.1-1.6,1c-0.4,0.5-0.6,1.1-1,1.6c-0.5-0.2-0.3,0.4-0.8,0.4c0,0-0.2,0-0.2,0
	c-0.1,0.1-0.3,0.3-0.4,0.4c-0.2,0.1-0.4-0.1-0.4,0.2c-0.4,0.1-0.4,0.5-0.6,0.8c-0.5-0.1-0.7,0.4-1,0.6c-0.1,0.1-0.5,0.1-0.6,0.2
	c-0.1,0.1-0.1,0.5-0.2,0.6c-0.5,0.5-1.4,0.7-1.6,1.6c-1.2,0.3-1.9,1.3-2.9,1.8c-0.2,0.3-0.4,0.5-0.8,0.8c-0.1,0.1-0.3,0.3-0.4,0.4
	c-0.1,0.1-0.4,0.1-0.6,0.2c-0.3,0.2-0.4,0.5-0.8,0.8c-0.5,0.4-1.3,0.7-1.9,1.2c-0.3,0.2-0.5,0.6-0.8,0.8c-0.1,0.1-0.3,0.3-0.4,0.4
	c-0.2,0.1-0.4,0.1-0.6,0.2c-0.3,0.2-0.5,0.6-0.8,0.8c-0.2,0.1-0.4,0.1-0.6,0.2c-0.2,0.1-0.2,0.3-0.4,0.4c-0.2,0.1-0.4,0.1-0.6,0.2
	c-0.1,0.1-0.2,0.3-0.4,0.4c-0.3,0.2-0.5,0.5-0.8,0.8c-0.2,0.1-0.4,0.1-0.6,0.2c-0.1,0.1-0.3,0.3-0.4,0.4c-0.5,0.5-1,1.1-1.6,1.6
	C21.8,60.5,21.1,60.7,20.8,61.4"/>
</svg>
