<?xml version="1.0" encoding="utf-8"?>
<!-- Generator: Adobe Illustrator 18.1.0, SVG Export Plug-In . SVG Version: 6.00 Build 0)  -->
<svg version="1.1" id="Слой_1" xmlns="http://www.w3.org/2000/svg" xmlns:xlink="http://www.w3.org/1999/xlink" x="0px" y="0px"
	 viewBox="0 0 72.1 75.5" enable-background="new 0 0 72.1 75.5" xml:space="preserve">
<path fill="#0D0F0F" d="M71.7,10.2c-1.1,0.1-1.4-0.3-1.8-1c-0.1-0.1-0.1-0.4-0.2-0.6c0-0.1-0.4-0.1-0.4-0.2c-0.2-0.4,0-0.5-0.2-1
	C69,7.3,68.7,7.1,68.7,7c-0.1-0.2,0-0.4-0.2-0.6c0,0-1.4-0.8-1.8-0.8c-0.4,0-0.6,0-0.8-0.2c-0.4-0.3-0.5,0.1-1.4,0
	c-0.1,0-0.2-0.2-0.4-0.2c-0.2,0-0.4,0-0.6,0c-0.8-0.1-1.4-0.4-2-0.4c-1-0.1-1.8,0.1-2.6,0c-0.6-0.1-1.2-0.5-1.8-0.6
	c-0.2,0-0.9,0.1-1,0c-0.2-0.2-0.1-0.1-0.4,0c-0.9,0.2-2.4,0.1-3.8,0.2C50.4,4.5,49,4.7,47.8,5c-0.2,0-0.2,0.2-0.2,0.2
	c-0.7,0.2-1.3,0.1-1.8,0.4c-0.2,0.1-0.4,0.3-0.6,0.4c-0.2,0.1-0.4,0.2-0.6,0.4C44.5,6.5,44,6.6,43.9,7c0.1,0.3-0.2,0.3-0.2,0.4
	c-0.1,0.7,0.3,1.6,0.2,2.2c0,0-0.2,0-0.2,0.2c0,0.1,0,0.2,0,0.2c-0.1,0.2-0.1,0.3-0.2,0.6c-0.1,0.2-0.1,0.1-0.2,0.2
	c-0.3,0.6-0.7,1.3-1.2,2c-0.1,0.1-0.3,0.3-0.4,0.4c-0.1,0.2-0.1,0.4-0.2,0.6c-0.2,0.3-0.6,0.6-0.8,0.8c-0.3,0.3-0.6,0.5-0.8,0.8
	c-0.1,0.1-0.1,0.5-0.2,0.6c-0.3,0.3-0.9,0.8-1.4,1c-0.1,0.2,0,0.6-0.2,0.8c0,0.1-0.4-0.1-0.4,0c0,0,0,0.2,0,0.2
	c-0.4,0.6-0.9,1.6-1.6,2.2c-0.1,0.1-0.3-0.1-0.4,0c-0.1,0.1,0.1,0.3,0,0.4c-0.1,0.1-0.3-0.1-0.4,0c0,0,0,0.2,0,0.2
	c-0.3,0.4-0.7,0.7-1,1.2c-0.1,0.1-0.2,0-0.2,0.2c0,0.2-0.6,0.7-0.8,1c-0.2,0.2-0.4,0.5-0.6,0.8c-0.2,0.2-0.4,0.4-0.6,0.8
	c-0.1,0.2-0.5,0.4-0.4,1c0.4,2,5.2,0.8,6.5,2.4c0.9,0,1.5,0.4,2.2,0.6c0.4,0.1,0.7,0.2,1,0.4c0.2,0.1,0.3,0.3,0.4,0.4
	c0.1,0,0.4-0.1,0.4,0c0.1,0.1,0.1,0.3,0.2,0.4c0.1,0.1,0.3-0.1,0.4,0c0.1,0.1-0.1,0.4,0,0.4c0.1,0.1,0.3-0.1,0.4,0
	c0.4,0.4,0.9,1.1,1.6,1.4c0.4,0.9,1,1.5,1.6,2.2c0.6,0.7,1.4,1.3,1.8,2c0,0.1-0.1,0.4,0,0.4c0,0,0.2,0,0.2,0c0,0.1-0.1,0.4,0,0.4
	c0.1,0.1,0.4,0.2,0.4,0.4c0,0-0.3,0.2-0.2,0.4c0.1,0.3,0.2,0.5,0.4,0.8c0.1,0.2,0.4,0.3,0.4,0.6c0.3,0.8,0.1,2.1,0.6,2.6
	c0,0.8-0.8,1.3-0.4,1.8c-0.1,0.9,0,1.7-0.2,2.4c0,0-0.2,0-0.2,0.2c0,0.3,0.1,0.6-0.2,0.6c0,0.4-0.6,0.3-0.4,0.8
	c-0.2,1.3-0.4,2.4-0.8,3.4c0,0.1,0.1,0.4,0,0.4c0,0-0.2,0-0.2,0c0,0.1,0.1,0.4,0,0.4c-0.3,0.3-0.7,1.3-1,2c-0.2,0.3-0.6,0.9-0.6,1.2
	c0,0.3-0.4,0.4-0.4,0.8c0,0.4-1.3,1-1.4,1.6c-0.1,0.5-0.4,1-0.8,1.4c-0.1,0.2-0.5,0.2-0.6,0.4c-0.1,0.1-0.1,0.5-0.2,0.6
	c-0.3,0.4-0.7,0.6-1,1c-0.8,0.9-1.9,1.6-2.6,2.8c-0.4,0.1-0.6,0.5-1.2,0.4c-0.5,0.7-0.9,1.4-1.4,2c-0.6,0.2-1,0.5-1.6,0.6
	c-0.3,0.2-0.7,1.2-1.2,1.2c-0.4,0-0.6,1.3-1.4,1.2c0.2,0.4-0.3,0.3-0.4,0.4c-0.1,0.2,0,0.5-0.2,0.6c-0.2,0.2-0.9,0.1-0.8,0.6
	c-0.6-0.2-1,0.3-1.4,0.4c-0.5,0.1-0.7,0.1-1.2,0.4c-0.1,0.1-0.2,0.2-0.2,0.2c-0.2,0.1-0.5,0.4-0.8,0.4c-0.1,0-0.3,0.2-0.4,0.2
	c-0.2,0.1-0.5,0.4-0.8,0.4c-0.1,0-0.3,0.2-0.4,0.2c-0.2,0.1-0.4,0.1-0.6,0.2c-0.1,0-0.1,0.4-0.2,0.4c-0.1,0-0.3-0.1-0.4,0
	c-0.1,0.1-0.3,0.4-0.4,0.4c-0.3,0.1-0.9,0.1-1.4,0.2c-0.2,0-0.4,0.1-0.6,0.2c-0.1,0-0.4-0.1-0.4,0c-0.2,0.3-0.3,0.1-1,0.2
	c-0.2,0-0.3,0.2-0.6,0.2c-0.4,0-0.9-0.1-1.4,0c-0.6,0.1-2.8,0.4-3.6,0.2c-0.1,0-0.4,0-0.4,0c0,0,0-0.2,0-0.2c-0.1,0-0.4,0.1-0.4,0
	c-0.2-0.2-0.1-0.3-0.4-0.4c-0.1,0-0.4,0.1-0.4,0c0,0,0-0.2,0-0.2c-0.1,0-0.4,0.1-0.4,0c0,0,0-0.2,0-0.2c-0.1,0-0.4,0.1-0.4,0
	c0,0,0-0.2,0-0.2c-0.3-0.1-0.8-0.1-1-0.2c-0.2-0.1-0.5-0.6-0.8-0.8C10,73,9.8,72.6,9.5,72.4c-0.2-0.1-0.4-0.1-0.6-0.2
	c-0.2-0.1-0.2-0.3-0.4-0.4c-0.6-0.4-1.2-0.5-1.4-1.4c-0.2-0.2-0.6-0.1-0.6-0.4c-0.3-0.3-0.5-0.7-0.8-1c-0.1-0.1-0.3-0.1-0.4-0.2
	c-0.2-0.1-0.3-0.3-0.6-0.6c0,0-0.2-0.4-0.2-0.4c-0.1,0-0.3,0.1-0.4,0c-0.1-0.1-0.1-0.5-0.2-0.6c-0.3-0.3-0.8-0.5-1-0.8
	c-0.1-0.1,0.1-0.4,0-0.4c-0.1-0.1-0.6-0.3-0.8-0.6c-0.2-0.2-0.1-0.5-0.2-0.8c-0.1-0.1-0.3-0.3-0.4-0.4c-0.1-0.1-0.1-0.3-0.2-0.4
	C1.2,63.6,1,63.6,1,63.5c-0.1-0.2-0.1-0.4-0.2-0.6c-0.2-0.3-0.6-0.8-0.6-1c-0.1-0.3,0.2-1.2,0-1.8C0.2,59.9,0,59.3,0,58.6
	c0,0.1,0.3-0.1,0.2-0.2c-0.4-0.3-0.1-1.2,0-2c0-0.1,0-0.4,0-0.4c0.4-0.3,0.5-1.6,0.8-2c0.1-0.2,0.4-0.3,0.6-0.6
	c0.2-0.3,0.1-0.7,0.6-0.8H4c-0.1,0.2,0.3,0.1,0.4,0.2c0.2,0.2,0.1,0.5,0.2,0.8C4.8,53.8,5,53.7,5.1,54c0,0.1,0.1,0.6,0.2,0.8
	c0,0.2,0.2,0.1,0.2,0.2c0.3,0.9,0.4,1.9,1,2.6c0,0.6,0.1,1.3-0.2,1.6c0.5,0.4,0.3,1.3,0.4,2.4c0,0.3,0.2,0.6,0.2,1.2
	C6.9,64.3,7,65,7.7,66.1c0,0.1,0.2,0.2,0.2,0.2c0.1,0.3,0,0.6,0.2,0.8c0.1,0.1,0.4,0.1,0.4,0.2c0,0.1-0.1,0.3,0,0.4
	C8.7,67.9,9,68,9.1,68.2c0.3,0.3,0.4,0.5,0.8,0.8c0.2,0.2,0.4,0.2,0.8,0.2c0.1,0,0.4,0,0.4,0c0,0,0,0.2,0,0.2c1,0.1,2.1,0.1,3-0.2
	c0.1,0,0-0.2,0.2-0.2c0.3,0,0.6,0.1,0.6-0.2c0.5,0.3,1,0.1,1.6,0c0.8-0.1,1.7-0.1,2.4-0.4c0,0,0.1-0.2,0.2-0.2
	c0.4-0.1,0.7-0.3,1-0.4c0.2,0,0.6,0.1,0.8,0c0.8-0.3,1.5-0.7,2-1.2c0.5,0,1.2,0.1,1.4-0.2c0.6,0.3,0.5-0.5,0.6-0.6
	c0.2-0.2,0.5-0.1,0.6-0.4c0.7-0.3,1.4-0.5,2-0.8c1.1-0.6,1.8-1.8,3.2-2c0.6-1,1.4-1.8,2.6-2.2c0.6-1,1.5-1.6,2.2-2.4
	c0.7-0.8,1.2-1.8,2.2-2.2c0.3-0.7,0.7-1.3,1.4-1.6c0.3-0.9,0.9-1.7,1.4-2.4c0.1-0.1,0.2,0,0.2-0.2c0-0.6,0.8-0.6,0.8-1.2
	c0-0.4,0.2-0.6,0.6-0.8v-1.6c0.8-0.1,0.4-1,0.6-1.4c0-0.1,0.4-0.1,0.4-0.2c0.1-0.3,0-0.7,0.4-1c0-1.3,0.3-2.3,0.6-3.6
	c0.2-1,0.3-2.7,0-4c-0.2-0.8-0.2-1.3-0.6-1.8c0-0.1-0.4-0.1-0.4-0.2c0-0.1,0.1-0.4,0-0.4c-0.2-0.2-1-0.5-1.6-0.8
	c-0.1,0-0.4,0.1-0.4,0c0,0,0-0.2,0-0.2c-0.1,0-0.4,0.1-0.4,0c0,0,0-0.2,0-0.2c-0.1,0-0.4,0.1-0.4,0c0,0,0-0.2,0-0.2
	c-0.1,0-0.4,0.1-0.4,0c-0.2-0.2-0.4-0.1-0.8-0.2c-0.4-0.1-0.7-0.1-1.4-0.2c-0.3,0-0.4-0.2-0.6-0.2c-0.2,0-0.3,0.2-0.6,0.2
	c0.1,0-0.1-0.2-0.2-0.2c-0.3-0.1-1.2,0-1.8,0c-0.9,0.1-1.9,0.2-2.8,0.4c-0.4,0.1-0.7,0.3-1.2,0.4c0.1,0-0.1-0.2-0.2-0.2
	c-0.2,0-0.1,0.2-0.2,0.2c-0.5,0.1-0.8,0-1.2,0.2c-0.1,0-0.4-0.1-0.4,0c0,0,0,0.2,0,0.2c-0.1,0-0.4-0.1-0.4,0
	c-0.1,0.2,0.1,0.4-0.2,0.4c-0.1,0-0.6-0.1-0.6,0c0,0,0,0.2,0,0.2c-0.1,0-0.4-0.1-0.4,0c-0.2,0.3-0.7,0.6-1.2,0.8
	c-0.6,0.1-0.5,1.2-1.2,1.2c-0.4,0-1,1-1.6,1c0.1-0.4-0.7,0-0.8-0.2c-0.1-0.1-0.3-0.3-0.4-0.4c-0.3-0.3-1-0.6-1.6-0.8
	c-0.3-0.8-1.1-1.2-1.6-1.8c-0.5-0.1-0.4-0.7-0.6-1c-0.2-0.3-0.6-0.6-0.8-0.8c-0.3-0.3-0.7-0.5-1-0.8c-0.3-0.3-0.5-0.7-0.6-1.2
	c0.2-0.7,0.9-0.8,1.4-1.2c0.6-0.3,0.8-1,1.6-1c0.5-1.9,2.3-2.4,3-4.1c0.7,0,1-0.7,1.4-1c0.3-0.3,0.5-0.5,0.8-1
	c0.2-0.3,0.7-0.4,0.4-0.8c0.3-0.3,0.6,0,0.8-0.4c0.2-0.3,0-0.6,0.2-0.8c0.2-0.2,0.9-1,1.2-1c0,0,0.4-0.2,0.4-0.2
	c0.1-0.1,0.1-0.5,0.2-0.6c0.5-0.6,1-1.3,1.6-1.8c0.4-0.1,0.2-0.6,0.4-0.8c0.1-0.2,0.3,0.1,0.4-0.2c0-0.1,0-0.3,0-0.4
	c0.3,0,0.4-0.4,0.6-0.6c0.2-0.2,0.4-0.4,0.6-0.6c0.3-0.4,0.7-0.7,1-1.2c0.3-0.4,0.5-1,0.8-1.4c0.3-0.4,0.8-0.7,1.2-1
	c0.2-1,0.8-1.7,1.4-2.4c0.3-0.4,0.5-0.9,0.8-1.2c0.2-0.2,0.7,0.1,0.8-0.2C37,6.3,36.6,6.2,36.7,6c0.2-0.5-0.4-0.5-0.8-0.4
	c-0.2,0-1,0.5-1.4,0.4c0,0.4-0.6,0.1-1,0.2c-0.3,0.1-0.8,0.3-1.2,0.6c-1.7,0-2.8,0.7-4,1.2c-0.2,0.1-0.3,0.4-0.4,0.6
	c-0.1,0.1-0.3,0.3-0.4,0.4c-0.1,0.2-0.1,0.4-0.2,0.6c-0.1,0.1-0.3,0.3-0.4,0.4c-0.2,0.4-0.2,0.8-0.4,1.2c-0.1,0.1-0.3,0.3-0.4,0.4
	c-0.1,0.2,0,0.5-0.4,0.4c-0.5,0.4-0.8,0.1-1.2-0.2c-0.2-0.1-0.5-0.6-0.8-0.6c-0.3,0-0.7-1-1.2-1c-0.3,0-0.3-0.4-0.6-0.6
	c-0.4-0.3-0.9-0.5-1.2-0.8C20.3,8.7,20.2,8.2,20,8c-0.1-0.2-0.5-0.2-0.6-0.4c-0.4-0.6-0.5-1.4-1-1.8c-0.5-0.4-0.7-1.1-0.6-2
	c0.2,0.1,0.1-0.3,0.2-0.4c0.2-0.1,0.8-0.1,1.2-0.2c0.1,0,0-0.2,0.2-0.2c0.1,0,0.2,0,0.2,0c0.5-0.2,1.7-0.5,2.4-0.6
	c0.2-0.1,0.4-0.2,0.8-0.2c0.5,0,1,0,1.4-0.2c0.1,0,0-0.2,0.2-0.2c0.8-0.2,1.7-0.3,3-0.4c0.3,0,0.6,0.1,0.8,0c0.2,0,0.2-0.2,0.4-0.2
	c0.5,0,0.9,0.1,1.4,0c0.3-0.1,0.6-0.4,1-0.4c0.4,0,0.7,0.1,1.2,0c0.1,0,0.3-0.2,0.2-0.2c0.9,0,1.1,0.2,2,0c0.4-0.1,0.5-0.3,1-0.2
	c0.1,0,0.3,0.2,0.2,0.2c0.1,0,0.3-0.2,0.6-0.2c1.6-0.1,3,0.1,4.3-0.2c0.1,0,0.4,0,0.4,0c0.2-0.3,0.1,0,0.2,0c0.5,0,1.1,0,1.6,0
	c0.5,0,0.9,0.2,1.4,0.2c0,0,0-0.2,0.2-0.2c0,0,0,0.2,0.2,0.2c0.3,0,0.4-0.2,0.6-0.2c0.5,0,1,0.2,1.4,0.2c0.5,0,1.1-0.2,1.6-0.2
	c0.5,0,1.1,0.2,1.6,0.2c2,0.1,4.1-0.2,6.1,0c0.9,0.1,1.7,0.3,2.6,0.4c0.9,0.1,1.9,0.1,2.8,0.4c0.2,0.1,0.2,0.2,0.4,0.2
	c1.2,0.2,2.8-0.1,3.4,0.8C66.3,2,67.3,2.7,68,3c0.3,0.1,0.5,0.1,0.8,0.2c0.1,0,0.1,0.4,0.2,0.4c0.1,0,0.3-0.1,0.4,0
	c0.4,0.3,0.8,1.1,1.2,1.6c0.3,0.4,1,1.8,1.2,2.6C72.1,8.7,72.3,9.5,71.7,10.2"/>
</svg>
