<?xml version="1.0" encoding="utf-8"?>
<!-- Generator: Adobe Illustrator 18.1.0, SVG Export Plug-In . SVG Version: 6.00 Build 0)  -->
<svg version="1.1" id="Слой_1" xmlns="http://www.w3.org/2000/svg" xmlns:xlink="http://www.w3.org/1999/xlink" x="0px" y="0px"
	 viewBox="0 0 59.4 74.4" enable-background="new 0 0 59.4 74.4" xml:space="preserve">
<path fill="#0D0F0F" d="M59,7.4c-0.1,0,0-0.3,0-0.4c0,0-0.2,0-0.2,0c-0.3-0.2,0-0.8-0.4-0.8c-0.1,0-0.5-0.3-0.6-0.4
	c-0.1-0.2-0.1-0.4-0.2-0.6c-0.5-0.6-0.8-1.1-1.2-1.6c-0.2-0.3-0.3-0.6-0.8-0.6c0.1-0.6-0.5-0.8-0.8-1.2c-0.3-0.3-0.6-0.9-1-1.2
	c-0.1-0.1-0.4,0.1-0.6,0c-0.1,0-0.1-0.3-0.2-0.4c-0.2-0.1-0.7,0-0.8-0.4c-0.7,0.1-1.4-0.1-2.1,0c-0.2,0-0.2,0.2-0.4,0.2
	c-0.2,0-0.1,0.2-0.2,0.2c-0.7,0.2-0.9-0.1-1.2,0.2c0,0.1-0.3,0-0.4,0C48,0.7,47.9,0.9,47.7,1c-0.2,0.1-0.4-0.1-0.6,0
	c-0.1,0-0.2,0.3-0.4,0.4c-0.4,0.1-0.8,0.1-1.2,0.2c0,0,0,0.2,0,0.2C45.6,1.8,45,2,45,2c-0.2,0.1-0.3,0-0.4,0.2
	c-0.1,0.1-0.3-0.1-0.4,0c-0.4,0.3-0.3,0.9-0.8,1c-0.5,0.3-0.6-0.1-0.8,0c-0.2,0.1-0.4,0.7-0.6,0.8c-0.1,0.1-0.4-0.1-0.6,0
	c-0.1,0.1-0.1,0.4-0.4,0.4c-0.2,0-0.1,0.1-0.2,0.2c-0.5,0.3-0.7,0.5-1.2,0.8c0,0,0,0.2,0,0.2c0,0.1-0.3,0-0.4,0
	c-0.1,0.1-0.3,0.3-0.4,0.4c0,0-0.2,0-0.2,0c-0.2,0-0.1,0.1-0.2,0.2c-0.4,0.3-1,0.5-1.4,0.8c-0.1,0.1-0.3,0.3-0.4,0.4
	c-0.1,0.2-0.1,0.4-0.2,0.6c-0.1,0.1-0.5,0.1-0.6,0.2c-0.1,0.1,0,0.5-0.2,0.6c-0.5-0.5-0.8,0.2-1,0.4c-0.2,0.2-0.2,0-0.4,0.2
	c-0.3,0.2-0.4,0.5-0.6,0.6c-0.3,0.2-0.7,0-1,0.2c-0.2,0.1-0.2,0.4-0.4,0.6c-0.5,0.5-1.1,1.1-1.6,1.6c-0.4,0.3-1,0.5-1.4,0.8
	c-0.1,0.1,0,0.3,0,0.4c0,0-0.3,0.2-0.4,0.2c-0.3,0.3-0.2,0.5-0.8,0.4c-0.2,0.1-0.1,0.4-0.2,0.6c-0.1,0.1-0.3-0.1-0.4,0
	c-0.1,0.1-0.1,0.3-0.2,0.4c-0.1,0.1-0.4,0.1-0.6,0.2c-0.5,0.4-0.7,1.1-1.2,1.6c-0.5-0.2-0.5,0.3-1,0.2c-0.3,0.1,0,0.9-0.4,1
	c-0.4-0.1-0.4,0.2-0.6,0.4c-0.7,0.6-0.9,1.3-1.7,1.6c0,0.8-0.9,1.3-1,1.8c0,0.6-1.2,0.7-1,1.4c-0.6-0.1-0.8,0.3-1.2,0.4
	c-0.1,0.6-0.3,1.1-0.6,1.6c-0.5,0.2-1.1,0.4-1.6,0.8c-0.2,0.1-0.1,0.4-0.2,0.6c-0.1,0.2-0.5,0.2-0.6,0.4c-0.3,0.3-0.5,0.9-0.8,1.2
	c-0.2,0.1-0.4,0.1-0.6,0.2c-0.1,0-0.1,0.3-0.2,0.4c-0.1,0.1-0.3-0.1-0.4,0c-0.1,0.1,0,0.3,0,0.4c0,0.1-0.3,0.1-0.4,0.2
	c-0.1,0.2-0.2,0.2-0.4,0.4c-0.1,0.1,0,0.3,0,0.4c-0.2,0.2-0.4,0.4-0.6,0.6c-0.2,0.3-0.1,0.8-0.6,0.6c-0.1,0.2-0.1,0.4-0.2,0.6
	c-0.1,0.1-0.3,0.3-0.4,0.4c-0.1,0.2-0.1,0.4-0.2,0.6c-0.1,0.2-0.5,0.2-0.6,0.4c-0.5,0.7-0.9,1.5-1.4,2.1c-0.1,0.1-0.3,0.2-0.4,0.4
	c-0.1,0.2-0.2,0.4-0.4,0.6c-0.2,0.3-0.6,0.6-0.6,0.8c0,0.3-0.3,0.6-0.4,0.8c0,0.1-0.1,0.1-0.2,0.2c-0.3,0.5-0.7,0.9-1.2,1.2
	c0,0.2,0.1,0.4,0,0.6c0,0.1-0.3,0.3-0.4,0.4c-0.2,0.4-0.4,0.7-0.6,1c-0.2,0.3-0.2,0.7-0.4,1c-0.1,0.1-0.3,0.3-0.4,0.4
	c-0.1,0.2-0.2,0.4-0.4,0.6c-0.1,0,0,0.3,0,0.4C4.3,43.1,4,43.3,4,43.4c0,0.1,0,0.3,0,0.4c0,0.2-0.2,0.1-0.2,0.2
	c-0.4,1-0.7,1.7-1,2.7c-0.4,0.2-0.6,0.4-0.6,0.8c0,0.2-0.2,0.1-0.2,0.2c-0.1,0.2,0,0.5,0,0.8c0,0.3-0.2,0.4-0.2,0.6
	c-0.1,0.4-0.1,1-0.2,1.4c0,0.1-0.4,0.3-0.4,0.4c-0.1,0.2,0.1,0.5,0,0.8c0,0.1-0.2,0-0.2,0.2C1,52,1,52.1,0.9,52.3
	c-0.2,0.4-0.1,0.7-0.2,1.2c-0.1,0.8-0.6,2.1-0.6,2.5c0,0.4,0.4,0.6,0.4,1c-0.3,0.1-0.3,0.3-0.4,0.6c0,0.2,0.2,0.1,0.2,0.2
	c0,0.2-0.2,0.3-0.2,0.4C-0.1,59.7,0,60.7,0.3,62c0.1,0.8,0.4,2,0.6,2.3C1,64.5,1,64.6,1.1,64.8c0.3,0.4,0.5,0.6,0.8,0.8
	c0.1,0,0,0.3,0,0.4c0,0,0.2,0,0.2,0c0.1,0,0,0.3,0,0.4c0,0,0.2,0,0.2,0c0.1,0.1-0.1,0.3,0,0.4c0.4,0.6,1.5,1.2,1.8,1.6
	c0.1,0.2,0.1,0.4,0.2,0.6c0.2,0.3,0.6,0.4,0.6,0.8c0.6-0.1,0.4,0.5,1,0.4c0,0.4,0.2,0.4,0.4,0.6c0.4,0.4,0.6,0.4,1,0.6
	c0.1,0,0.1,0.3,0.2,0.4c0.4,0.3,0.8,0.8,1.2,0.8c0.2,0,0.1,0.1,0.2,0.2c0.1,0.1,0.4-0.1,0.6,0c0.1,0.1,0,0.6,0.2,0.6
	c0.4-0.1,0.9,0.1,1.2,0.2c0.5,0.2,0.5,0.3,0.8,0.4c0.7,0.2,1.6,0.3,1.9,0.4c0.3,0.1,0.4,0.2,0.6,0.2c1.2,0.3,2.4-0.2,3.1-0.4
	c0.1,0,0.2-0.2,0.2-0.2c0.2,0,0.2,0.2,0.4,0.2c0,0,0.1-0.2,0.2-0.2c0,0,0.1,0,0.2,0c0.2,0,0.1-0.2,0.2-0.2c0.6-0.2,0.8-0.2,1.4-0.2
	c0.2,0,0.2-0.2,0.2-0.2c0.6-0.1,1.1-0.3,1.7-0.2c0.9-0.7,1.9-1.1,2.9-1.6c0.2-0.1,0.6,0.1,0.6-0.2c0-0.3,0.6-0.4,0.8-0.4
	c0.2,0,0.1-0.2,0.2-0.2c0.5-0.2,1.3-0.3,1.8-0.6c0,0,0.2-0.3,0.2-0.4c0.1-0.1,0.3,0,0.4,0c0.1,0,0.1-0.3,0.2-0.4
	c0.1-0.1,0.3,0,0.4,0c0.1,0,0.1-0.3,0.2-0.4c0.1-0.1,0.3,0,0.4,0c0.2-0.2,0.4-0.5,0.6-0.6c0.2,0,0.3-0.2,0.4-0.4
	c0-0.3,0.3-0.2,0.4-0.4c0.2-0.1,0.5,0.1,0.8,0c0.1,0,0.3-0.3,0.4-0.4c0.8-0.3,1.1-0.4,1.4-0.8c0.1-0.1,0.3,0.1,0.4,0
	c0.1-0.1,0-0.3,0-0.4c0,0,0.3-0.2,0.4-0.2c0.2-0.2,0.4-0.2,0.6-0.4c0.2-0.2,0.2-0.5,0.4-0.8c0.7,0.3,1-0.5,1.2-0.6
	c0.2-0.1,0.4-0.1,0.6-0.2c0,0,0-0.2,0-0.2c0.1-0.1,0.3,0,0.4,0c0.4-0.3,0.7-1.1,1.2-1.2c0.2,0,0.1-0.1,0.2-0.2
	c0.3-0.2,0.6-0.3,0.8-0.4c0.2-0.1,0.4-0.4,0.6-0.4c0.2,0,0.1-0.1,0.2-0.2c0.5-0.3,0.9-0.7,1.4-0.8c0.2-1,1-1.3,1.2-2.3
	c0.5-0.2,0.8-0.6,1.4-0.8c0.2-0.5,0.3-0.8,0.6-1.2c0.5-0.6,1.4-0.8,1.7-1.4c0.1-0.1-0.1-0.4,0-0.6c0-0.1,0.3-0.1,0.4-0.2
	c0.2-0.4,0.3-0.7,0.2-1.2c0.5-0.4,1.3-1,1.4-1.6c0-0.2,0.2-0.1,0.2-0.2c0.1-0.3,0-0.8,0-1.2c0-0.2,0.2-0.2,0.2-0.4
	c0-0.1-0.3-0.2-0.2-0.4c0.3-0.5,0.8-0.9,0.8-1.7c0.1-0.8-0.5-0.8-0.6-1.4c0,0.1,0.2-0.3,0.2-0.4c0-0.3,0-0.5,0-0.8
	c-0.3-0.1-0.4-0.4-0.6-0.6c-0.3-0.2-0.7-0.2-0.8-0.6c-0.2-0.6-1.3-1.3-1.4-1.8c0-0.2-0.1-0.1-0.2-0.2c-0.2-0.4-0.7-1.3-1.2-1.4
	c-0.3,0-0.2-0.5-0.4-0.6c-0.7,0.2-0.8-0.3-1-0.4c-0.2-0.1-0.4-0.1-0.6-0.2c-0.1-0.1-0.4-0.4-0.6-0.4c-0.2,0-0.1-0.1-0.2-0.2
	c-0.4-0.3-0.7-0.4-1-0.6c-0.1,0-0.1-0.1-0.2-0.2c0,0-0.2-0.2-0.2-0.2c-0.4-0.2-1.1,0-1.8-0.2c0,0,0-0.2,0-0.2c0-0.1-0.3,0-0.4,0
	c0,0,0-0.2,0-0.2c0-0.1-0.3,0-0.4,0c-0.4-0.2-0.6-0.4-1-0.4c-0.4,0-0.8,0.4-1.2,0.2c-0.4-0.4-0.8-0.4-1.4-0.4
	c-0.1,0-0.2-0.2-0.2-0.2c-0.3,0-0.8,0.2-1.2,0.2c-1.1,0.1-1.9-0.1-2.5-0.2c-0.2,0-0.4,0-0.6,0c-0.4,0-0.4-0.2-0.6,0
	c-0.1,0.1-0.8,0-1,0c-0.3,0.1-0.7,0.4-1,0.4c-0.2,0-0.1,0.1-0.2,0.2c-0.6,0.3-0.7,0-1.2,0c0.1,0-0.1,0.2-0.2,0.2
	c-0.8,0.2-1.6,0-2.1,0.2c-0.1,0-0.3,0.4-0.4,0.4c-0.1,0-0.3,0-0.4,0c-0.2,0-0.1,0.2-0.2,0.2c-0.4,0.2-0.8,0.2-1.2,0.4
	c-0.3,0.2-0.7,0.4-1,0.6c-0.4,0.2-0.8,0.3-1,0.8c-0.4-0.1-0.4,0.3-0.6,0.4v2.3c0.5,0.3,1.1,0.7,1.4,0.8c0.3,0.1,0.4,0.1,0.6,0.2
	c0.4,0.3,0.3,0.1,0.8,0c0.7-0.1,1.1,0.2,1.6,0.2c0.3,0,0.4-0.2,0.6-0.2c0.1,0,0.2,0.2,0.2,0.2c0.8,0,1.3-0.1,1.6-0.2
	c0.2-0.1,0.5,0.1,0.8,0c0.5-0.1,0.9-0.5,1.4-0.6c0.2-0.1,0.6,0.1,0.8,0c0.1-0.1,0.2-0.4,0.4-0.4c-0.1,0,0.3,0.2,0.4,0.2
	c0.6,0.1,0.8-0.1,1-0.2c0.6-0.1,0.5-0.1,1-0.2c0.4,0,0.8,0.4,1,0.2c0.3-0.3,1-0.3,1.4-0.4c0.5,0.3,1.1,0.7,1.7,0.8
	c0.2,0,0.3-0.2,0.6-0.2c1.2-0.2,3.1-0.1,3.5,0.4c0.1,0.1,0.8,0,1,0c0.7,0.2,1.2,0.6,1.9,0.4c0,0.4,0.7,0.5,0.8,0.6
	c0.1,0.1-0.1,0.3,0,0.4c0.1,0.1,0.5,0,0.6,0.2c0.1,0.1,0.1,0.5,0.2,0.6c0.3,0.4,0.7,1.1,0.8,1.6c0,0.2-0.2,0.1-0.2,0.2
	c-0.1,0.2,0,0.4,0,0.6c-0.2,1.1-0.3,1.8-0.4,2.5c-0.2,0.3-0.7,0.3-1,0.6c-0.3,1.7-2,2-2.3,3.7c-0.5-0.1-0.4,0.4-1,0.2
	c-0.3,1.2-1.5,1.5-1.9,2.5c-1.5,0.5-2.1,1.7-3.1,2.7c-0.5,0-0.7,0.4-1,0.6c-0.2,0.1-0.4,0.1-0.6,0.2c-0.2,0.2-0.2,0.4-0.4,0.6
	c-0.3,0.2-0.6,0.3-1,0.6c-0.3,0.2-0.6,0.8-1.2,0.6c-0.6,0.8-1.5,1.2-2.5,1.6c-0.3,0.5-0.7,0.9-1.2,1.2c-2,0.2-2.8,1.6-4.9,1.7
	c-0.5,0.3-0.7,0.8-1.4,1c-1,0.1-2.5,0.7-3.3,1c-0.2,0.1-0.4,0.1-0.8,0.2c-0.4,0.1-0.8,0.5-1.2,0.6c0,0-0.2-0.2-0.4-0.2
	c-0.2,0-0.3,0.2-0.6,0.2c-1.3,0.1-2.4,0.1-3.3,0.2c0,0,0-0.2-0.2-0.2c-0.1,0,0,0.2-0.2,0.2c-0.2,0-0.5,0-0.8,0
	c-0.3,0-0.4-0.2-0.8-0.4c-0.5-0.2-0.9-0.3-1-0.4c0-0.1-0.3,0-0.4,0c-0.5-0.2-1.3-0.5-1.4-0.8c0-0.2-0.1-0.1-0.2-0.2
	c-0.2-0.2-0.3-0.2-0.4-0.4c-0.2-0.3-0.1-0.4-0.2-0.8c-0.1-0.4-0.5-0.9-0.6-1.2c-0.4-1.6,0.2-3.4-0.4-5.1c0.3,0,0.2-0.3,0.2-0.6
	c0-0.2,0.2-0.1,0.2-0.2c0.2-0.7,0.2-1.4,0.4-1.9c0-0.1,0.7-0.6,0.2-0.6c0.1-1.5,1-2.1,1-3.7c0.5-0.4,0.7-1.1,0.8-1.4
	C8,51.5,8.1,51,8.3,50.8c0.2-0.4,0.4-0.6,0.4-1c0-0.2,0.1-0.1,0.2-0.2c0.3-0.5,0.7-0.9,0.6-1.6c0.1-0.2,0.4-0.1,0.6-0.2
	c0.1-0.1,0-0.3,0-0.4c0,0,0.2,0,0.2,0c0.1,0,0-0.3,0-0.4c0.1-0.2,0.3-0.2,0.4-0.4c0.1-0.2,0-0.4,0-0.6c0-0.1,0.3-0.3,0.4-0.4
	c0.1-0.2-0.1-0.4,0-0.6c0-0.1,0.3-0.3,0.4-0.4c0.2-0.4,0.4-0.9,0.4-1.2c0-0.4,0.5-0.4,0.6-0.6c0.3-0.6,0.4-1.3,1-1.7
	c0.3-0.2,0.2-0.8,0.4-1.2c0.4-0.3,0.9-0.6,1.4-0.8c0.1-0.8,0.8-1.3,1.2-1.8c0.1-0.2,0.5-0.4,0.6-0.6c0.2-0.2,0.1-0.5,0.2-0.8
	c0.2-0.4,0.6-0.6,0.8-0.8c0.1,0,0-0.3,0-0.4c0.1-0.3,0.4-0.4,0.4-0.8c0.5-0.2,0.8-0.6,1.2-1c0.4-0.4,0.8-0.8,1.2-1.2
	c0.2-0.2,1.2-1.1,1.2-1.2c0-0.3,0.4-0.6,0.6-0.6c0.3,0,0.3-0.3,0.6-0.4c0.3-0.6,0.6-1.2,1-1.8c0.5,0.2,0.5-0.3,1-0.2
	c0-0.7,0.6-0.9,1-1.4c0.2-0.2,0.4-0.4,0.6-0.6c0.2-0.3,0.1-0.6,0.4-0.8c0.4-0.3,0.8-0.6,1.4-0.8c0.3-0.5,0.8-0.8,1.4-1
	c0.3-0.6,0.7-1,1.2-1.4c0.2-0.1,0.4-0.1,0.6-0.2c0.2-0.1,0.2-0.4,0.4-0.6c0.2-0.1,0.4-0.1,0.6-0.2c0.2-0.1,0.2-0.4,0.4-0.6
	c0.3-0.3,0.7-0.5,1-0.8c0.3-0.3,0.6-0.7,1-1c1.3-0.4,2.4-1.7,3.9-2.5c0.4-0.2,1.4-0.4,1.6-0.6c0.2-0.2,0.4-0.2,0.6-0.4
	c0.3-0.2,0.9-0.3,1.2-0.4c0.3-0.1,0.7-0.2,1-0.2c2.4-0.2,3,0.7,4.7,1.2c0.2,0.3,0.4,0.6,0.8,0.8c0.3,0.3,0.5,0.6,1,0.8
	c-0.1,0.4,0.1,0.6,0.2,0.8c0.1,0.2,0.4,0.8,0.6,0.8c0.5,0,0.2,0.6,0.6,0.6c0.2,0,0.1,0.1,0.2,0.2c0.5,0.3,0.6,0.6,1.2,0.8
	c0.2,0.1,0.4-0.1,0.6,0c0.1,0,0.2,0.4,0.4,0.4c0,0,0.2-0.4,0.2-0.4c0.3-0.3,0.5-0.4,0.8-0.6c0.1-0.1,0-0.3,0-0.4c0,0,0.2,0,0.2,0
	c0.1,0,0-0.3,0-0.4c0,0,0.2,0,0.2,0c0.1,0,0-0.3,0-0.4c0,0,0.2,0,0.2,0c0.2-0.1,0.1-0.6,0.2-0.8c0.4-0.2,0.7-0.5,1-0.8
	c0.3-0.3,0.3-0.5,0.4-0.8c0-0.1,0.3-0.1,0.4-0.2c0.3-0.3,0.3-0.5,0.4-0.8c0-0.1,0.3-0.1,0.4-0.2c0.3-0.3,0.5-0.7,0.8-1v-1.2
	c0.7-0.5,0.7-1.4,1-2.1C59.2,9.9,59.8,8.1,59,7.4"/>
</svg>
