<?xml version="1.0" encoding="utf-8"?>
<!-- Generator: Adobe Illustrator 18.1.0, SVG Export Plug-In . SVG Version: 6.00 Build 0)  -->
<svg version="1.1" id="Слой_1" xmlns="http://www.w3.org/2000/svg" xmlns:xlink="http://www.w3.org/1999/xlink" x="0px" y="0px"
	 viewBox="0 0 56.1 96" enable-background="new 0 0 56.1 96" xml:space="preserve">
<path fill="#FFFFFF" d="M39.7,94.9C39.8,94.8,39.8,94.8,39.7,94.9C39.8,94.8,39.7,94.8,39.7,94.9 M0.6,92.6L0.6,92.6
	C0.6,92.5,0.6,92.5,0.6,92.6C0.6,92.5,0.6,92.5,0.6,92.6 M0.7,92.4c0,0,0,0.1,0,0.1C0.7,92.4,0.7,92.4,0.7,92.4
	C0.7,92.4,0.7,92.4,0.7,92.4 M47.3,78C47.3,78,47.2,78,47.3,78C47.2,78,47.3,78,47.3,78 M3.5,77.6C3.5,77.6,3.5,77.5,3.5,77.6
	C3.5,77.5,3.5,77.6,3.5,77.6 M16,35.1C16,35.1,16,35.1,16,35.1C16,35.1,16.1,35.1,16,35.1 M12,34.1c0,0,0.1,0,0.2,0
	C12.1,34.1,12,34.1,12,34.1C12,34.1,12,34.1,12,34.1 M12.5,33.9C12.5,33.9,12.5,33.9,12.5,33.9C12.6,33.9,12.6,33.9,12.5,33.9
	C12.6,33.9,12.5,33.9,12.5,33.9C12.5,33.9,12.5,33.9,12.5,33.9 M42.4,13.9C42.4,13.8,42.3,13.8,42.4,13.9
	C42.3,13.8,42.4,13.8,42.4,13.9 M3.1,94.2c0,0.1,0,0.1,0,0.2c0,0,0,0,0,0C3,94.3,3,94.2,3.1,94.2 M0.4,93.5c0,0,0,0.1,0,0.1
	c0,0,0,0,0,0C0.4,93.6,0.4,93.6,0.4,93.5 M0.4,92.8C0.4,92.8,0.4,92.8,0.4,92.8c0.1,0,0.1,0,0.2,0c0.1,0,0.2,0,0.2,0.1
	c0,0,0,0,0,0.1c0,0,0,0,0,0c0,0,0-0.1,0-0.1c0,0,0,0,0,0l0.1,0c0,0-0.1,0.1-0.2,0.1c0,0,0,0,0-0.1c-0.1,0-0.3,0.1-0.4,0.1
	c0,0.1,0.1,0.1,0.1,0.1c0,0-0.1,0.1-0.1,0.1c0,0,0,0,0,0l0,0c0,0-0.1,0.1-0.1,0.1c0,0-0.1,0-0.1,0c0,0,0.1,0,0.1,0c0,0,0,0,0,0
	C0.1,93.3,0.2,93,0.4,92.8 M15,34.3c0-0.1,0.1-0.1,0.1,0C15.1,34.4,15.1,34.4,15,34.3C15.1,34.4,15,34.3,15,34.3 M13.4,34.2
	c0-0.1,0.1-0.1,0.1-0.1C13.6,34.1,13.6,34.2,13.4,34.2C13.5,34.2,13.5,34.2,13.4,34.2 M15.4,34.3C15.4,34.3,15.4,34.3,15.4,34.3
	L15.4,34.3c0-0.1,0-0.2,0-0.2c0,0,0-0.1,0.1-0.1c0,0,0,0.1,0,0.1c0-0.1,0.2,0.2,0.3,0.5c-0.1,0.1-0.1,0.3-0.2,0.3c0,0,0,0,0,0l0,0.1
	c0,0,0-0.1-0.1-0.2c0,0,0,0,0,0.1c0,0,0,0,0,0c0,0,0,0,0.1,0c0,0,0,0,0-0.1c0.1-0.1,0.1-0.3,0.1-0.4c0,0-0.1,0-0.1,0c0,0,0,0,0,0
	c0,0,0,0,0,0C15.5,34.5,15.4,34.4,15.4,34.3 M12.7,34.4c-0.1-0.2-0.3-0.4-0.2-0.5c0,0,0,0-0.1,0l-0.1-0.1c0.1,0,0.2,0.1,0.3,0.2
	c0,0-0.1,0-0.1,0c0,0.1,0.3,0.4,0.5,0.5c0.1-0.1,0-0.1,0-0.1c0.1,0,0.2,0.1,0.2,0.1c0,0,0,0,0.1,0l0,0c0.1,0,0.1,0.1,0.2,0.1
	c0,0,0.1,0.1,0.1,0.1c-0.1,0-0.1-0.1-0.2-0.1c0,0,0,0,0,0C13.4,34.6,13.1,34.5,12.7,34.4 M38.4,33.8c0-0.1,0-0.1,0.1,0
	C38.5,33.8,38.4,33.8,38.4,33.8C38.4,33.8,38.4,33.8,38.4,33.8 M38.7,33.6C38.7,33.6,38.7,33.6,38.7,33.6L38.7,33.6
	c0-0.1-0.1-0.2-0.1-0.2c0,0,0-0.1,0-0.1c0,0,0,0.1,0,0.1c0-0.1,0.1,0,0.3,0.1c-0.1,0-0.1,0.1-0.2,0.1C38.8,33.7,38.8,33.6,38.7,33.6
	 M24.5,0c-0.3,0-0.7,0-1,0c-0.3,0-0.6,0.1-1,0.1c-0.3,0-0.6,0.1-0.9,0.1c-0.3,0.1-0.6,0.2-0.9,0.3c-0.2,0.1-0.5,0.3-0.7,0.4
	c-0.2,0.2-0.4,0.3-0.6,0.5c-0.4,0-0.4,0.3-0.9,0.4c-0.7,0-1.2,0.1-1.4,0.3C17,2.3,17,2.4,17.4,2.3c-0.9,0.6-1.8,1.1-2.5,1.6
	c-0.3,0.3-0.6,0.6-0.9,0.9c-0.2,0.3-0.5,0.3-0.7,0.3c-0.6,0.7-0.5,0.4-1.3,1.1c-0.2,0-0.5,0.5-0.8,1.1c-0.3,0.5-0.6,1.1-0.7,1.2
	l0.1-0.1c-0.4,0.4-0.7,0.8-1,1.1c-0.4,0.3-0.7,0.7-0.9,1.2c-0.8,1.3-1.4,2.9-1.7,4.5c-0.1,0.4-0.2,0.8-0.2,1.2
	c-0.1,0.4-0.1,0.8-0.2,1.2c0,0.4-0.1,0.8-0.1,1.1c0,0.4,0,0.8,0,1.1c0.2,0,0-0.6,0.3-0.7c-0.1,1.7-0.2,3.4,0.1,5.2
	c0,0.3,0,0.7,0,0.9c0.1,0.6,0.2,0.3,0.3,0.7l-0.2,0.1C6.9,26.2,7,26.4,7,26.6c0,0.2,0,0.5,0.2,0.7c0.1,0,0.2,0.2,0.3,0.4
	c-0.2,0.1,0.3,0.6,0.1,0.6h0c0.1,0.1,0.1,0.2,0.1,0.3c0.1,0.1,0.5,0.5,0.9,1c0.5,0.4,0.9,0.8,1,0.9l0,0.1c0.2,0.3,0.4,0.3,0.3,0.1
	c0,0,0,0.1,0.1,0.2c0.1,0.1,0.1,0.2,0.1,0.2l0,0l0.2,0.3c0,0.1,0,0.2-0.1,0.2c0.2,0.1,0.4,0.3,0.5,0.5c-0.3-0.6-0.6-1.3-0.7-1.9
	c0.2,0.2,0.3,0.6,0.5,0.8c0.1,0.3,0.4,1,0.6,1.5c0.1,0.1,0.3,0,0.4,0.3c0,0.2,0.2,0.2,0.3,0.5c-0.2-0.1-0.4-0.3-0.5-0.5
	c-0.1,0.2,0.3,0.6,0.4,0.8c0.1,0,0.4,0.5,0.7,0.6c-0.2,0-0.1,0.1,0,0.3c0,0-0.1,0-0.1,0c0,0,0.1,0,0.1,0v0c0,0,0.1,0,0.1,0
	c0,0-0.1,0-0.1,0c0.1,0.1,0.1,0.1,0.1,0.2c0.1,0.2,0.3,0.2,0.3,0.1c0,0,0-0.1,0-0.1c0.5,0.2,1,0.5,0.9,0.4c0-0.1,0-0.1,0-0.1
	c0,0,0.1,0,0.1,0c0,0,0.1,0,0-0.1l-0.1,0c-0.3-0.3,0-0.4,0.3-0.5c0,0,0.1,0,0.1,0c0,0,0,0.1,0,0.1c0.3-0.3,0.2,0.1,0.2,0.4
	c-0.1,0-0.2,0.1-0.3,0.4c0,0.2,0.1,0.1,0.1,0.2c-0.1,0.1-0.1,0.3-0.3,0.3c0.1,0.2-0.1,0.2-0.1,0.4c0,0.1,0,0.1,0.1,0.1
	c0,0,0,0,0.1,0c0,0.2-0.1,0.6-0.1,0.7c-0.1,0.1-0.4,0.3-0.5,0.1c0-0.2,0.1-0.1,0.2-0.1c0.1,0,0.1,0.1,0.1-0.1
	c-0.3,0.1,0-0.3-0.2-0.4c-0.1,0.1-0.2,0.3-0.1,0.5l0,0c0,0.2,0,0.5-0.1,0.7c-0.1-0.1-0.2,0-0.2-0.1l0,0.2c0,0,0.1,0.1,0.1,0
	c0.1,0.1,0,0.2-0.1,0.3c-0.1,0,0.3,1.3,0.2,1.3c0,0.1,0,0.1-0.1,0.2c0-0.4-0.2-1.4-0.2-1.3c-0.1,0.1,0.3,2,0.1,2.1
	c0,0.1,0,0.3,0.1,0.3c0,0.1-0.1,0.1-0.1,0c0,0-0.1-0.1-0.2,0c0,0,0.1,0,0,0l-0.1,0.1c0.1,0.4-0.1,0.8,0,1.2
	c-0.1-0.1-0.3-0.3-0.4-0.5l0.1,0c0,0,0-0.2-0.1-0.2c-0.1,0.2-0.1,0.4,0,0.6c0,0-0.1,0.1-0.1,0.1c0,0,0,0,0,0c-0.1,0.1-0.1,0.1-0.1,0
	c0,0,0,0,0,0c-0.3,0.1,0.1,0.9-0.1,1.2c0,0.1,0.1,0,0.1,0.2c-0.2,0.4-0.3,0.6-0.4,1.1c0.1,0.1,0.2,0.2,0.3,0l-0.1,0.3
	c-0.2-0.2-0.3,0-0.4,0.1c-0.1,0.1-0.2,0.3-0.4,0.1C11,44.7,11,44.9,11,45.1c0.1,0,0.2,0.1,0.2,0.3c-0.2,0.3-0.1,0.2-0.2,0.5
	c-0.1,0-0.2-0.1-0.2-0.1c0.1,0.4-0.3,0.3-0.3,0.7c0,0.2,0,0.7,0.2,0.7c0,0.3-0.2,0.3-0.4,0.2l-0.1,0.3c0.1-0.8,0.3-1.7,0.5-2.5
	C9.7,46.9,8.8,49,10,50.7c-0.8,0-1.4,1.8-1.2,1.8c0.1,0.4,0.1,0.8,0.2,1.2c0.1,1.2,0,2.5-0.3,3.8c-0.3,1.3-0.7,2.6-1.1,3.9
	c-0.2,0.7-0.6,2.1-1,3.4c-0.2,0.7-0.4,1.3-0.6,1.9c-0.2,0.6-0.4,1.1-0.5,1.5c-0.1,0.2-0.2,0.4-0.2,0.6c0.2-0.3,0.2-0.3,0.3-0.7
	c0,1,0,1.8-0.2,2.7c0.1-0.1,0.3-0.1,0.5-0.4l-0.2,0.4c0.2,0.5-0.1,1.3-0.1,1.7c-0.1-0.1-0.3,0.2-0.4,0.4l0.1-0.1
	c-0.4,1-0.6,2.3-1,3.3c0,0.1-0.1,0.2-0.2,0.3l-0.2,1c-0.1-0.1-0.2,0.1-0.2,0.2c-0.1,0.1-0.2,0.3-0.2,0.1c0,0.7-0.3,1.4-0.3,2.1
	c-0.3,1.2-0.7,2.4-0.9,3.7c-0.1,0.6-0.2,1.3-0.3,1.9c-0.1,0.6-0.2,1.3-0.2,1.9l0.1,0c0,0.4,0,0.9,0,1.3c0,0.5,0,0.9-0.2,1.4
	c0.2,0.8,0.1,1.9,0.5,2.3c0,0,0,0,0,0c0,0-0.1,0-0.1,0c0,0,0.1,0,0.1,0c0,0.1,0,0.2,0,0.2c-0.1,0-0.2,0-0.4,0c-0.1,0,0,0.3-0.2,0.2
	c-0.1-0.1-0.1,0-0.2,0c0,0-0.1,0-0.2,0c0.1-0.1,0.3-0.1,0.4-0.2c-0.1-0.1-0.2-0.1-0.3-0.1c-0.1,0-0.1,0-0.2,0c0,0.1-0.3,0.1-0.5,0.2
	c0-0.1-0.1-0.1-0.2-0.1c0,0,0,0,0,0c0,0,0,0,0,0.1c0,0,0,0,0-0.1c0,0-0.1,0-0.2,0c-0.1,0-0.2,0.1-0.1,0.2c0,0,0,0.1,0.1,0.1
	c-0.2,0.3-0.5,0.5-0.4,0.5c0,0,0.1,0,0.1,0.1c0,0,0,0,0,0.1c0,0,0,0.1,0.1,0.1l0-0.1c0.3-0.1,0.3,0.2,0.3,0.5c0,0.3,0,0.6,0.3,0.5
	c-0.3-0.1,0-0.3,0.2-0.4c0.1,0.1,0.2,0.1,0.4,0.1c0.2-0.1,0.1-0.1,0.1-0.2c0.1,0,0.3,0,0.3,0.1c0-0.1,0.1-0.1,0.2-0.1
	c0.1,0,0.1,0,0.2,0c0.1-0.1,0-0.1,0-0.2c0.1,0,0.2,0,0.2-0.1c0,0.1,0,0.2,0,0.3c0.1-0.1,0.1,0,0.2,0.2c0,0,0,0.1,0,0.1
	c0,0,0,0,0.1,0c0,0.2,0.1,0.4,0.2,0.2c0.1-0.1,0.1-0.1,0.1-0.2c0,0,0.1,0,0.1,0l0,0c0.1-0.1,0.4-0.2,0.6-0.1c0,0.1,0.1,0.2,0,0.2
	l0.2,0c0,0,0-0.1,0-0.1c0.1-0.1,0.2-0.1,0.3,0c0,0,0.3-0.1,0.5-0.3C4.7,93.9,5,93.7,5,93.8c0.1,0,0.1,0,0.1,0c0,0,0,0,0,0
	C5,93.8,4.8,93.9,4.7,94c-0.3,0.2-0.6,0.4-0.5,0.3c0.1,0,0.4-0.2,0.8-0.4c0.4-0.2,0.8-0.4,0.8-0.3c0.1,0,0.2-0.1,0.2-0.2
	c0.2,0,0,0.2,0.1,0.3c0,0,0,0,0-0.1l0.1,0.1c0.3-0.2,0.7-0.1,1-0.3c-0.1,0.1-0.1,0.3-0.3,0.5l0,0c0,0-0.2,0.1-0.2,0.2
	c0.2,0,0.3,0,0.5-0.1c0,0,0.1,0,0.1,0.1c0,0,0,0,0,0C7.5,94,7.5,94,7.5,94.1c0,0,0,0,0,0c0.1,0.2,0.3,0,0.5-0.1
	c0.2-0.1,0.4-0.2,0.5-0.1c0.1-0.1,0-0.1,0.1-0.1C9,93.9,9.3,94,9.6,94c0.1-0.1,0.1-0.2,0-0.3l0.3,0c-0.2,0.4,0.5,0.3,0.3,0.7
	c0.1,0.1,0.2,0.1,0.4,0c0-0.1,0-0.2,0.2-0.3c0.3,0.1,0.2,0.1,0.4,0.2c0.1,0.1,0,0.2,0,0.3c0.2-0.1,0.3,0,0.3,0.1
	c0.1,0.1,0.1,0.1,0.3,0.1c0.2,0,0.6-0.1,0.6-0.3c0.3,0,0.3,0.1,0.3,0.3l0.2,0c-0.7,0.1-1.4,0-2.2,0c0.8,0.3,1.7,0.6,2.5,0.6
	c0.8,0,1.6-0.2,2.2-0.9c0.1,0.8,1.7,1.1,1.7,0.9c0.3-0.1,0.7-0.3,1-0.3c2.1-0.6,4.4-0.2,6.8,0.2c1.3,0.2,5,0.5,6.4,0.8
	c0.2,0,0.4,0.1,0.6,0.1c-0.3-0.1-0.3-0.1-0.7-0.1c0.9-0.2,1.6-0.4,2.4-0.5c-0.1-0.1-0.2-0.2-0.5-0.4l0.4,0.1
	c0.3-0.3,1.2-0.3,1.5-0.5c-0.1,0.2,0.2,0.2,0.5,0.2l-0.1-0.1c0.5,0,1,0,1.5-0.1c0.5,0,1-0.1,1.4-0.1c0.1,0,0.2,0.1,0.3,0.1l0.8-0.1
	c-0.1,0.2,0.6,0.2,0.3,0.3c0.6-0.2,1.2-0.1,1.8-0.3c0.5,0,1.1,0,1.6,0c0.5,0,1.1,0,1.6,0c1.1,0,2.2-0.1,3.3-0.1l0-0.1
	c0.8-0.1,1.5-0.4,2.4-0.1c0.7-0.2,1.7-0.2,2-0.6c0.4,0,0.7,0,1.1,0c0.2,0,0.5-0.1,0.8,0c-0.1-0.3,0.8-0.1,0.5-0.4
	c-0.4-0.4-0.5-0.2-0.9-0.5l0,0.1c-0.5-0.2-1-0.4-1.5-0.5c-0.5-0.2-1-0.3-1.5-0.4c-1-0.3-2-0.5-3-0.7c-0.7,0-1.4,0-2.1-0.1
	c-0.4,0-0.7-0.1-1.1-0.1c-0.4,0-0.7,0-1.1,0c-0.4,0-0.8,0-1.2,0c-0.4,0-0.8,0-1.2,0.1c-0.8,0.1-1.5,0.1-2.2,0.2
	c-0.3,0.1-0.5-0.1-0.8-0.2c-0.3,0-0.6,0-1,0.1c-0.3,0-0.7,0-1,0.1c-0.7,0-1.4,0.1-2.1,0.2c0,0,0,0,0.1,0c-0.4,0-0.7,0-1-0.1
	c-0.3,0-0.6-0.1-0.9-0.1c0,0.1-0.1,0.1-0.2,0.1c-0.1-0.2-1.1,0-2.1,0.2c-1,0.2-2.1,0.3-2.2,0.2c-0.1,0-0.1,0-0.2,0
	c-1.4-0.2-2.9-0.9-4.2-0.9c-0.3,0.1-0.6,0.2-0.8,0.4c-0.1-0.1-0.2,0-0.3,0c-0.1,0-0.1,0.1-0.3,0.1c-0.7-0.6-1.1-0.4-0.7-0.2
	c-0.4,0-0.7,0-1.1,0c-0.2,0-0.4,0-0.6,0c-0.2,0-0.5,0.1-0.7,0.1c-0.2,0-0.3,0-0.4-0.2c-0.5,0.1-0.4-0.1-0.9-0.1
	c-0.1-0.1-0.5,0-0.9,0.1c-0.3,0.1-0.6,0.2-0.6,0.2l0.1,0c-0.6,0-1-0.5-1.7-0.5c-0.9-0.1-1.8-0.1-2.6,0c-0.4,0-0.9,0.1-1.3,0.1
	c-0.4,0-0.8,0.1-1.3,0.1c0,0.1,0.1,0.1,0.2,0.1c0.1,0,0.2,0,0.2,0.1c-0.5,0-1,0-1.4,0c-0.5,0-1,0-1.5,0c-0.2,0-0.4-0.1-0.5-0.2
	c-0.3,0-0.2,0.1-0.4,0.1L6,90.8c-0.2,0.1-0.3,0.1-0.4,0c-0.1,0-0.2-0.1-0.4,0c0,0.1-0.1,0.1-0.2,0.1c0-0.1-0.1-0.1-0.2-0.1
	c-0.1,0-0.2,0-0.2-0.1v0c-0.1,0-0.1,0-0.2,0c0,0-0.3,0.2-0.6,0.5l0.2-0.8c0.2-0.5,0.3-1.1,0.5-1.6c0.2-0.5,0.3-1.1,0.5-1.6
	c0-0.4,0.1-0.8,0.2-1.1c0.1-0.4,0.2-0.8,0.3-1.1c0.2-0.8,0.4-1.5,0.6-2.3c0.2-0.8,0.4-1.7,0.6-2.5c0.2-0.8,0.3-1.7,0.5-2.4
	c0-0.4,0.3-0.5,0.5-0.8c0.3-1.3,0.9-3,1.2-4.5c0,0,0,0.1,0,0.1c0.2-0.8,0.6-1.3,0.8-2.1c-0.1,0,0-0.1-0.1-0.2c0.3-0.1,0.6-4.8,0.8-5
	c0-0.1,0-0.2,0-0.3c0.5-1.6,1.5-3.2,1.7-4.6c-0.1-0.3-0.1-0.7-0.2-1c0.2-0.2-0.1-0.3,0-0.6c0.8-0.7,0.6-1.2,0.3-0.8
	c0.1-0.6,0.2-1.3,0.3-1.9c0-0.3,0-0.5,0-0.8c0-0.2,0.1-0.3,0.3-0.4c0-0.6,0.1-0.4,0.3-1c0.2-0.1-0.1-1.6,0-1.7l0,0.1
	c0.1-0.7,0.6-1.1,0.7-1.8c0.2-0.9,0.4-1.9,0.5-2.9c0.1-1,0.2-1.9,0.4-2.8c-0.1,0-0.1,0.1-0.1,0.2c0,0.1,0,0.2-0.2,0.2
	c0.2-1,0.6-2,0.7-3.1c0.1-0.2,0.2-0.4,0.3-0.5c0.1-0.3-0.1-0.2,0-0.5l0.2,0c-0.1-0.4,0.3-0.5,0.2-0.9c-0.1,0-0.1-0.2-0.1-0.3
	c0.1,0,0.1-0.1,0.1-0.2c0-0.1,0-0.2,0.1-0.2l0,0c0-0.1,0-0.1,0.1-0.2c-0.1-0.1-0.5-1.5-0.6-1.7l0-0.1c0-0.2-0.1-0.3-0.2-0.2l0-0.2
	l0,0l0-0.2c0,0,0.1-0.1,0.2,0c-0.1-0.1-0.1-0.3,0-0.4c-0.2,0.4-0.4,0.8-0.7,1.2c-0.1-0.2,0.1-0.4,0.1-0.6c0.2-0.2,0.3-0.6,0.5-0.9
	c0-0.1-0.2-0.1-0.1-0.3c0.2-0.1,0-0.2,0.1-0.3c0.1,0.2,0,0.3,0,0.5c0.2,0,0.2-0.4,0.2-0.5c-0.1-0.1,0-0.4,0-0.6
	c0.1,0.1,0.1,0,0.2-0.1c0,0,0,0,0-0.1c0,0,0,0,0,0.1v0c0,0,0,0.1,0.1,0.1c0,0,0-0.1-0.1-0.1c0,0,0-0.1,0.1-0.1c0-0.1,0-0.2-0.1-0.2
	c0,0-0.1,0-0.1,0c-0.1-0.3-0.3-0.7-0.3-0.6c0,0-0.1,0-0.1,0c0,0,0,0-0.1,0c0,0-0.1,0-0.1,0l0,0.1c-0.1,0.4-0.6-0.1-0.9-0.1
	c0.1-0.1,0.2-0.2,0-0.4c0.1,0.5-0.3,0.1-0.6-0.2c0-0.1,0-0.3-0.2-0.6c-0.2-0.2-0.2-0.1-0.3,0c-0.1-0.2-0.2-0.4-0.1-0.5
	c-0.3-0.1-0.2-0.3-0.4-0.5c-0.1-0.1-0.1,0-0.1,0c0,0,0,0-0.1,0c-0.1-0.1-0.2-0.3-0.4-0.5c-0.1-0.2-0.2-0.3-0.3-0.4
	c0-0.2,0-0.5,0.3-0.5c0.3,0.4-0.4,0,0,0.4c0-0.2,0.2-0.1,0.3,0.1c0.1,0.1,0.2,0.2,0.3,0.2c0-0.2-0.2-0.5-0.4-0.7l0,0.1
	c-0.2-0.2-0.5-0.6-0.6-0.9c0.1,0,0.1-0.1,0.2,0c0,0,0-0.1-0.1-0.1c0-0.1-0.1-0.1-0.1-0.1c0,0-0.1,0-0.1,0.1
	c-0.1-0.1-0.2-0.3-0.2-0.4c0,0-0.3-0.4-0.6-0.7c-0.3-0.3-0.6-0.7-0.6-0.7c-0.1-0.1-0.1-0.2-0.1-0.3c0.1,0.2,0.3,0.5,0.5,0.7
	c0.1,0.1,0.2,0.2,0.2,0.3c0.1,0.1,0.2,0.2,0.2,0.2c0.1,0.1,0.2,0.2,0.1,0.1c0-0.1-0.1-0.2-0.3-0.4c-0.2-0.2-0.4-0.5-0.6-0.8
	c-0.1-0.1-0.2-0.3-0.3-0.4c-0.1-0.1-0.2-0.3-0.2-0.4c-0.1-0.2-0.2-0.4-0.2-0.5c-0.1-0.2-0.2-0.4-0.3-0.3c0-0.2,0-0.1,0.1-0.1
	c0.1,0,0.1,0,0.1-0.1c0,0,0,0-0.1,0l0.1-0.2c-0.3-0.4-0.3-1.1-0.6-1.6c0.1,0.1,0.4,0.2,0.5,0.5l0,0.1c0,0,0.2,0.3,0.3,0.2
	c0-0.2,0-0.3-0.1-0.4c0-0.1-0.1-0.3-0.2-0.4c0-0.1,0-0.1,0-0.2c0,0,0,0,0,0c0-0.1,0.1-0.1,0.1-0.1c0,0,0,0,0,0
	c0.1-0.1,0-0.4-0.1-0.7c-0.1-0.3-0.3-0.7-0.2-1c-0.1-0.2-0.1,0-0.1-0.2c0.1-0.6,0.1-1,0.2-1.5c-0.1-0.2-0.2-0.2-0.3,0l0.1-0.4
	c0.2,0.2,0.3,0,0.3-0.2c0.1-0.2,0.2-0.4,0.4-0.2c0.1-0.1,0.1-0.4,0.1-0.6c-0.1,0-0.2-0.1-0.2-0.4c0.2-0.4,0.1-0.3,0.3-0.6
	c0.1,0,0.1,0,0.2,0c0,0,0.1,0,0.1,0c-0.1-0.5,0.3-0.4,0.4-0.9c0-0.3,0.2-0.9,0-1c0.1-0.4,0.3-0.4,0.4-0.3l0.1-0.3
	C11.1,15.5,11,15.7,11,16l-0.1,0.4c0,0.1-0.1,0.3-0.1,0.4c-0.1,0.3-0.1,0.5-0.2,0.8l-0.1,0.8c0.4-1.2,1-2.4,1.5-3.5
	c0.1-0.3,0.2-0.6,0.3-0.8c0.1-0.3,0.2-0.6,0.2-0.8c0.1-0.3,0.1-0.6,0.1-0.9c0-0.3,0-0.6,0-0.9c0.2,0.1,0.4,0,0.7-0.2
	c0.3-0.1,0.5-0.3,0.8-0.5c0.2-0.2,0.5-0.4,0.6-0.6c0.2-0.2,0.3-0.3,0.2-0.3c0.1-0.2,0.2-0.4,0.3-0.7c0.1-0.2,0.3-0.4,0.4-0.6
	c0.9-1.3,2.2-2.4,3.8-3.2c1.5-0.8,3.3-1.2,5.1-1.3c1-0.1,2.9-0.2,4.7,0.1c0.2,0,0.5,0.1,0.7,0.1l0.3,0c0.1,0,0.2,0.1,0.3,0.1
	c0.4,0.1,0.8,0.2,1.1,0.3c0.7,0.2,1.3,0.6,1.7,0.8C33.5,5.7,33.7,5.9,34,6c-0.4-0.3-0.4-0.3-0.8-0.5c1.1,0.3,2.2,0.7,3.1,1.3
	c-0.1-0.2,0-0.3-0.3-0.7l0.4,0.4c0.3,0,0.7,0.2,1.1,0.5c0.4,0.2,0.7,0.5,1,0.7c-0.2,0,0.1,0.4,0.4,0.7l0-0.2c1,1.1,2.2,2.5,2.8,3.7
	c0.1,0.2,0.1,0.3,0.1,0.4c0,0,0,0.1,0.1,0.2c0.1,0.1,0.2,0.2,0.2,0.4c0.2,0.3,0.4,0.5,0.4,0.5c-0.2,0,0.2,0.9-0.1,0.6
	c0.3,0.4,0.5,0.8,0.7,1.2c0.1,0.2,0.2,0.4,0.3,0.7c0.1,0.2,0.2,0.4,0.3,0.6c1,3.2,1.4,6.7,0.4,10l0.1,0c-0.2,0.6-0.3,1.2-0.5,1.7
	c-0.1,0.3-0.2,0.6-0.4,0.9c-0.2,0.3-0.4,0.6-0.7,0.8c-0.1,0.2-0.3,0.5-0.5,0.8c-0.2,0.3-0.4,0.5-0.6,0.7c-0.4,0.5-0.7,0.9-0.8,1.2
	c-0.5,0.4-0.9,0.7-1.3,0.9c-0.1,0.1-0.2,0.1-0.3,0.2c-0.2-0.2-0.4-0.4-0.4-0.3c0,0,0,0.1-0.1,0.1c0,0,0,0-0.1,0c0,0-0.1,0-0.1,0.1
	l0.1,0c0.1,0.3-0.2,0.3-0.5,0.2c-0.3,0-0.6,0-0.6,0.3c0.1-0.4,0.3,0,0.4,0.3c0,0-0.1,0.1-0.1,0.2l-0.1,0.1c-0.3,0.2-0.5,0.3-0.1,0.3
	c0.2,0,0.3,0,0.4,0c0,0.1,0,0.3-0.1,0.3c0.2,0.1,0,0.3,0.1,0.4c0.1,0.1,0.1,0.1,0.1,0c0,0,0,0,0.1,0c0.1,0.2,0.1,0.5,0.2,0.7
	c-0.1,0.1-0.2,0.4-0.5,0.3c0-0.2,0-0.2,0.1-0.2c0.1,0,0.1,0,0.1-0.2c-0.1,0.1-0.2,0-0.2-0.1c0-0.1-0.1-0.2-0.2-0.2
	c-0.1,0.2,0,0.4,0.1,0.6l0,0c0.1,0.2,0.2,0.5,0.2,0.7c0,0-0.1,0-0.1,0c0,0-0.1,0-0.1,0l0.1,0.2c0,0,0.1,0,0.1,0
	c0.1,0.1,0.1,0.2,0.1,0.3c-0.1,0.1,0.8,1.1,0.7,1.1c0,0.1,0,0.1,0,0.2c-0.2-0.4-0.7-1.2-0.7-1.1c-0.1,0.2,1.1,1.7,0.9,1.9
	c0,0.1,0.1,0.3,0.2,0.2c0,0.1-0.1,0.1-0.1,0.1c-0.1,0-0.1,0-0.1,0.1c0,0,0,0,0.1,0l-0.1,0.2c0.3,0.3,0.2,0.8,0.5,1.1
	c-0.1-0.1-0.4-0.1-0.5-0.3l0-0.1c0,0-0.1-0.2-0.2-0.2c0,0.2,0.1,0.4,0.2,0.6c0,0,0,0.1,0,0.1c0,0,0,0,0,0c0,0.1-0.1,0.1-0.1,0.1
	c0,0,0,0,0,0c-0.3,0.2,0.4,0.8,0.4,1.2c0.1,0.1,0.1,0,0.1,0.1c0,0.4,0,0.7,0,1.1c0.2,0.1,0.2,0.1,0.3-0.1l0,0.3
	c-0.2-0.1-0.2,0.1-0.3,0.2c0,0.2-0.1,0.3-0.3,0.2c-0.1,0.1,0,0.3,0.1,0.5c0.1,0,0.2,0,0.3,0.2c0,0.3,0,0.2,0,0.5
	c-0.1,0.1-0.1,0-0.2,0c0,0-0.1,0-0.1,0c0.2,0.3-0.1,0.4,0,0.8c0.1,0.2,0.2,0.7,0.4,0.6c0.1,0.3-0.1,0.3-0.2,0.4l0,0.3
	c-0.2-0.8-0.4-1.7-0.6-2.5c-0.2,2-0.1,4.3,1.6,5.3c-0.7,0.4-0.6,2.2-0.4,2.2c0.2,0.3,0.4,0.7,0.6,1c1.2,2.2,1.7,4.9,2.2,7.6
	c0.1,0.4,0.2,0.9,0.3,1.5c0.1,0.6,0.3,1.3,0.4,2c0.1,0.7,0.3,1.4,0.4,2c0.1,0.6,0.2,1.2,0.2,1.5c0,0.2,0.1,0.4,0.1,0.7
	c0-0.4,0-0.4,0-0.8c0.4,0.9,0.8,1.7,1.1,2.4c0.1-0.2,0.2-0.2,0.2-0.6l0,0.4c0.4,0.3,0.6,1.2,0.8,1.6c-0.2,0-0.1,0.3-0.1,0.6l0.1-0.1
	c0.2,1.1,0.6,2.3,0.8,3.3c0,0.1,0,0.3,0,0.3l0.4,0.9c-0.1,0-0.1,0.1-0.1,0.3c0,0.2,0,0.4-0.1,0.2c0.4,0.6,0.4,1.3,0.9,1.9
	c0.7,2.4,1.6,4.9,2.8,7.2L51,87c0.5,0.8,1.1,1.4,1.4,2.4c0.6,0.6,1.2,1.5,1.7,1.6c0.2,0.4,0.4,0.6,0.6,0.8c0.2,0.2,0.4,0.4,0.7,0.8
	c0-0.1,0.2,0,0.3,0.1c0.2,0.1,0.3,0.3,0.3,0c0-0.6-0.2-0.5-0.2-1.1l-0.1,0c-0.7-2.1-1.4-4.2-2-6.3c-0.7-1.3-1-2.9-1.5-4.4
	c-0.5-1.6-1.1-3.4-1.7-4.7c-0.1-0.3,0-0.6,0-0.9c-0.4-1.3-0.7-3-1.2-4.5c0,0,0,0.1,0,0.1c-0.2-0.8-0.1-1.4-0.4-2.2
	c-0.1,0-0.1-0.1-0.1-0.1c0.1-0.1-0.3-1.2-0.8-2.3c-0.5-1.1-1-2.3-1-2.4c0-0.1-0.1-0.2-0.1-0.2c-0.2-0.8-0.2-1.7-0.3-2.6
	c-0.1-0.8-0.2-1.6-0.4-2.3c-0.2-0.3-0.4-0.6-0.7-0.8c0.1-0.3-0.2-0.3-0.3-0.6c0.4-0.9,0-1.3-0.1-0.8c-0.3-0.6-0.4-1.2-0.6-1.8
	c-0.1-0.2-0.2-0.5-0.3-0.7c-0.1-0.2-0.1-0.4,0.1-0.5c-0.2-0.5,0-0.4-0.1-1c0.2-0.2-0.7-1.4-0.7-1.6l0.1,0.1c-0.1-0.7,0.1-1.3,0-1.9
	c-0.3-1.9-1.1-3.9-1.5-5.6c-0.2,0,0.2,0.4-0.1,0.5c-0.2-1-0.3-2.1-0.5-3.2c0-0.2,0.1-0.5,0.1-0.6c0-0.3-0.2-0.2-0.2-0.4l0.2-0.1
	c-0.3-0.3,0.1-0.6-0.1-0.9c-0.1,0-0.1-0.1-0.2-0.2c0.2-0.1-0.1-0.4,0.1-0.4l0,0c0-0.1,0-0.1,0-0.2c-0.1-0.1-1.1-1.2-1.2-1.3l0-0.1
	c-0.1-0.2-0.2-0.2-0.2-0.1l-0.1-0.2l0,0l-0.1-0.2c0,0,0.1-0.1,0.2-0.1c-0.1-0.1-0.2-0.2-0.2-0.4c0,0.4,0,0.9-0.1,1.4
	c-0.1-0.1-0.1-0.4-0.2-0.6c0.1-0.2,0.1-0.7,0-1c0-0.1-0.3,0-0.2-0.2c0.1-0.1-0.1-0.2,0-0.4c0.1,0.1,0.1,0.3,0.2,0.4
	c0.2-0.1,0-0.4,0-0.6c0,0-0.1-0.1-0.1-0.3c1.7-0.6,3.3-1.5,4.7-2.8c1.5-1.3,2.6-3.1,3.3-5c0-0.2,0.1-0.3,0.1-0.5
	c0-0.2,0.1-0.3,0.1-0.5c0.1-0.3,0.2-0.7,0.2-1c0.1-0.7,0.2-1.3,0.3-2c0.1-1.4,0.1-2.7-0.1-4c-0.2-1.4-0.7-2.8-1.1-4.1
	c-0.3-0.6-0.5-1.3-0.9-1.8c-0.2-0.3-0.3-0.6-0.5-0.8c-0.2-0.3-0.3-0.5-0.5-0.8c-0.3-0.5-0.4-0.9-0.5-1.4c-0.6-0.9-1.3-1.9-2.1-2.9
	c-0.8-1-1.7-1.9-2.7-2.6c0,0,0.1,0.1,0.1,0.1c-0.3-0.2-0.5-0.4-0.7-0.6c-0.2-0.2-0.4-0.4-0.7-0.6c-0.2-0.2-0.4-0.4-0.7-0.6
	c-0.2-0.2-0.5-0.3-0.8-0.5c0,0.1-0.2,0-0.3-0.1c0-0.1-0.5-0.3-1.1-0.6c-0.3-0.2-0.8-0.3-1.2-0.4c-0.2-0.1-0.4-0.1-0.7-0.2
	c-0.2,0-0.5-0.1-0.7-0.1c-0.2,0-0.5-0.1-0.7-0.1c-0.2,0-0.5-0.1-0.7-0.1c-0.5-0.1-0.9-0.1-1.3-0.1c-0.7,0-1.3,0-1.4-0.1
	c-0.1,0-0.3,0-0.4,0C27.2,0.1,26,0,24.7,0C24.7,0,24.6,0,24.5,0"/>
</svg>
