<?xml version="1.0" encoding="utf-8"?>
<svg version="1.1" xmlns="http://www.w3.org/2000/svg" xmlns:xlink="http://www.w3.org/1999/xlink" x="0px" y="0px"
	 viewBox="0 0 105.8 89.5" enable-background="new 0 0 105.8 89.5" xml:space="preserve">
<g>
	<g>
		<path fill="inherit" d="M44.7,0H28v2.8h11.4l3.6,7.7L30,38.5h8l8.8-19.2L43.1,11L59,45.6H19.7c-1.3-4.1-5.1-7.1-9.6-7.1
			C4.5,38.5,0,43,0,48.6c0,5.5,4.5,10.1,10.1,10.1c4.5,0,8.3-3,9.6-7.1h19.7v7.1l7.5-3.8l7.5,3.8v-7.1h7.3L77.2,85H66.8v4.5h12.5
			h4.1h2.4L44.7,0.2V0z M10.1,52.7c-2.2,0-4.1-1.8-4.1-4.1c0-2.2,1.8-4.1,4.1-4.1c2.2,0,4.1,1.8,4.1,4.1
			C14.1,50.8,12.3,52.7,10.1,52.7z"/>
		<polygon fill="inherit" points="94.8,85 55.7,0.1 49.1,0.1 90.3,89.5 91.4,89.5 96.8,89.5 105.8,89.5 105.8,85 		"/>
		<polygon fill="inherit" points="20.8,58.7 8.7,85 0.4,85 0.4,89.5 6.6,89.5 14.6,89.5 24.6,89.5 24.6,85 16.7,85 28.8,58.7 		"/>
	</g>
</g>
</svg>
