<?xml version="1.0" encoding="utf-8"?>
<!-- Generator: Adobe Illustrator 18.1.0, SVG Export Plug-In . SVG Version: 6.00 Build 0)  -->
<svg version="1.1" xmlns="http://www.w3.org/2000/svg" xmlns:xlink="http://www.w3.org/1999/xlink" x="0px" y="0px"
	 viewBox="0 0 186.4 165.8" enable-background="new 0 0 186.4 165.8" xml:space="preserve">
<g>
	<defs>
		<path id="list_1_" d="M21,126.6c0,0,0-0.1,0-0.1c-0.1-0.1-0.2-0.2-0.2-0.2C20.8,126.4,20.9,126.5,21,126.6 M19.6,126
			c0-0.1,0.1,0,0.3,0.3c-0.2-0.3-0.3-0.5-0.3-0.5C19.5,125.8,19.5,125.8,19.6,126 M138.6,77c0.1-0.1,0.2-0.3,0.2-0.4
			C138.8,76.7,138.7,76.9,138.6,77 M101,69.7c0.1-0.1,0.1-0.1,0.2-0.2C101.1,69.5,101.1,69.6,101,69.7 M20.6,126.1l-0.1-0.6
			c0.2,0.3,0.4,0.9,0.6,1.5c-0.1-0.1-0.2-0.3-0.2-0.4c0,0.3,0.1,0.7,0.2,1.2c0.2,0.6,0.4,1.3,0.6,1.7c0.2,0,0.1-0.4,0.2-0.4
			c0.1,0.2,0.2,0.4,0.3,0.6c-0.1,0.1-0.2,0.2-0.3,0.4c-0.3-0.5-0.6-1-0.9-1.5c0-0.3-0.2-0.8-0.2-1.2c-0.1-0.6-0.2-1.2-0.1-1.1
			C20.7,126.2,20.7,126.1,20.6,126.1 M183.1,1.6c-1,0.5-1.9,1-2.8,1.5c-1.8,0.9-3.4,1.7-4.7,2.4c-0.7,0.3-1.3,0.6-1.9,0.9
			c-0.6,0.3-1,0.4-1.5,0.6c-0.8,0.3-1.4,0.6-1.6,0.6c-0.8,0.4-1.6,0.8-2.5,1.1l-0.7,0.2l-0.5,0.2l-1,0.3c-0.7,0.2-1.4,0.4-2.1,0.7
			c-1.4,0.4-2.8,0.8-4.2,1.2c-2.8,0.8-5.6,1.4-8.4,2.1c-5.5,1.3-10.9,2.4-15.7,3.8c-2,0.9-4.3,1.8-6,2.6c-1.8,0.2-2,0.8-4.1,1.3
			c-5.6,0-8.5,1.4-5.7,1.1c-4.3,1.3-8.7,2.3-12.5,3.4c-1.8,0.6-3.5,1.2-5.3,1.8c-1.5,0.5-2.4,0.6-3.3,0.5c-3.9,1.3-2.8,0.6-6.9,1.7
			c-0.6-0.1-3.1,0.9-5.6,1.9c-2.5,1-5,2.2-5.6,2.3l0.6-0.3c-4.7,1.5-8.1,1.8-12.7,3.5c-6.4,2.4-12.9,5.4-19.1,9
			c-6.2,3.6-11.9,7.9-16.7,12.5c0.1,0.2,0.6-0.3,1.2-0.8c0.6-0.5,1.2-1,1.4-0.8c-2.9,2.6-5.7,5.3-8.3,8.3c-2.5,3.1-4.8,6.4-6.5,10.1
			c-0.8,1.3-1.6,2.8-2,3.4c-0.6,1.2-0.6,1.6-0.6,1.9c0,0.3,0,0.5-0.3,1.4L17.3,82c-0.1,0.7-0.3,1.3-0.4,1.8c-0.2,0.5-0.3,1-0.5,1.5
			c-0.4,0.9-0.7,1.9-0.9,3.2c0.2,0.2,0,1.1-0.1,2c-0.2,0-0.3,0.7-0.4,1.3c-0.1,0.7-0.1,1.4-0.3,1.3l0,0c-0.1,0.6-0.1,1-0.2,1.6
			c0,0.3,0.1,1.1,0.2,2.2c0.1,1.1,0.3,2.5,0.5,3.8c0.2,1.4,0.5,2.7,0.7,3.7c0.2,1.1,0.4,1.8,0.5,2.1l0,0.5c0.2,1.4,0.6,2,0.6,1.1
			c0,0,0,0.4,0.1,0.9c0,0.4,0.1,0.9,0.1,0.9l-0.1-0.2l0.2,1.7c0,0.3-0.2,0.7-0.4,0.3c0.3,0.9,0.6,2,0.7,3c-0.1-1.4-0.2-2.9-0.2-4.5
			c0-1.6,0.1-3.1,0.2-4.6c0.3,1.1,0.2,3.3,0.5,4.5c0,0.8,0,1.9,0.1,3.2c0.1,1.3,0.3,2.6,0.4,3.9c0.1,0.5,0.7,0.8,0.8,2
			c-0.2,0.7,0.3,1.3,0.3,2.3c-0.5-1.1-0.7-2.2-0.9-3.3c-0.4,0.3,0.4,2.8,0.5,3.7c0.2,0.4,0.7,2.6,1.2,3.9c-0.4-0.3-0.2,0.3-0.1,1
			c-0.1-0.3-0.3-0.5-0.4-0.7c0.1,0.2,0.2,0.4,0.4,0.7c0,0,0,0,0,0c0,0,0.1,0.1,0.1,0.2c0,0-0.1-0.1-0.1-0.1c0.1,0.4,0.2,0.7,0.2,1
			c0.3,0.9,0.6,1.4,0.6,1c0.1,0,0.1-0.1,0.1-0.4c0.1,0.2,0.3,0.5,0.4,0.7c0.1,0.3,0.3,0.5,0.4,0.8c-1.2,1.4-2.4,2.8-3.6,4.1
			c-2.1,2.5-4.2,4.9-6.2,7.2c0.2,0.2,0.4-0.1,0.6-0.4c0.2-0.3,0.4-0.5,0.7-0.3c-2.3,2.6-5,4.9-7.3,7.6c-0.5,0.4-1.2,0.9-1.5,1
			c-0.8,0.8-0.2,0.7-0.8,1.3l-0.4-0.2c-0.4,1.2-1.5,1.1-2,2.1c0.1,0.2-0.1,0.5-0.4,0.8c-0.2-0.1-0.4,0.1-0.5,0.3
			c-0.2,0.2-0.3,0.5-0.5,0.4v10.8c0.1,0.1,0.1,0.2,0.1,0.3c0,0-0.1,0.1-0.1,0.1v0.5c0.1-0.1,0.1-0.2,0.2-0.3L0,165.6
			c0.3-0.5,0.9-1.5,1.5-1.8c0.1,0.3,0.4,0.1,0.2,0.5l0.5-0.6c0-0.1,0-0.3-0.2-0.1c0.1-0.4,0.4-0.7,0.7-0.8c0.1,0,0.6-0.9,1-1.9
			c0.4-1,0.9-2,0.9-1.9c0.2-0.2,0.3-0.3,0.5-0.4c-0.7,1.2-2.3,4.1-2,3.6c0.5-0.2,3.1-5.8,3.7-5.8c0.2-0.3,0.5-0.8,0.3-0.8
			c0.3-0.3,0.3-0.1,0.4,0c0,0.1,0.1,0.3,0.3,0.1c0,0-0.1,0,0-0.2l0.5-0.2c0.4-1.1,1.8-2.1,2.1-3.3c0,0.4,0.1,1-0.2,1.7l-0.2,0
			c0,0.1-0.3,0.7-0.1,0.8c0.6-0.5,0.9-1,1.2-1.7c0.1-0.1,0.3-0.2,0.4-0.2c0,0-0.1,0-0.1,0c0.3-0.1,0.3-0.1,0.3,0.1c0,0,0,0,0,0.1
			c0.8,0.1,1.4-2.4,2.5-3.2c0.2-0.4-0.1-0.1,0.1-0.6c1.1-0.9,1.8-1.4,2.8-2.4c0.1-0.5,0-0.6-0.6-0.4l0.7-0.8c0,0.6,0.4,0.4,0.9,0.1
			c0.5-0.3,0.9-0.5,0.9,0.2c0.3-0.1,0.8-0.6,1-1.1c-0.1-0.2-0.3-0.4,0.2-1c0.9-0.6,0.6-0.5,1.4-1c0.3,0,0.2,0.3,0.4,0.4
			c0.6-1.2,1.2-0.5,1.9-1.5c0.5-0.6,1.4-1.8,1.1-2.1c0.7-0.8,0.9-0.6,1.2-0.2l0.6-0.6c-1.8,2.1-3.8,4.2-5.8,6.2
			c5.2-3.7,10.9-8.3,11.8-13.9c1.6,0.8,6.2-3.1,6-3.5c0.6-1.1,1.3-2.2,2-3.3c4.6-6.8,11.2-12.6,18.2-18.3c1-0.8,2.3-2,3.9-3.3
			c1.6-1.3,3.3-2.9,5.2-4.3c1.8-1.5,3.6-2.9,5.3-4.2c0.8-0.6,1.6-1.2,2.3-1.8c0.7-0.5,1.3-1,1.9-1.3c0.6-0.4,1.2-0.9,1.8-1.3
			c-1.1,0.7-1.1,0.7-2.1,1.4c2.1-2.4,4-4.5,5.9-6.5c-0.5,0.1-0.7,0-1.8,0.5l1.2-0.8c0.3-0.7,1-1.5,1.7-2.3c0.8-0.8,1.6-1.5,2-2
			c0,0.5,0.9-0.1,1.7-0.7l-0.5,0c1.5-1.1,3-2.3,4.5-3.6c0.7-0.6,1.5-1.2,2.2-1.8c0.7-0.6,1.4-1.1,2.1-1.6c0.4-0.3,0.7-0.4,1-0.4
			l2.3-2.1c0,0.2,0.5,0,0.9-0.2c0.5-0.2,0.9-0.5,0.6-0.1c1.5-1.8,3.5-2.9,5-4.6c1.6-1.2,3.3-2.4,4.9-3.6c1.7-1.2,3.3-2.5,5-3.7
			c3.4-2.5,6.7-5.1,10-7.7l-0.3,0c2.3-1.8,3.9-4,7.1-5.6c1.8-1.9,4.7-4,5.1-5.4c2.5-1.6,3.2-2.6,5.6-4.3c-0.9-0.1,2.1-1.9,0.7-1.6
			c-2,0.3-1.8,0.9-3.5,1.2l0.1,0.1c-1.7,0.8-3.5,1.6-5.2,2.4c-1.7,0.8-3.5,1.7-5.1,2.6c-3.4,1.8-6.7,3.7-10.1,5.7
			c-2,1.6-4.3,3.1-6.5,4.6c-1.1,0.7-2.3,1.5-3.4,2.2c-1.1,0.8-2.2,1.6-3.3,2.3c-2.3,1.7-4.7,3.6-7,5.4c-2.2,1.8-4.4,3.7-6.2,5.3
			c-0.9,0.8-1.8,1-2.7,1.4c-1.8,1.4-3.8,3.1-5.8,4.7c-2.1,1.7-4.2,3.4-6.1,5.1c0.1-0.1,0.2-0.1,0.2-0.1c-2,1.8-3.9,2.7-5.9,4.5
			c0.1,0.1-0.2,0.4-0.3,0.6c-0.2-0.1-1,0.6-2.1,1.7c-0.5,0.5-1.2,1.1-1.8,1.8c-0.6,0.7-1.3,1.4-2,2.1c-2.7,2.9-5.4,5.9-5.9,6.1
			c-0.2,0.2-0.4,0.4-0.6,0.6c-2.2,1.8-4.5,3.4-6.8,5c-2.3,1.6-4.4,3.2-6.1,4.9c-0.5,1-1.2,2-1.5,2.9c-0.8,0.4-0.5,0.9-1.3,1.6
			c-2.8,0.8-3.5,2.3-2.2,1.7c-1.4,1.6-3,3.1-4.3,4.5c-0.5,0.7-1.1,1.4-1.6,2.1c-0.4,0.6-0.9,0.8-1.4,0.8c-1.2,1.5-1.1,0.9-2.6,2.2
			c-0.7,0-2.9,4.2-3.4,4.6l0.2-0.3c-1.6,1.7-3.4,2.2-5,3.9c-0.2,0.2-0.4,0.4-0.6,0.6c-0.1-0.2-0.1-0.3-0.2-0.5
			c0.1-0.2,0.1-1.2-0.2-2.7c-0.3-0.9-0.4-0.9-0.5-0.8c0,0-0.1,0-0.1,0c-0.1-0.7-0.4-2.1,0-2c-0.6-0.9-0.2-1.7-0.6-2.8
			c-0.2-0.5-0.2-0.5-0.3-0.4c0,0.1,0,0.1-0.2-0.2c-0.3-1.6-0.7-3.9-0.9-5.1c0.2-0.5,0.4-2.1,1-1.1c0.2,1.2,0,1-0.2,0.8
			c-0.2-0.2-0.4-0.4-0.1,0.9c0.4-1.2,0.6,2.2,1.2,2.5c0.1-0.9-0.3-2.4-0.5-3.8l0,0.3c-0.3-1.2-0.8-3.6-0.6-4.9
			c0.1,0.1,0.2,0.1,0.2,0.1c0.1,0,0.2-0.1,0.3,0.5l-0.1-1.6c-0.1-0.2-0.2-0.4-0.2,0.1c-0.3-0.8-0.3-1.5-0.2-2.2c0.1,0,0-0.6-0.1-1.4
			c-0.1-0.8-0.3-1.9-0.4-3c-0.3-2.1-0.4-4.3-0.3-4.1c0-0.6,0.1-1,0.2-1.3c0,1.1,0,2.6,0.1,4.1c0.2,2.7,0.6,5.1,0.5,4.4
			c0.1-0.5-0.4-3.9-0.4-7.2c-0.1-1.7,0-3.4,0.1-4.7c0.1-1.3,0.3-2.2,0.4-2.4c0.1-0.4,0.1-0.9,0.2-1.3c0-0.4,0-0.6-0.1-0.5
			c0.2-0.8,0.3-0.6,0.4-0.4c0.1,0.2,0.2,0.4,0.4-0.1c0,0-0.1,0.1,0-0.3l0.5-0.9c0-0.6,0.2-1.2,0.4-1.9c0.2-0.7,0.4-1.3,0.6-2
			c0.5-1.3,1-2.7,1.3-3.9c0,0.4,0,0.8-0.1,1.3c0,0.5-0.1,1.1-0.2,1.9l-0.2,0.2c0,0.1-0.1,0.5-0.2,0.8c0,0.3-0.1,0.7,0.1,0.7
			c0.3-0.7,0.6-1.3,0.8-1.9c0.2-0.6,0.4-1.3,0.6-2.1c0.2-0.2,0.4-0.5,0.5-0.7c0,0-0.1,0-0.1,0c0.3-0.4,0.3-0.3,0.3-0.1
			c0,0,0,0.1,0,0.1c0.2-0.1,0.5-0.5,0.7-1.1c0.3-0.5,0.6-1.2,0.9-2c0.3-0.8,0.7-1.5,1.1-2.3c0.2-0.4,0.4-0.7,0.6-1
			c0.2-0.3,0.5-0.6,0.7-0.8c0.4-0.7-0.1-0.1,0.4-1c0.4-0.5,0.9-1,1.3-1.4c0.4-0.4,0.8-0.8,1.2-1.3c0.8-0.8,1.7-1.6,2.7-2.6
			c0.4-0.8,0.4-1-0.6-0.4l1.6-1.5c-0.4,1,0.4,0.4,1.3-0.1c0.8-0.5,1.7-1,1.1,0c0.3-0.1,0.7-0.4,1.1-0.8c0.4-0.4,0.9-0.7,1.3-1.2
			c0-0.2-0.1-0.6,1.1-1.5c1.8-1.1,1.4-0.8,2.9-1.7c0.5,0,0,0.4,0.2,0.5c2-1.8,2.2-0.9,4.3-2.3c0.6-0.5,1.6-1.1,2.4-1.6
			c0.8-0.6,1.4-1.1,1.4-1.3c1.9-1,2-0.7,2-0.3c0,0,0.4-0.2,0.8-0.4c0.4-0.2,0.8-0.4,0.8-0.4c-4.9,2.6-10,5.6-14.5,9
			c2.7-1.6,5.5-3.2,8.4-4.7c2.9-1.5,5.9-2.9,8.8-4.3c5.8-2.8,11.4-5.5,15.5-8.8c0.8,0.6,4.2,0.1,7.4-0.6c3.2-0.7,6.3-1.5,6.3-1.8
			c2.4-1.1,4.8-2.1,7.3-3c7.9-3,16.5-5.4,25.4-7.6c8.9-2.2,18.1-4.3,27.6-6.7c3.3-0.9,8.5-2.3,14.3-4.2c1.4-0.5,2.9-1,4.4-1.5
			l1.1-0.4c0.3-0.1,0.2-0.1,0.2-0.1l0.1,0l0.3-0.1c0.4-0.1,0.7-0.2,0.9-0.2c0,0,0,0,0,0c0,0,0,0,0,0l-0.1,0.2c0,0.1-0.1,0.2-0.1,0.3
			c-0.1,0.2-0.2,0.3-0.3,0.4c-0.1,0.1-0.2,0.2-0.2,0.2c0,0-0.1,0-0.1,0.1c-0.2,0.5-0.4,0.9-0.6,1.4c-0.6,1.4-1.3,2.7-2,4.1
			c1.2-2.3,1.2-2.3,2.3-4.5c-1.9,6.1-4.2,11.5-6.6,16.7c0.7-0.8,1-0.8,2.4-2.8c0,0-0.4,0.6-0.7,1.3c-0.4,0.6-0.8,1.3-0.8,1.3
			c-0.6,2.7-3.7,8.1-4.9,10.7c0-0.7-1.2,1.2-2.3,2.9l0.6-0.6c-4.1,6.5-8.8,14.1-12.8,19.7c-0.6,0.8-1.1,1.3-1.4,1.6
			c0,0-0.9,1.4-1.8,2.8c-0.9,1.4-1.8,2.8-1.8,2.8c0-0.3-0.7,0.4-1.3,1.1c-0.8,0.8-1.5,1.7-0.9,0.7c-2.4,4.1-5.7,7.8-8,11.7
			c-5.2,6.6-10.8,13.3-16.7,19.6c-0.7,0.8-1.5,1.5-2.2,2.3l-1.1,1.1c-0.4,0.4-0.7,0.8-1.2,1.1l-2.4,2.1l-0.6,0.5l-0.6,0.5l-1.3,0.9
			c-1.7,1.3-3.5,2.4-5.3,3.6c-0.9,0.5-1.9,1-2.8,1.5l-1.4,0.8l-1.4,0.7l0.5,0c-2.7,1.3-5.3,2.5-8.1,3.6c-2.8,1-5.9,1.9-9.6,2.2
			c-5.1,1.5-12.7,2-14.9,2.9c-6.2,0-8.7,0.3-14.8-0.2c0.8,0.4-0.7,0.3-2.1,0.3c-1.3,0-2.4-0.1-1,0.3c4,1.2,4.2,0.7,7.7,1.6l-0.1-0.2
			c8.1,1.2,16.3,1.6,24.7,0.8l3.1-0.3l3.1-0.5l1.6-0.3c0.5-0.1,1-0.2,1.6-0.3l3.1-0.7c4.1-1.2,8.2-2.5,12.1-4.4
			c5.1-2.7,10.2-6.1,14.8-10c1.1-1,2.2-2.1,3.4-3.1c1.1-1,2.1-2.1,3.1-3.1c2-2.1,3.9-4.2,5.8-6.4c7.9-9.3,15.7-19.9,21.4-28.6
			c1.3-2.1,2.7-3.3,4.1-4.9c5.3-8,12.1-18.1,17.1-27.7c-0.1,0.2-0.2,0.3-0.3,0.5c2.7-5.1,5.2-8.6,7.6-13.8c-0.1,0,0.2-0.8,0.3-1.3
			c0.2-0.1,0.6-1,1.2-2.4c0.3-0.7,0.6-1.6,1-2.5c0.2-0.5,0.4-1,0.6-1.5c0.2-0.6,0.4-1.2,0.6-1.8c0.3-0.9,0.7-1.8,1-2.8
			c0.3-0.9,0.6-1.9,0.9-2.9c0.7-2,1-3.8,1.5-5.7c0.4-1.9,0.8-3.7,1.2-5.5c0.2-0.9,0.4-1.8,0.5-2.7l0.1-0.7c0-0.2,0.1-0.5,0-0.5
			c-0.1-0.2-0.2-0.4-0.2-0.6C185.1,0.5,184.1,1.1,183.1,1.6"/>
	</defs>
	<use xlink:href="#list_1_"  overflow="visible" fill="#FFFFFF"/>
	<clipPath id="list_2_">
		<use xlink:href="#list_1_"  overflow="visible"/>
	</clipPath>
</g>
</svg>
