<?xml version="1.0" encoding="UTF-8"?><!DOCTYPE svg PUBLIC "-//W3C//DTD SVG 1.1//EN" "http://www.w3.org/Graphics/SVG/1.1/DTD/svg11.dtd"><svg xmlns="http://www.w3.org/2000/svg" xmlns:xlink="http://www.w3.org/1999/xlink"><defs><path id="a" d="M21 126.6v-.1l-.2-.2c0 .1.1.2.2.3m-1.4-.6c0-.1.1 0 .3.3-.2-.3-.3-.5-.3-.5-.1 0-.1 0 0 .2m119-49c.1-.1.2-.3.2-.4 0 .1-.1.3-.2.4M101 69.7l.2-.2c-.1 0-.1.1-.2.2m-80.4 56.4l-.1-.6c.2.3.4.9.6 1.5-.1-.1-.2-.3-.2-.4 0 .3.1.7.2 1.2.2.6.4 1.3.6 1.7.2 0 .1-.4.2-.4l.3.6c-.1.1-.2.2-.3.4l-.9-1.5c0-.3-.2-.8-.2-1.2-.1-.6-.2-1.2-.1-1.1 0-.1 0-.2-.1-.2M183.1 1.6c-1 .5-1.9 1-2.8 1.5-1.8.9-3.4 1.7-4.7 2.4-.7.3-1.3.6-1.9.9-.6.3-1 .4-1.5.6-.8.3-1.4.6-1.6.6-.8.4-1.6.8-2.5 1.1l-.7.2-.5.2-1 .3c-.7.2-1.4.4-2.1.7l-4.2 1.2c-2.8.8-5.6 1.4-8.4 2.1-5.5 1.3-10.9 2.4-15.7 3.8-2 .9-4.3 1.8-6 2.6-1.8.2-2 .8-4.1 1.3-5.6 0-8.5 1.4-5.7 1.1-4.3 1.3-8.7 2.3-12.5 3.4-1.8.6-3.5 1.2-5.3 1.8-1.5.5-2.4.6-3.3.5-3.9 1.3-2.8.6-6.9 1.7-.6-.1-3.1.9-5.6 1.9-2.5 1-5 2.2-5.6 2.3l.6-.3C76.4 35 73 35.3 68.4 37c-6.4 2.4-12.9 5.4-19.1 9-6.2 3.6-11.9 7.9-16.7 12.5.1.2.6-.3 1.2-.8s1.2-1 1.4-.8c-2.9 2.6-5.7 5.3-8.3 8.3-2.5 3.1-4.8 6.4-6.5 10.1-.8 1.3-1.6 2.8-2 3.4-.6 1.2-.6 1.6-.6 1.9 0 .3 0 .5-.3 1.4h-.2c-.1.7-.3 1.3-.4 1.8-.2.5-.3 1-.5 1.5-.4.9-.7 1.9-.9 3.2.2.2 0 1.1-.1 2-.2 0-.3.7-.4 1.3-.1.7-.1 1.4-.3 1.3-.1.6-.1 1-.2 1.6 0 .3.1 1.1.2 2.2s.3 2.5.5 3.8c.2 1.4.5 2.7.7 3.7.2 1.1.4 1.8.5 2.1v.5c.2 1.4.6 2 .6 1.1 0 0 0 .4.1.9 0 .4.1.9.1.9l-.1-.2.2 1.7c0 .3-.2.7-.4.3.3.9.6 2 .7 3-.1-1.4-.2-2.9-.2-4.5s.1-3.1.2-4.6c.3 1.1.2 3.3.5 4.5 0 .8 0 1.9.1 3.2.1 1.3.3 2.6.4 3.9.1.5.7.8.8 2-.2.7.3 1.3.3 2.3-.5-1.1-.7-2.2-.9-3.3-.4.3.4 2.8.5 3.7.2.4.7 2.6 1.2 3.9-.4-.3-.2.3-.1 1-.1-.3-.3-.5-.4-.7.1.2.2.4.4.7 0 0 .1.1.1.2l-.1-.1c.1.4.2.7.2 1 .3.9.6 1.4.6 1 .1 0 .1-.1.1-.4.1.2.3.5.4.7.1.3.3.5.4.8-1.2 1.4-2.4 2.8-3.6 4.1-2.1 2.5-4.2 4.9-6.2 7.2.2.2.4-.1.6-.4.2-.3.4-.5.7-.3-2.3 2.6-5 4.9-7.3 7.6-.5.4-1.2.9-1.5 1-.8.8-.2.7-.8 1.3l-.4-.2c-.4 1.2-1.5 1.1-2 2.1.1.2-.1.5-.4.8-.2-.1-.4.1-.5.3-.2.2-.3.5-.5.4v10.8c.1.1.1.2.1.3l-.1.1v.5c.1-.1.1-.2.2-.3l-.4.3c.3-.5.9-1.5 1.5-1.8.1.3.4.1.2.5l.5-.6c0-.1 0-.3-.2-.1.1-.4.4-.7.7-.8.1 0 .6-.9 1-1.9.4-1 .9-2 .9-1.9.2-.2.3-.3.5-.4-.7 1.2-2.3 4.1-2 3.6.5-.2 3.1-5.8 3.7-5.8.2-.3.5-.8.3-.8.3-.3.3-.1.4 0 0 .1.1.3.3.1 0 0-.1 0 0-.2l.5-.2c.4-1.1 1.8-2.1 2.1-3.3 0 .4.1 1-.2 1.7H10c0 .1-.3.7-.1.8.6-.5.9-1 1.2-1.7.1-.1.3-.2.4-.2h-.1c.3-.1.3-.1.3.1v.1c.8.1 1.4-2.4 2.5-3.2.2-.4-.1-.1.1-.6 1.1-.9 1.8-1.4 2.8-2.4.1-.5 0-.6-.6-.4l.7-.8c0 .6.4.4.9.1.5-.3.9-.5.9.2.3-.1.8-.6 1-1.1-.1-.2-.3-.4.2-1 .9-.6.6-.5 1.4-1 .3 0 .2.3.4.4.6-1.2 1.2-.5 1.9-1.5.5-.6 1.4-1.8 1.1-2.1.7-.8.9-.6 1.2-.2l.6-.6c-1.8 2.1-3.8 4.2-5.8 6.2 5.2-3.7 10.9-8.3 11.8-13.9 1.6.8 6.2-3.1 6-3.5.6-1.1 1.3-2.2 2-3.3 4.6-6.8 11.2-12.6 18.2-18.3 1-.8 2.3-2 3.9-3.3 1.6-1.3 3.3-2.9 5.2-4.3 1.8-1.5 3.6-2.9 5.3-4.2.8-.6 1.6-1.2 2.3-1.8.7-.5 1.3-1 1.9-1.3.6-.4 1.2-.9 1.8-1.3-1.1.7-1.1.7-2.1 1.4 2.1-2.4 4-4.5 5.9-6.5-.5.1-.7 0-1.8.5l1.2-.8c.3-.7 1-1.5 1.7-2.3.8-.8 1.6-1.5 2-2 0 .5.9-.1 1.7-.7h-.5c1.5-1.1 3-2.3 4.5-3.6.7-.6 1.5-1.2 2.2-1.8.7-.6 1.4-1.1 2.1-1.6.4-.3.7-.4 1-.4l2.3-2.1c0 .2.5 0 .9-.2.5-.2.9-.5.6-.1 1.5-1.8 3.5-2.9 5-4.6 1.6-1.2 3.3-2.4 4.9-3.6 1.7-1.2 3.3-2.5 5-3.7 3.4-2.5 6.7-5.1 10-7.7h-.3c2.3-1.8 3.9-4 7.1-5.6 1.8-1.9 4.7-4 5.1-5.4 2.5-1.6 3.2-2.6 5.6-4.3-.9-.1 2.1-1.9.7-1.6-2 .3-1.8.9-3.5 1.2l.1.1c-1.7.8-3.5 1.6-5.2 2.4-1.7.8-3.5 1.7-5.1 2.6-3.4 1.8-6.7 3.7-10.1 5.7-2 1.6-4.3 3.1-6.5 4.6-1.1.7-2.3 1.5-3.4 2.2-1.1.8-2.2 1.6-3.3 2.3-2.3 1.7-4.7 3.6-7 5.4-2.2 1.8-4.4 3.7-6.2 5.3-.9.8-1.8 1-2.7 1.4-1.8 1.4-3.8 3.1-5.8 4.7-2.1 1.7-4.2 3.4-6.1 5.1.1-.1.2-.1.2-.1-2 1.8-3.9 2.7-5.9 4.5.1.1-.2.4-.3.6-.2-.1-1 .6-2.1 1.7-.5.5-1.2 1.1-1.8 1.8-.6.7-1.3 1.4-2 2.1-2.7 2.9-5.4 5.9-5.9 6.1l-.6.6c-2.2 1.8-4.5 3.4-6.8 5s-4.4 3.2-6.1 4.9c-.5 1-1.2 2-1.5 2.9-.8.4-.5.9-1.3 1.6-2.8.8-3.5 2.3-2.2 1.7-1.4 1.6-3 3.1-4.3 4.5-.5.7-1.1 1.4-1.6 2.1-.4.6-.9.8-1.4.8-1.2 1.5-1.1.9-2.6 2.2-.7 0-2.9 4.2-3.4 4.6l.2-.3c-1.6 1.7-3.4 2.2-5 3.9l-.6.6c-.1-.2-.1-.3-.2-.5.1-.2.1-1.2-.2-2.7-.3-.9-.4-.9-.5-.8h-.1c-.1-.7-.4-2.1 0-2-.6-.9-.2-1.7-.6-2.8-.2-.5-.2-.5-.3-.4 0 .1 0 .1-.2-.2-.3-1.6-.7-3.9-.9-5.1.2-.5.4-2.1 1-1.1.2 1.2 0 1-.2.8-.2-.2-.4-.4-.1.9.4-1.2.6 2.2 1.2 2.5.1-.9-.3-2.4-.5-3.8v.3c-.3-1.2-.8-3.6-.6-4.9.1.1.2.1.2.1.1 0 .2-.1.3.5l-.1-1.6c-.1-.2-.2-.4-.2.1-.3-.8-.3-1.5-.2-2.2.1 0 0-.6-.1-1.4-.1-.8-.3-1.9-.4-3-.3-2.1-.4-4.3-.3-4.1 0-.6.1-1 .2-1.3 0 1.1 0 2.6.1 4.1.2 2.7.6 5.1.5 4.4.1-.5-.4-3.9-.4-7.2-.1-1.7 0-3.4.1-4.7.1-1.3.3-2.2.4-2.4.1-.4.1-.9.2-1.3 0-.4 0-.6-.1-.5.2-.8.3-.6.4-.4.1.2.2.4.4-.1 0 0-.1.1 0-.3l.5-.9c0-.6.2-1.2.4-1.9s.4-1.3.6-2c.5-1.3 1-2.7 1.3-3.9 0 .4 0 .8-.1 1.3 0 .5-.1 1.1-.2 1.9l-.2.2c0 .1-.1.5-.2.8 0 .3-.1.7.1.7.3-.7.6-1.3.8-1.9.2-.6.4-1.3.6-2.1.2-.2.4-.5.5-.7h-.1c.3-.4.3-.3.3-.1v.1c.2-.1.5-.5.7-1.1.3-.5.6-1.2.9-2 .3-.8.7-1.5 1.1-2.3.2-.4.4-.7.6-1 .2-.3.5-.6.7-.8.4-.7-.1-.1.4-1 .4-.5.9-1 1.3-1.4.4-.4.8-.8 1.2-1.3.8-.8 1.7-1.6 2.7-2.6.4-.8.4-1-.6-.4l1.6-1.5c-.4 1 .4.4 1.3-.1.8-.5 1.7-1 1.1 0 .3-.1.7-.4 1.1-.8.4-.4.9-.7 1.3-1.2 0-.2-.1-.6 1.1-1.5 1.8-1.1 1.4-.8 2.9-1.7.5 0 0 .4.2.5 2-1.8 2.2-.9 4.3-2.3.6-.5 1.6-1.1 2.4-1.6.8-.6 1.4-1.1 1.4-1.3 1.9-1 2-.7 2-.3l.8-.4.8-.4c-4.9 2.6-10 5.6-14.5 9 2.7-1.6 5.5-3.2 8.4-4.7 2.9-1.5 5.9-2.9 8.8-4.3 5.8-2.8 11.4-5.5 15.5-8.8.8.6 4.2.1 7.4-.6s6.3-1.5 6.3-1.8c2.4-1.1 4.8-2.1 7.3-3 7.9-3 16.5-5.4 25.4-7.6 8.9-2.2 18.1-4.3 27.6-6.7 3.3-.9 8.5-2.3 14.3-4.2 1.4-.5 2.9-1 4.4-1.5l1.1-.4c.3-.1.2-.1.2-.1h.1l.3-.1c.4-.1.7-.2.9-.2l-.1.2c0 .1-.1.2-.1.3-.1.2-.2.3-.3.4l-.2.2s-.1 0-.1.1c-.2.5-.4.9-.6 1.4-.6 1.4-1.3 2.7-2 4.1 1.2-2.3 1.2-2.3 2.3-4.5-1.9 6.1-4.2 11.5-6.6 16.7.7-.8 1-.8 2.4-2.8 0 0-.4.6-.7 1.3-.4.6-.8 1.3-.8 1.3-.6 2.7-3.7 8.1-4.9 10.7 0-.7-1.2 1.2-2.3 2.9l.6-.6c-4.1 6.5-8.8 14.1-12.8 19.7-.6.8-1.1 1.3-1.4 1.6l-1.8 2.8-1.8 2.8c0-.3-.7.4-1.3 1.1-.8.8-1.5 1.7-.9.7-2.4 4.1-5.7 7.8-8 11.7-5.2 6.6-10.8 13.3-16.7 19.6-.7.8-1.5 1.5-2.2 2.3l-1.1 1.1c-.4.4-.7.8-1.2 1.1l-2.4 2.1-.6.5-.6.5-1.3.9c-1.7 1.3-3.5 2.4-5.3 3.6-.9.5-1.9 1-2.8 1.5l-1.4.8-1.4.7h.5c-2.7 1.3-5.3 2.5-8.1 3.6-2.8 1-5.9 1.9-9.6 2.2-5.1 1.5-12.7 2-14.9 2.9-6.2 0-8.7.3-14.8-.2.8.4-.7.3-2.1.3-1.3 0-2.4-.1-1 .3 4 1.2 4.2.7 7.7 1.6l-.1-.2c8.1 1.2 16.3 1.6 24.7.8l3.1-.3 3.1-.5 1.6-.3c.5-.1 1-.2 1.6-.3l3.1-.7c4.1-1.2 8.2-2.5 12.1-4.4 5.1-2.7 10.2-6.1 14.8-10 1.1-1 2.2-2.1 3.4-3.1 1.1-1 2.1-2.1 3.1-3.1 2-2.1 3.9-4.2 5.8-6.4 7.9-9.3 15.7-19.9 21.4-28.6 1.3-2.1 2.7-3.3 4.1-4.9 5.3-8 12.1-18.1 17.1-27.7-.1.2-.2.3-.3.5 2.7-5.1 5.2-8.6 7.6-13.8-.1 0 .2-.8.3-1.3.2-.1.6-1 1.2-2.4.3-.7.6-1.6 1-2.5l.6-1.5.6-1.8c.3-.9.7-1.8 1-2.8.3-.9.6-1.9.9-2.9.7-2 1-3.8 1.5-5.7.4-1.9.8-3.7 1.2-5.5.2-.9.4-1.8.5-2.7l.1-.7c0-.2.1-.5 0-.5-.1-.2-.2-.4-.2-.6-1.4.3-2.4.9-3.4 1.4"/></defs><symbol id="0" viewBox="0 0 57.1 68.5"><path fill="#0D0F0F" d="M48.6 9.2c-.2-.1-.5-.2-.6-.2-.2 0-.1-.1-.2-.2-.3-.1-.6-.1-.9-.2-.2-.1-.5-.3-.7-.4-.3-.1-.7-.1-.9-.2-.1 0-.2-.3-.4-.4-.4-.2-.6-.4-.9-.6-.2-.1-.3-.1-.6-.2-.4-.2-.6-.4-.9-.6-.7-.3-1.7-.3-2 .2-.1.2-.3.4-.2.7-.9.1-1 1.1-1.7 1.5-.2.4-.4.3-.7.4-.2.1-.4.2-.6.4-.1.1-.2.3-.4.4v.2c0 .1-.3 0-.4 0-.1.1-.2.3-.4.4-.3.1-.7.2-.9.4-.1.1-.1.3-.2.4-.2.1-.4.1-.6.2-.1.1-.1.3-.2.4-.2.1-.4.1-.6.2-.1.1-.1.3-.2.4-.2.1-.4.1-.6.2-.1.1-.2.3-.4.4-.2.1-.4.1-.6.2-.3.3-.6.8-.9 1.1-.3.4-.8.6-1.1.9-.1.1 0 .3 0 .4 0 0-.3.1-.4.2-.5.6-1.1 1.4-1.3 2-1 .6-1.8 1.5-2.2 2.8-.3.3-.8.3-.9.7-.3.1-.3.3-.4.6 0 .2-.1.1-.2.2-.2.3-.3.6-.6.9-.3.4-.9.7-1.1.9-.1.1.1.3 0 .4-.1.1-.3-.1-.4 0-.2.2-.1.5-.2.7h-.2c-.1.1 0 .3 0 .4-.1.1-.3.1-.4.2-.3.5-.4 1.1-.7 1.5l-.6.6c-.3.3-.5.6-.6.7 0 .2-.1.1-.2.2-.3.4-.3.8-.7.9 0 .7-.4 1.7-.6 1.8-.1 0 0 .3 0 .4-.1.1-.3.2-.4.4-.1.1-.1.2-.2.4-.2.4-.7.6-.7.9-.1.2 0 .2-.2.4-.1 0 0 .3 0 .4-.1.1-.3.2-.4.4-.2.3-.2.7-.4.9 0 .1-.3.1-.4.2-.1.1-.1.4-.2.6H15c-.1 0 0 .3 0 .4-.2.5-.6.8-.7 1.3-.3.3-.2.8-.4 1.1 0 .1-.3.2-.4.4-.1.3-.1.5-.2.7 0 .1-.3.3-.4.4-.3.6-.4 1.2-.6 1.8-.1 0-.4.2-.4.4s-.1.1-.2.2c-.2.4-.4.8-.6.9v.4c-.1.2-.2.4-.4.5-.1.1-.1.5-.2.6-.3.5-.3 1.6-.6 2-.5.7-.3 1.7-.6 2.4h-.2c-.1.1-.1.5-.2.6-.3.4-.4 1.1-.6 1.3-.1 0 0 .3 0 .4-.1.2-.3.2-.4.4 1.2-.5 1.3-.1 1.1.3h-.2v.4c-.1.5-.1.9-.2 1.5 0 .1-.2.2-.2.2-.2.7-.3 1.6-.4 2 0 .1-.2.2-.2.2-.1.4.2.9.2 1.3 0 .2-.2.3-.2.6h-.1c-.1.7.1 1.1-.2 1.3-.4.3.2 1.9.2 2 1.2.7 2.5.2 3.5-.2.2-.1.3-.2.5-.2.3 0 .4-.4.6-.6 0-.1.3 0 .4 0 .2-.1.5-.3.7-.4.2-.1.6-.1.7-.4.7-.5 1.5-.8 2.2-1.3.4-.3 1.1-.7 1.3-.9v-.2c0-.1.3.1.4 0 .2-.1.2-.4.4-.6.4 0 .5-.3 1.1-.2.5-.9 1.3-1.6 2-2l.2-.2c.1-.1.3-.1.4-.2.1 0 0-.3 0-.4.2-.2 1-.1.9-.6.5.1.4-.4.6-.6.3-.1.5-.4.9-.4.3-.7.8-1.2 1.3-1.7.2-.3.5-.5.7-.7.5-.4 1.3-1 1.5-1.5.1-.1 0-.4.2-.4.7-.4 1-1.1 1.5-1.5.2-.2.5-.2.7-.4.2-.2.2-.4.4-.6l.6-.6c.1-.2.2-.4.4-.6.1-.2.4-.4.6-.6l1.3-1.3c.4 0 .6-.6.7-.7.1-.1.1-.3.2-.4 0-.1.3.1.4 0l.2-.6c0-.2.1-.1.2-.2.3-.4.5-1 .9-1.3.2-.1.4-.2.7-.2.9-1.1 2.3-1.7 2.6-3.5.3-.2.6-.5.9-.7.5-.1.3-.8.7-.9.1-.4.3-.3.6-.6.2-.3.2-.7.4-.9.2-.3.7-.4.7-.7 0-.4.3-.6.6-.7.1 0 0-.3 0-.4h.2c.1 0 0-.3 0-.4.2-.2.6-.3.7-.6.2-.3.2-.6.4-.9.2-.3.5-.5.4-.9.4-.3.8-.6 1.1-.9.3-1 .8-1.7 1.5-2.4V24c.4-.2.7-.7.7-.9v-.4c0-.1.3-.3.4-.4.1-.1.1-.2.2-.4.1-.1.3-.2.4-.4.1-.2.1-.4.2-.6l.2-.2c.2-.3.2-.5.2-.9 0-.2.2-.1.2-.2.1-.3.1-.8.2-1.1.2-.7.7-1.3.6-2 1.1-1.3.8-4.6.6-6.6-1.2.3-2-.2-3.1-.7M31.1.2c.3-.4 2.1 0 2.8.2.6.2 1.3.6 1.8.9.4.3.7.5 1.1.6.7 0 1.2-.3 1.8-.9.5 0 .5-.1.9-.2.2 0 .4-.1.9-.2-.1 0 1.2-.5 1.5-.2.2.3.4-.1.9 0 0 0 .1.2.2.2.3.1.5.1.9.2s1 .1 1.3.2c.1 0 .3.3.4.4.2 0 .4-.1.6 0 .1 0 0 .2.2.2.3 0 .4.4.7.4.4 0 .7.5 1.1.7l.4.4c.1 0 .3-.1.4 0 .1.1-.1.4.2.4.4 0 1.3.9 1.7 1.3.2.3.6.3.9.6l.4.4c.3.2.7.3 1.1.7.6.5 1.5 1.5 2.3 2.5.1.1.2 0 .2.2 0 0 .1.5.2.6.1.1.5.2.6.4.1.2.1.9.2 1.3 0 0 .2.1.2.2.1.4.4 1.2.2 2 0 0-.2 0-.2.2 0 .3-.2.3-.2.6s.2.6.2.9c.1.6-.1 1.2-.2 1.7 0 .2.1.5 0 .7-.1.5-.5 1-.7 1.5 0 .7 0 1.4-.2 1.8.2.4-.4.4-.6.6-.1.1.1.3 0 .4-.2.1-.4 0-.6.2.1.4-.2.7-.4 1.1-.1.2-.3.2-.4.4-.2.3 0 .4-.2.9 0 .2-.2.4-.4.7-.2.3-.2.2-.4.7 0 .2-.1.1-.2.2-.2.3-.2.8-.4 1.1l-.4.4c-.2.3-.4.5-.6.9-.1.2-.1.4-.2.6-.4.7-.9 1.5-1.8 1.8-.4.7-1 1.2-1.5 1.8-.1.1-.4.2-.6.4-.1.2-.1.4-.2.6-.1.1-.2 0-.2.2s-.3.5-.7.6c.1.9-.4 1.2-.4 2-.5.2-.6.7-.9 1.1-.2.3-.5.5-.7.9-.1.1-.2.1-.2.2-.3.5-.3 1.2-.6 1.7-.1.2-.5.2-.6.6 0 .1-.4.5-.6.7-.4.5-.5 1.1-1.1 1.3.1.9-.7.9-1.1 1.3.1.4-.4.5-.6.7-.1.2-.1.7-.6.6 0 .3-.1.3-.2.6-.1.1-.1.4-.2.6 0 .1-.3-.1-.4 0-.2.2 0 .6-.2.7-.3.3-.7.5-1.1.7-.3.3-.4.8-.7 1.1-.1.2-.3.3-.6.4.3.5-.4.6-.6.9-.2.3-.2.7-.4.9-.1.2-.4.3-.6.6 0 0-.3.1-.4.2 0 .1.1.3 0 .4-.2.2-.4.3-.6.6 0 .1-.3.1-.4.2 0 .1.1.3 0 .4-.1.1-.3-.1-.4 0-.1.2-.1.4-.2.6-.4.4-1 .8-1.5 1.3l-2 2c-.3.3-.8.6-1.1.9-.1.1 0 .2-.2.2s-.2.7-.5.9c-.8.5-1.5 1-2.2 1.7-.3.3-.6.8-.9 1.1-.1.1-.3-.1-.4 0-.1.1-.1.3-.2.4-.1 0-.3-.1-.4 0-.3.4-.8.9-1.3 1.3-.1.1 0 .2-.2.2s-.6.3-.9.6c-.4.3-.8.5-1.1.7-.1 0-.1.3-.2.4-.1 0-.3-.1-.4 0-.3.2-.4.5-.9.7h-.4c-.1.2-.1.3-.4.4-.1 0-.3-.1-.4 0v.2c-.3.1-.7.1-.9.2-.1.1-.1.3-.2.4-.1 0-.3-.1-.4 0-.2.2-.9.3-1.3.4-.2 0-.3.2-.6.2-1.3.2-2.7.7-4.2.4-.5-.1-1-.2-1.3-.4-.1 0-.5-.1-.6-.2-.1-.2-.3-.3-.6-.4h-.4c-.1-.1-.5-.4-.9-.6-.1 0 0-.1-.2-.2-.4-.1-.5 0-.7-.2-.2-.1-.3-.4-.6-.6-.1-.1-.4-.4-.6-.4-.3 0-.4-.5-.7-.9-.1-.2-.5-.2-.6-.6 0-.3-.5-.5-.7-.7-.1-.1-.1-.4-.2-.6-.1-.1-.3-.1-.4-.2-.1-.1-.2-1-.4-1.3 0 0-.4-.1-.4-.2-.1-.2.1-.8 0-1.1 0-.1-.2 0-.2-.2 0-.1-.2-.2-.2-.4-.1-.4 0-.8 0-1.3C.2 58 0 57.7 0 57.4c0 0 .2-.2.2-.4 0 0-.2 0-.2-.2 0-.5-.1-1.7.2-2.2 0-.1.2 0 .2-.2 0-.1.2-.2.2-.4-.3-.4 0-.9 0-1.3 0-.6-.1-.2 0-.7.1-.6.2-1.7.4-2.4 0-.1.1-.2.2-.4.1-.3.1-.6.2-.9.2-.5.4-1.1.6-1.7 0-.2 0-.4.1-.8v-.4h.2c0-.1-.1-.3 0-.4.3-.2.2-.4.4-.9.1-.2.3-.5.4-.7.2-.5.4-1.1.6-1.7.2-.5.3-1.2.6-1.7 0-.1.2 0 .2-.2 0-.3.1-.4.2-.6 0-.1.3-.1.4-.2.1-.2-.1-.4 0-.6 0-.1.2 0 .2-.2 0-.1.1-.4.2-.6.1-.3.1-.7.2-.9 0-.1.2 0 .2-.2 0-.1.1-.3.2-.4.2-.3.5-.9.9-1.3-.1-.6.1-1 .4-1.5.2-.3.4-.6.6-1.1v-.4h.2c.1-.3 0-.8.2-1.1l.4-.4c.1-.2.3-.5.6-.7.1-.1.2-.2.4-.2.2-.5.1-1 .4-1.5 0-.1.2 0 .2-.2s.2-.8.7-.7c-.1-.4.1-.5.2-.7.1-.3.3-.6.6-.9l.4-.4c.2-.4.2-.9.4-1.3.1-.1.3-.2.4-.4.1-.1.1-.4.2-.6 0-.1.3-.1.4-.2.1-.3.1-.4.4-.7.1-.2.3-.2.4-.4.1-.2.1-.4.2-.6l.4-.4V20c.1-.3.3-.3.6-.6.1-.2.1-.3.2-.6.1-.2.3-.3.4-.6.1-.2.1-.4.2-.6l.6-.9c.2-.3.2-.2.4-.7.1-.3.3-.3.6-.6.1-.1.1-.4.2-.6.1-.2.4-.2.6-.4.1-.2.1-.4.2-.6.1-.2.3-.2.4-.4.1-.2.1-.4.2-.6l.6-.9c.1-.2.3-.3.4-.4.1-.2-.1-.6.2-.6.3-.4.7-.9.9-1.5.2-.3.5-.4.7-.6-.1-.4.3-.4.4-.6.1-.2 0-.5.2-.7 0-.1.3-.1.4-.2.1-.2 0-.6.6-.5.2-.5.4-1.1 1.1-1.1.2-.1.1-.4.2-.6-1.4 1-1.2.9-1.1.8.2-.3.3-.7.6-.9.2-.2.7-.3.9-.6.1-.1-.1-.3 0-.4.1-.1.3.1.4 0 .1-.1.1-.3.2-.4.3-.2.5-.5.7-.7.6-.5 1.4-1.2 2-2 .6.1.5-.3 1.1-.2 0-.5.4-.5.9-.5"/></symbol><symbol id="1" viewBox="0 0 56.6 73.3"><path fill="#0D0F0F" d="M55.4 6.4c0-.2-.1-.1-.2-.2-.3-.4-.4-.8-.6-1l-.8-.8c-.1-.1-.3 0-.4 0-.1-.1-.1-.4-.2-.4-.2-.1-.6.1-.6-.2-1-.8-1.8-1.8-3.5-1.9-.7-1-1.7-1.8-3.3-1.9 0 .3-.4.2-.4.4-.8.8-1.5 2-2.1 2.7-.5.6-.8 1.4-1.2 1.9-.2.2-.7.2-1 .4-.1.1-.1.5-.2.6-.1.1-.3 0-.4 0-.4.1-.7.6-1 .8-.3.2-.7.5-.8.8-.8-.1-.9.4-1 .6-.1.1-.3-.1-.4 0-.1.1-.1.5-.2.6-.1.1-.3-.1-.4 0-.1.1.1.3 0 .4-.3.4-.7.4-.8.8-2 .6-3 2.2-4.8 3.1-.5.4-1.3 1.4-1.9 1.4-.4 0-.5.5-.6.6-.1.1-.3-.1-.4 0-.3.3-.7.8-.8 1.2-.6 0-.7.4-.8.6-.1.1-.3 0-.4 0l-.4.4c-.2.2-.4.3-.6.4-.2.1-.3.3-.4.4-.6.5-1 1-1.4 1.4-.3.3-.6.3-.8.4-.1 0-.1.4-.2.4-.3.2-.6.3-.8.4h-.2c-.1.1.1.4 0 .4-.2.1-.5.1-.6.2-.2.1-.2.5-.4.6-.1.1-.3 0-.4 0-.1 0-.1.4-.2.4-.3.2-.5.1-.8.2.1.9-1 .5-.8 1.4-.9 0-1.3 1.4-1.9 1.5-.2 0-.5.3-.6.4-.4.3-.7.7-1 1-.2.2-.4.2-.6.4l-.6.6-1.2 1.2-.4.4c0 .2-.3.5-.4.6-.4.4-1.4.7-1.4 1.2 0 .2-.1.1-.2.2l-.6.6c-.3.4-.7.7-1 1-.2.2-.2.5-.4.6-.3.2-.6.2-.8.4-.2.2-.1.6-.2.8-.1.2-.4-.1-.4.2 0 .2-.3.5-.4.6-.1.1-.3-.1-.4 0-.2.1-.5.5-.6.6-.4.3-.7.7-1 1-.2.2-.3.4-.4.6-.4.4-1.2.8-1.2 1.2 0 .6-.6.4-.6 1 0 .4-1.1.4-.6 1 .1.2.2.5.4.6 0 .3.4.1.6.2l.4.4c.9.5 1.3 1 1.9 1.7.3.3.9.5.8 1 0 .3.3.1.4.2.4.3.6.8.8 1-.6 1.5 0 1.7.3 1.9.4.3.8.3 1.2.6 1.4.9 3.1-.4 3.5-.8.1-.1.3 0 .4 0v-.2c.1-.1.3 0 .4 0 .3-.1.3-.7.8-.4v-.4c.1-.3.2 0 .4-.2l.6-.6c.4-.4.9-.8 1.2-1.2.1-.1.1-.3.2-.4.1-.1.4-.3.4-.4 0-.2.3-.5.4-.6.4-.5.9-.9 1.2-1.2.2-.2.1-.6.2-.8.1-.2.5-.4.6-.6.2-.3.5-.4.6-.6.2-.3.2-.6.4-.8l.6-.6c.6-.7 1.2-1.4 1.9-1.9.1-.4.1-.9.4-1 .2-.1.3-.3.4-.4.1-.1.4-.2.4-.4l1.2-1.2c.2-.2.2-.7.4-.8.3-.2.5-.2.8 0 .6.1.4.9.4 1.2 0 .2-.2.2-.2.2-.2 1-.5 1.8-.8 2.5-.1.1-.2.3-.2.4 0 .5-.9 1.3-.6 2.1-.3.2-.4.6-.6.8-.3 0-.2.3-.2.6 0 .2-.2.1-.2.2-.5 1.2-1.1 2.7-1.7 3.7-.1.2-.4.4-.4.6-.1.3 0 .3-.2.4l-.2.6c-.2.7-.1.6-.4 1-.2.3-.1.4-.2.8-.1.5-.3 1-.4 1.4-.2.7-.4 1.2-.6 1.9-.1.3-.1.7-.2 1h-.2c-.1 0 0 .3 0 .4-.3.8-.8 1.6-.6 2.5-.4.4-.5 1.1-.8 1.4.2.8-.3 1.5-.4 2.1-.1.3-.1.7-.2 1-.1.4-.4.8-.4 1 0 0 .2 0 .2.2 0 .1-.2 0-.2.2 0 .4.2.5.2.8-1 1-.7 5-.4 6 .1.3 0 .3.2.4.1.1 0 .3 0 .4l.4.4c.3.4.7.7.8.8.1.1-.1.3 0 .4.1.1.5.1.6.2.3.3.4.7.6.8.4.2 1 .2 1.5.4.1 0 .3.4.4.4.5.2.8.3 1 .4.4.3.7.1 1.2.2.3 0 .3.2.6.2.4 0 .5-.2.8-.2 0-.5.6-1.3.2-1.5-.2-.6-.3-1.1-.4-1.7-.1-.8.2-1.4-.2-1.7-.1-.1.2-.3.2-.2 0-.6-.2-2.3-.2-2.3.2-.2.1-.2.2-.6.2-.7.1-1.7.2-2.5 0-.2.2-.2.2-.4.1-.4-.1-.6.2-.8.1 0 0-.3 0-.4.2-.5.2-.9.4-1.4 0-.1.4-.1.4-.2.1-.2-.1-.4 0-.6.1-.3.1-.5.2-.8.1-.4.4-.5.4-.8 0-.2.2-.1.2-.2.3-.6.4-1.3.4-1.7 0-.2.2-.1.2-.2.2-.5.1-1 .2-1.2 0-.1.3-.3.4-.4.3-.5.4-.7.6-1 .3-.4.4-.9.6-1.2l.4-.4c.1-.2.1-.5.2-.6.2-.6.4-.9.6-1.2.1-.2.1-.4.2-.6l.4-.4c.1-.1 0-.3 0-.4 0-.1.4-.1.4-.2.2-.5.1-.7.2-1 .1-.3.4-.2.4-.4.1-.3.2-.4.2-.6.1-.2-.1-.5 0-.6 0-.1.3-.3.4-.4.1-.2.1-.4.2-.6l.4-.4c.2-.3.3-.6.4-1 .1-.4.3-.6.4-.8.1-.1.3-.2.4-.4.1-.1-.1-.3 0-.4 0-.1.4-.1.4-.2.2-.4.2-.9.4-1.2l.4-.4c.2-.3.3-.6.4-1 .1-.4.5-.4.6-.6.3-.5.4-.8.6-1.2.1-.1.1 0 .2-.2.1-.6.2-.5.4-.8l.4-.4c.1-.3 0-.6.2-.8l.4-.4c.3-.4.4-.7.6-1 .1-.2.3-.4.4-.6.1-.2.1-.4.2-.6l.4-.4c.1-.2.1-.5.2-.6.1-.1.2 0 0-.2.1.1.4-.8.4-.8.1-.2.5-.2.6-.4.1-.2.1-.5.2-.6 0 0 .2-.1.2-.2v-.2c0-.1.4.1.4 0 .1-.1-.1-.5 0-.6 0-.1.3-.2.4-.4.2-.4.4-.8.4-1.2.4.1.3-.2.4-.4.3-.4.7-.6.8-.8.2-.3 0-.6.2-.8.1-.2.3-.2.4-.4.1-.2.1-.4.2-.6 0-.1.4.1.4 0 .1-.1-.1-.3 0-.4.1-.1.3-.1.4-.2.1-.1-.1-.3 0-.4.2-.3.6-.5.8-.8.1-.2.1-.4.2-.6.4-.5 1.2-.7 1.2-1.2 0-.2.1-.1.2-.2.2-.4.5-.8.6-1.2.8-.1 1-.9 1.2-1.2.1-.2.5-.2.6-.4.3-.3.5-.7.8-1 .3-.3.6-.7 1-.8.3-.9.9-1.6 1.2-2.1V12c.1-.1.4.1.4 0 .3-.3.6-.7.8-1 .3-.3.5-.6.6-.8.1-.2 0-.4.2-.4 1.5-2.3.3-2.7.3-3.4"/></symbol><symbol id="2" viewBox="0 0 66.9 73.5"><path fill="#0D0F0F" d="M20.8 61.4c.3.6.8.7 1.4 1 .3.1 1.1.2 1.8.4.1 0 0 .2.2.2.1 0 .3-.2.2-.2.5.1.7.3 1.2.4 1 .1 2.2.1 3.3.2.2 0 .2.2.4.2.1 0 .2-.2.2-.2.3 0 .3.2.6.2 1 .1 1.8 0 2.7.2.2.1.4.1 1 .2.3 0 .3.2.6.2 1.1.1 2.1-.1 3.1.2.1 0 .2.2.2.2.5.1 1.2-.1 1.8 0 .2 0 .4.2.8.2.7 0 1.2 0 2.1.2.5.1 1.1.4 1.6.6.3.1.7.1 1 .2.4.1.5.1.8.2 1 .3 1.9.8 2.9 1.2.2.4.5.7.8 1 .3.3.7.5 1 .8.2.2.1.5.2.8l.4.4c.2.4.6.7.4 1.2-1.1.3-2.1-.1-3.1-.4-.4-.1-1.1-.2-1.6-.4-.1 0 0-.2-.2-.2-.4 0-.5-.3-1-.4-.7-.2-1.7-.1-2.7-.2-1.3-.1-2.4-.1-3.9-.2-.2 0-.3-.2-.6-.2 0 0 0 .2-.2.2-.3 0-.4-.2-.8-.2-2.7-.3-6.5-.6-9.5-.8h-1.4c-.8-.1-1.2-.2-1.9 0-.4.1-.4 0-.6.2-.1.1-1.2-.2-1.8-.2-.1 0-.3.2-.6.2-.5.1-1.3-.2-1.9 0-.1 0-.2.2-.2.2-.5 0-.9-.2-1.4-.2-.4 0-.9.3-1.4.4-.7.2-1 0-1.8.4-.1 0 0 .2-.2.2-.3 0-.4.5-.8.8-.1.1-.4.1-.6.2-.1.1-.1.3-.2.4-.1.1-.3.4-.4.4-.1.1-.5-.1-.6 0-.2.1-.2.3-.4.4-.3.2-.5.2-.8.6 0 .1-.1.3-.2.4-.1.1-.3.4-.4.4-.2.1-.4-.1-.6 0-.4.2-.4.6-1.2.4l-.6-.2v-.2c-.3-.2-.5-.2-.8-.6-.1-.1-.2-.1-.4-.2-.1 0-.3.1-.4 0 0-.5 0-.6-.3-.7l-.2-.2c-.6-.4-1.3-.8-1.8-1.6 0-.1.1-.3 0-.4 0 0-.4.1-.4 0-.1-.2.1-.4 0-.6-.9-.2-1.3-.9-1.9-1.4-1 .1-1.7-.8-1.8-1.4-.1-.6.3-.8.6-1.2.1-.1.2-.5.4-.6.2-.1.4-.1.6-.2.2-.1.4-.2.6-.4l.4-.4c.1-.1 0-.1.2-.2.7-.2 1.2-.8 1.7-1.4.2.1.1.1.3.1.3 0 .4-.6.8-.6h.2c.2-.2.3-.4.5-.6.2-.2.6-.8 1-.8 0 0 .5-.2.6-.2l.4-.4c.1 0 .3.1.4 0 .1-.1.2-.8.6-.8.3-.4.7-.5 1.2-.8.1 0 .1-.4.2-.4.3-.1.8 0 1-.4.2-.2.4-.2.6-.4.1-.1-.1-.3 0-.4.1-.1.4.1.4-.2.2 0 .3-.3.4-.4.2-.1.4.1.6 0 .2-.1.4-.5.6-.6.1-.1.5-.1.6-.2.1-.1-.1-.3 0-.4h.2c.3-.3.6-.5 1.2-.8.1-.1.3-.1.4-.2.2-.1.4-.4.6-.6.1-.1.3.1.4 0 .2-.3.5-.6 1-1 .1-.1.4-.1.6-.2.1-.1.1-.3.2-.4.1 0 .3.1.4 0 .2-.3.3-.5.8-.8.2-.1.5-.2.8-.4.1-.1 0-.2.2-.2.3 0 .4-.5.8-.8.1-.1.4-.4.6-.4.4 0 .7-1.2 1.6-1 .2-.9 1.3-1.1 1.9-1.6.1-.1 0-.2.2-.2s.5-.4.8-.6c.2-.1.4-.2.6-.4.3-.2.5-.5 1-.8.2-.1.3-.3.4-.4.1-.1.3.1.4 0 .3-.3.7-.8 1.2-1.2.3-.3.9-.6 1.4-1 .7-.5 1.3-1 1.9-1.6.6-.5 1.3-1 1.9-1.6.1 0 .1-.4.2-.4.3-.1.5-.1.8-.4.1-.1 0-.2.2-.2.4 0 .2-.4.4-.6.1-.1.3.1.4 0 .2-.1.2-.5.4-.6.2-.2.6-.4 1-.6.1-.1.4-.1.6-.2.2-.1.2-.4.4-.6.2-.2.4-.2.6-.4l1-1c.2-.2.4-.2.6-.4.1 0 .1-.4.2-.4s.3.1.4 0c.5-.4.8-.9 1.4-1.4l.4-.2c.2-.4.1-.4.4-.6.8-.5 1.5-1.8 2.3-2.5.4-.4 1-.7 1.4-1.2.4-.4.6-1 1-1.4.5-.5 1.3-.7 1.8-1.2.1-.1-.1-.3 0-.4h.2l.2-.2c.7-.8 1.3-2.4 2.5-2.9 0-.5.5-.9.8-1.4.1-.1.1-.3.2-.4.3-.3.8-.5 1-1 0-.1-.1-.3 0-.4.2-.1.5-.4.8-.8l.6-.6c.2-.3.2-.7.4-1 .1-.1.3-.1.4-.2 0-.1-.1-.3 0-.4h.2c.2-.3 0-.8.2-1.2 0-.1.3-.3.4-.4.1-.2.1-.4.2-.8.1-.3.4-.5.6-1 0-.1-.1-.3 0-.4.3-.2.1-.7.2-1.6 0-.4.2-.8.2-1.2 0-.2-.2-.1-.2-.2 0-.2.2-.2.2-.2-.2-.8-.7-1.5-.8-2.3-2.9.1-5.6.9-7.8 1.1-.7 0-1.1 0-1.8.2 0 0-.1.2-.2.2-.3.1-.6 0-1 .2-.1 0-.3.4-.4.4-.2.1-.7-.1-.8 0-.4.4-1 .3-1.9.6-.1 0 0 .2-.2.2s-.4-.1-.6 0c-.1 0-.3.4-.4.4H45c-.4.1-.7.5-1.2.8-.1 0-.2 0-.4.1-.3.2-.2.3-.8.4-.2 0-.1.2-.2.2-.5.2-.9.2-1.4.4-.3.1-.4.1-.6.2l-.4.4c-.4.2-.6.1-1 .4-.2.1-.3.4-.6.6l-.4.4c-.7.5-1.5.7-2.1 1.2-.2.1-.2.3-.4.4-.4.2-.9.5-1.2 1.2-.6-.1-.8.5-1.2.8-.1.1-.3-.1-.4 0-.2.2-.3.6-.8.8-.4.3-.8.5-1.2.8-.3.2-.5.5-.8.8l-.8.8c-.3.3-.7.3-1 .6-.3.3-.3.6-.6.8-.1.5-.6.4-.8.8-.7.8-1.2 1.8-2.3 2.1-.2.1-.1.3-.2.6v.4c-.2.2-.8.7-1.2 1.2-.1.1-.2 0-.2.2 0 .3-.6.5-.8.8-.1.1 0 .3 0 .4-.1.2-.1.1-.2.2-.1.2-.3.4-.4.8-.1.4 0 .5-.2.8-.1.1-.2 0-.2.2 0 .4-.5.4-.8.8-.2.2 0 .5-.2.8-.1.2-.5.2-.6.4-.2.2-.1.5-.2.8 0 .1-.4.1-.4.2s.1.3 0 .4c-.3.3-.6.5-1 .8.1.3-.1.5-.2.6-.1.2-.1.4-.2.6-.3.6-.7 1.2-1.2 1.9-.2.3-.3.2-.4.8 0 .2-.1.3-.2.6 0 .2-.2.1-.2.2-.2.5 0 1 0 1.6-.2.1-.3.4-.4.6l-.4.4c.4-.5.5-.3.4-.1l-.4.4c-.1.2-.1.4-.2.6l-.2.2c-.1.2-.1.1-.2.2-.2.1-.4.1-.6.2-.2.1-.1.3-.4.4-.5.1-2 0-2.5-.6-.1-.1-.1-.4-.2-.4-.3-.2-.7-.1-1-.2-.1-.1 0-.2-.2-.2-.3 0-.2-.3-.4-.4-.1 0-.3.1-.4 0v-.2c-.1 0-.3.1-.4 0V40c-.6-.3-1.1-.5-1.6-.8-.6-.4-.9-1.2-1.4-1.6-.6-.6-1.2-.7-1.6-1.2-.1-.2 0-.7-.2-.8-.2-.2 0-.6-.2-.8-.2-.2-.2-.5 0-1.2l.2-.8h.2c0-.1-.1-.3 0-.4.3-.2.3-.4.6-.8.1-.1.2 0 .2-.2v-.2c.1-.2.4-.4.6-.6.2-.2.2-.6.4-.8l1.2-1.2c.4.1.1-.6.4-.8.1-.1.6-.4.8-.6.4-.5.6-.9 1-1.4.3-.4.8-.8 1.2-1.2l.6-.6c.3-.2.6-.2.8-.4.3-.3.3-.6.6-1 .5-.7 1.4-1.6 2.1-2.3l1.6-1.6c.1-.1.5-.1.6-.2.1-.1.1-.5.2-.6.1-.1.3.1.4 0 .2-.2 0-.6.4-.6.1-.6.6-.3 1-.6.3-.2.3-.7.6-1 .2-.1.4-.1.6-.2.1-.1-.1-.3 0-.4.1-.1.3.1.4 0 .2-.1.2-.3.4-.4.4-.3 1-1 1.6-1.4.1-.1 0-.2.2-.2s.4-.3.6-.4c.1-.1.3.1.4 0 .1-.1-.1-.3 0-.4.2-.2.4-.5.6-.8.9-.2 1.4-1 2.1-1.4.2-.5 1-.3 1.4-.6.1-.1.1-.3.2-.4.5-.3 1.1-.6 1.6-1 .2-.1.2-.3.4-.4.1 0 .3.1.4 0 .1-.2.2-.6.6-.6.3 0 1-.4 1.4-.6.1-.1 0-.2.2-.2.3 0 .5-.2.8-.4.3-.2.6-.5 1-.8.3-.2.3-.3.8-.4.2 0 .4-.2.8-.4.3-.1.6-.2 1-.4l.4-.4c.2-.1.4-.1.6-.2.2-.1.2-.3.4-.4.1 0 .3.1.4 0 .2-.2.8-.4 1.4-.6.2-.1.5-.1.8-.2.1-.1.3-.4.4-.4.3-.1.5-.1.8-.2 0 0 0-.2.2-.2.5-.1 1.2-.2 1.6-.6.3-.3.9-.3 1.4-.4.4-.1.9-.3 1.4-.4.5-.1 1-.1 1.6-.2.4-.1.9-.3 1.4-.4.9-.1 1.8 0 2.7 0 0 0 2.3-.6 2.7-.2.1.1.3.3.8.4.7.1 1.2-.1 1.7 0 0 .2.2.1.4.2.1.1.1.2.2.2.4.2.7.2 1.2.4.2.1.3.3.6.4.4.1.4.1.8.4.1.1 0 .2.2.2.3 0 .5.5.8.8.2.1.4.1.6.2.2.2.4.7.8 1 .2.1.4.1.6.2.3.2.8 1 1.4 1.4.5.3 1 .9 1.4 1.6.1.2.4.4.4.6 0 .2.3.2.4.4.1.1-.1.3 0 .4h.2c.3.7.5 1.8.8 2.7.2.8.5 1.4.4 2.3v.4c-.3.2-.1.5-.2 1.2-.1.3-.3.4-.4.8 0 .1.1.7 0 .8h-.2c-.1.3-.1.7-.2 1-.2.5-.4 1.4-.8 1.9 0 .1-.1.5-.2.6h-.2c0 .1.1.3 0 .4h-.2c0 .1.1.3 0 .4-.2.2-.3.2-.4.4-.4.7-.8 1.2-1.4 1.9-.1.1-.2 0-.2.2 0 .4-1 1-1.4 1.4-.1.2 0 .6-.2.8-.1.1-.5.1-.6.2-.1.1.1.3 0 .4h-.2l-.6.6c-.1.2-.2.4-.4.6-.3.3-.8.7-1.2 1.2-.8.9-1.7 1.7-2.5 2.7-.1.2-.1.4-.2.6-.1.1-.3-.1-.4 0-.1.1.1.3 0 .4-.1.1-.4.1-.6.2-.1.1.1.3 0 .4-.2.2-.6 0-.8.2-.2.1-.3.5-.6.8-.3.2-.6.5-1 1-.1.2-.1.4-.2.6-.2.2-.7.6-1 1-.4.5-1.1.8-1.2 1.6 0 .3-.8 0-.8.4s-.4.3-.8.6c-.1.1.1.3 0 .4-.1.1-.3-.1-.4 0-.6.5-1.4 1.5-2.1 2.1-.4.4-.8 1.1-1.6 1-.4.5-.6 1.1-1 1.6-.5-.2-.3.4-.8.4h-.2l-.4.4c-.2.1-.4-.1-.4.2-.4.1-.4.5-.6.8-.5-.1-.7.4-1 .6-.1.1-.5.1-.6.2-.1.1-.1.5-.2.6-.5.5-1.4.7-1.6 1.6-1.2.3-1.9 1.3-2.9 1.8-.2.3-.4.5-.8.8l-.4.4c-.1.1-.4.1-.6.2-.3.2-.4.5-.8.8-.5.4-1.3.7-1.9 1.2-.3.2-.5.6-.8.8l-.4.4c-.2.1-.4.1-.6.2-.3.2-.5.6-.8.8-.2.1-.4.1-.6.2-.2.1-.2.3-.4.4-.2.1-.4.1-.6.2-.1.1-.2.3-.4.4-.3.2-.5.5-.8.8-.2.1-.4.1-.6.2l-.4.4c-.5.5-1 1.1-1.6 1.6-.8.4-1.5.6-1.8 1.3"/></symbol><symbol id="3" viewBox="0 0 57.7 80"><path fill="#0D0F0F" d="M44.3 30.2c0 .3.4.8.6 1 .2.1.6-.1.8 0 .1 0 .1.4.2.4.3.1.8.1 1.2.2.1 0 .3.4.4.4.2 0 .4-.1.6 0 .1 0 .1.4.2.4.3.1.4.1.8.4.3.2.5.5.8.8.3.3.7.3 1 .6.3.3.4.6.6 1 .4.2 1 .3 1.4.6.4 1 1.3 1.6 1.9 2.5.1.2 0 .4.2.6.1.1.4.1.4.2.2.3.2.9.4 1.4 0 .1.2 0 .2.2 0 .4.3.5.4 1 .1.4.1.8.2 1.4.1.9.4 3.1.2 4.5v.4h-.2c0 .1.1.3 0 .4-.2.2 0 .6-.2.8h-.2c-.1.5 0 1.2-.2 1.8 0 .1-.2 0-.2.2s-.4 1-.6 1.4c-.1.2-.1.3-.2.6-.1.2-.2.4-.4.6-.2.2-.1.3-.2.6-.1.2-.1.1-.2.2-.1.2-.1.4-.2.6l-.4.4c-.1.2 0 .5-.2.8-.1.1-.3.2-.4.4-.2.3-.4.7-.6 1-.1.1-.2 0-.2.2 0 .1-.1.3-.2.4l-.4.4c-.2.3-.2.9-.4 1.2-.2.2-.7.6-1 1-.2.2-.2.4-.4.6 0 .1-.4.1-.4.2s.1.3 0 .4c-.3.3-.7.6-1 1-.1.1.1.3 0 .4-.3.2-.7.5-1 1 0 .1-.2.2-.2.2-.1.3 0 .5-.2.8-.2.2-.7.6-1 1-.2.2-.2.4-.4.6 0 .1-.4.1-.4.2s.1.3 0 .4c-.5.6-1.4 1-1.9 1.8-.1.1.1.3 0 .4-.5.4-1.1 1.2-1.8 1.8-.1.1-.3-.1-.4 0-.2.2-.3.5-.6.8-.5.5-1 .8-1.6 1.4-.1.1-.2.3-.4.4-.7.6-1.5 1-1.9 1.8-.6-.1-.6.3-1.2.2-.5.3-.8.7-1.4 1.2l-.4.4c-.2.2-.6.1-.8.2l-.4.4c-.5.3-1.1.3-1.6.6s-1.9.4-2.5.8c-.2.1-.5 0-1 .2-.1 0-.2.3-.4.4-.6.3-1.6-.1-2.7.2-.5.1-2.3.4-3.3.2-.2 0-.3-.1-.6-.2-.1 0-.2-.2-.2-.2-.8-.1-1.4 0-2.1-.2-.4-.1-1.2-.4-1.7-.6-.8-.2-1.6-.4-2.3-.8-.7-.3-1.5-.6-1.8-1.4-.7-.1-1.1-.5-1.7-.6 0-.3-.4-.4-.6-.6l-.6-.6c-.4-.4-1.1-.5-1.2-1.2-1-.1-1.3-.9-1.9-1.6-.2-.2-.6-.3-.6-.6-.4 0-.1-.6-.6-.6.1-.4-.5-.2-.6-.4v-.2c-.1 0-.3.1-.4 0-.1-.1-.1-.3-.2-.4l-.4-.2c0-.1.1-.3 0-.4-.2-.2-.4-.2-.6-.4-.3-.3-.5-.8-.8-1.2 0-.1-.4-.1-.4-.2-.1-.1-.1-.7-.2-.8-.1 0-.4.1-.4 0-.1-.1 0-.6-.2-1 0-.1-.2 0-.2-.2 0 0-.3-.3-.2-.4.3-.2-.2-.6-.4-1.2 0-.1.1-.3 0-.4-.2-.2-.1-.6-.2-1.4.4-1.2.2-1.6.2-1.9 0 0 .3-.1.2-.2-.3-.3 0-.4.2-1s.2-1.1.4-1.8v-.4H1c.1-.4.1-.7.2-1l.4-.4c0-.1-.1-.3 0-.4h.2c0-.1-.1-.3 0-.4.2-.1.2-.2.4-.4l.4-.4c.1 0 .3.1.4 0 .3-.3.5-.7 1.4-.6h.4c.2.2.6 0 .8.2v.2c.4.3.9.2 1.4.5.4.5.1 1.6.6 1.9.1.5.6.9.8 1.6 0 .1-.2 1 0 1.2.2.1 0 .2 0 .6-.1.5.1 1.4-.4 1.7.5 1 .1 2.2.2 3.3.1.7.2 1.4.4 2.1.2.9.4 1.9 1 2.5.1.1.3.2.4.4.3.3.5.7.8 1 .3.3.5.8.8 1 .2.2.5.1.8.2.1 0 .3.4.4.4.4.1 1.1-.1 1.7 0 0 0 .1.2.2.2h.6c.4.1.8.3 1.6.2 0 0 0-.2.2-.2s.1.2.2.2c1.1.1 2.2.2 3.5 0 .2 0 .5.1.8 0 .2 0 .2-.2.4-.2.8 0 1 .2 1.7 0h.4c.4-.4 1.4 0 1.9-.4.2-.1.2-.3.4-.4.5-.3.8-.4 1.6-.6h.4c.2-.2.3-.6.8-.6.6 0 .6-.3 1-.6l.4-.4c.1 0 .3.1.4 0 .2-.3.6-.3 1-.6l.4-.4c.1-.1.2-.1.4-.2.1-.1.4-.1.6-.2.1-.1.1-.3.2-.4.3-.2.7-.2 1-.4.2-.1.2-.2.4-.4.1-.1 0-.2.2-.2.8 0 1.5-1.2 1.9-1.7.5-.2.8-.7 1.4-1 .2-.1.4 0 .6-.2.3-.3.8-.9 1.2-1.4.2-.2.4-.3.6-.6.2-.2.2-.6.4-.8.7-.8 1.6-1.5 2.3-2.3.1-.1.1-.6.4-.6-.1 0 .9-.9 1-1 .1-.2-.1-.4 0-.6.1-.1.3-.1.4-.2.1-.1-.1-.3 0-.4h.2c.2-.3.2-.5.4-.8.2-.2.4-.3.6-.6 0-.1-.1-.3 0-.4l.4-.4c.2-.2.5-.4.6-.6.3-.4.3-1.2.6-1.8 0-.1.2 0 .2-.2 0-.3.3-.2.4-.4 0-.1-.1-.3 0-.4 0 0 .4-.1.4-.2.1-.2.1-.7.2-1 0-.1.2 0 .2-.2s.3-.2.4-.4c.1-.3.1-.6.2-1 0-.1.1-.3.2-.4.2-.3.2-1.2.4-1.9 0-.1.2 0 .2-.2 0-.5.3-.7.4-1.2.1-.3 0-.7 0-1 0-.4.2-.5.2-.8 0-.4-.2-1.2-.2-1.7 0-.6.2-1.4.2-1.6 0-.2-.3-.3-.4-.4-.1-.2.1-.4 0-.6-.1-.1-.3-.1-.4-.2-.1-.1.1-.3 0-.4-.3-.2-.9-.8-1.4-1.2-1.7-.2-3.2-.3-4.7 0-.4.1-1.1.3-1.6.4-.1 0 0 .2-.2.2h-.2c-.2.1-.6 0-1.2.2-1 .3-1.9 1.1-2.9 1.2-.2.2-.4.2-.6.4-.1 0-.1.4-.2.4-.4.2-.6.2-1 .4-.1.1 0 .2-.2.2-.1 0-.6.2-.6.4l-.8.8c-.5.4-1 .7-1.6 1.2-.3.2-1.2 1.4-2.1 1-.1 0-.1-.3-.2-.4-.3-.1-.5 0-.8-.2-.1-.1 0-.2-.2-.2-.3 0-.2-.3-.4-.4-.1 0-.3.1-.4 0-.1-.1-.1-.3-.2-.4-.3-.2-.5-.2-.8-.4-.2-.1-.2-.4-.4-.6-.4-.3-.8-.5-1.2-.8-.4-.3 0-1.3-.4-1.6-.3-.6-1.3-.5-1.4-1.4-.2-.2-.4-.6-1-.4-.3-.1-.4-.4-.4-.8-.2-.5.3-.6.6-.8.1-.1.4-.1.6-.2.1-.1.1-.3.2-.4.2-.1.4-.1.6-.2.1-.1 0-.2.2-.2.3 0 .6-.4 1-.6l.4-.4c.1 0 .3.1.4 0 .1-.1.6-.3 1-.6.1-.1.2-.3.4-.4.3-.2.4-.4.8-.6.1-.1.3-.1.4-.2.5-.4.9-.9 1.4-1.4.9-.8 2.1-1.4 3.1-2.3.5-.4.9-.9 1.4-1.4 1-.9 1.8-1.8 2.7-2.7.3-.3.8-.5 1.2-1 .1-.1.2 0 .2-.2v-.2c.8-.9 1.8-1.7 2.7-2.7.1-.1.1-.5.2-.6.1-.1.3.1.4 0 .4-.5 1.3-1.2 1.7-1.9.2-.3.4-.4.6-.8.2-.3.6-.6 1.2-.8-.1-.6.4-.6.4-1.2l.6-.6c.1-.2.2-.4.4-.6.1-.2.5-.2.6-.4.1-.1-.1-.3 0-.4.1 0 .4-.1.4-.2.1-.3.1-.6.2-.8.1-.1.2 0 .2-.2s.2-.8.4-1.2c0-.1.2 0 .2-.2s-.1-.4 0-.6c0-.1.4-.1.4-.2.1-.3 0-.7.2-1.2 0-.1.2 0 .2-.2v-.2c-.3.6-.3-.2-.9-.9-.7-.5-2.4-.6-3.4-.5-.6.1-1.1.4-1.8.6-.4.1-.8-.1-1.2 0-.1 0 0 .2-.2.2-.1 0-.2.2-.4.2-.3.1-.6.1-1 .2-.3.1-.7.1-1 .2-.1 0 0 .2-.2.2-.1 0-.4.1-.6.2-.2.1-.5.1-.8.2-.4.2-.6.4-1 .6-.2.1-.4.1-.6.2l-.4.4c-.2.1-.6-.1-.8 0-.1 0-.2.3-.4.4-.3.1-.7.2-1 .4-.2.1-.4.1-.6.2l-.4.4c-.2.1-.8 0-.8.4 0 .3-.7.3-1.2.6l-.4.4c-.1.1-.3.1-.4.2-.7.5-1.3 1.3-1.9 1.9-.1.1-.3-.1-.4 0-.2.2-.4.5-.8.8-.1 0-.1.4-.2.4s-.3-.1-.4 0c-.1.1-.1.5-.2.6-.1.1-.3-.1-.4 0-.4.4-1 1.2-1.6 1.8-.3.3-.6.7-1 1-.1.1-.3-.1-.4 0-.2.2 0 .8-.8.6 0 .4-.4.5-.6.8-.2.3-.1.5-.4.8-.6.6-1 1.4-1.6 2.1-.1.1-.2 0-.2.2s-.4.5-.6.8c-.1.2-.2.4-.4.6-.2.3-.3.3-.4.8 0 .2-.1.1-.2.2-.1.3-.2.7-.4 1.2 0 .1-.2 0-.2.2v.4l-.4.4c-.2.4-.3 1-.8 1.4-.1 1.8-.6 3.3-1.4 4.5.1 1.8 1.2 4-.2 5.1-1.2.2-1.5-.4-2.5-.4-.6-.8-1.5-1.4-2.5-1.7-.1-.2-.2-.4-.4-.6-.2-.2-.4-.2-.6-.4-.1-.1.1-.3 0-.4h-.2l-.6-.6-1-1c-.3-.4-.7-.6-.8-1-.1-.5-.1-1.5 0-2.1 0-.1.4-.1.4-.2.1-.2-.2-1 0-1.2h.2c0-.1-.1-.7 0-.8h.2c0-.1-.1-.7 0-.8h.2c.2-.8.2-1.2.6-1.7 0-.1-.1-.3 0-.4.2-.2.5-.4.8-.8.3-.3.4-.2.6-.8.1-.3.4-.4.6-.8.1-.2.1-.5.2-.8.2-.4.6-.7.6-1.2 0-.3.8 0 .8-.4 0-.7.4-.3.8-.8.1-.1.1-.2.2-.4 0-.1.2-.2.2-.2.1-.2 0-.6.2-.8.2-.3.7-.5 1-.8.2-.2.2-.4.4-.6.1-.2.3-.3.4-.4.1-.1-.1-.3 0-.4.2-.2.5-.3.8-.6 1.1-1.1 2.2-1.9 3.3-3.1.1-.1-.1-.3 0-.4.1-.1.3.1.4 0 .5-.4 1-.9 1.6-1.4.2-.1.6-.2.6-.6 0-.2.2-.1.4-.2l.4-.4c.2-.1.4-.2.6-.4l.4-.4c.1-.1.3.1.4 0 .1-.2.3-.6.6-.8.1-.1.3.1.4 0 0-.1.1-.4.2-.4.2-.1.4-.1.6-.2.1-.1 0-.2.2-.2s.5-.4.8-.6c.6-.2.8-.3 1-.4l.4-.4c.4-.2.9-.2 1.4-.4.1-.1.2-.3.4-.4.2-.1.4-.1.6-.2l.4-.4c.1-.1.3-.1.5-.2s.2-.3.4-.4c.2-.1.3-.1.6-.2 1.4-.7 3-1.4 4.7-1.6.5-.2.8-.6 1.4-.8 1.3.1 2.4-.3 3.5-.6h.4c.2-.1.4-.1 1-.2.5-.1.9-.3 1.8-.2.3 0 .4.2.8.2.8.1 1.5-.1 1.9.2.3.2.8.3 1.4.6.1 0 0 .2.2.2.3 0 .7.6 1 1 .1.2.5.2.6.4.1.2 0 .4.2.6.2.2.4.3.6.4.6.3 1.2.9 1.8 1.6 0 .1.4.1.4.2s-.1.3 0 .4c.4.4.8.6 1.2 1.2-.3 0-.2.1-.2.1.1.2.4.5.4.8 0 .1.1.3.2.4.3.4.3.5.6 1.4v.4h.2c0 .1-.1.3 0 .4h.2v.4c.3.2-.1.1 0 .4 0 0 .2 0 .2.2v.6c.3.2.1.2 0 .8 0 .2.1.5 0 .8 0 0-.2 0-.2.2s-.4.6-.2 1.2c-.2.3-.3.4-.6.6-.2.2-.4.3-.6.4-.1 1.1-.6 2.2-1.2 3.1-.1.1-.2 0-.2.2 0 .3-.6.4-.6.8v.2c-.1.2-.5.4-.6.6-.2.2-.2.6-.4.8-.3.3-.7.5-1 1-.1.2-.5.7-.8 1-.4.4-1 .6-1.4 1-.2.2-.4.5-.6.8-.4.5-1.2 1.1-1.6 1.9-.7.3-1.4.9-1.9 1.4-.4.1-1.1.6-1.4 1.4"/></symbol><symbol id="4" viewBox="0 0 54.9 83.7"><path fill="#0D0F0F" d="M32.2 0h.2c.1.3.5.2.8.4.1.1.2.3.4.4.3.3.9.4.8 1 .6.1 1.1.3 1.6.6.5.4.7 1.2 1 1.6.2.2.6 0 .6.4.4.5 1 1 1.6 1.6.1.9.3 1.7.2 2.3-.1.7-.4.6-.6.8-.1.2-.1.4-.2.6-.1.2-.4.4-.4.6 0 .6-1.2 1.1-1.4 1.4-.1.1 0 .3 0 .4 0 .1-.3.1-.4.2-.1.3-.2.7-.2 1-1 .7-1.8 1.6-2.1 2.9-.7-.1-.4.6-.8.6-.2 0-.1.1-.2.2-.4.3-1 1-1 1.4 0 .2-.1.1-.2.2-.1.2-.1.4-.2.6-.1.1-.3-.1-.4 0-.1.1.1.3 0 .4-.1.1-.3 0-.4 0 0 0-.2.3-.2.4-.3.3-.5.6-.8.8-.1.1.1.3 0 .4-.1.2-.3.2-.4.4-.1.1 0 .3 0 .4 0 .1-.3.1-.4.2-.3.4-.5.8-1 1-.4 1.1-1.2 2.1-1.8 2.7-.4.5-.9 1.3-1.6 1.4 0 .5-.5.8-.8 1.2-.1.1 0 .3 0 .4 0 .1-.3.1-.4.2-.2.2-.2.4-.4.6-.3.3-.7.6-1 1-.3.3-.5.9-1 1 0 .4-.4.7-.4 1 0 .2-.1.1-.2.2-.1.2-.1.4-.2.6-.1.1-.4-.1-.4.2 0 .2-.1.1-.2.2-.4.5-.9 1-1.2 1.4-.1.1-.4.3-.4.4 0 .2-.1.1-.2.2-.1.2-.1.4-.2.6-.1.1-.3.1-.4.2-.1.2-.1.4-.2.6-.1.1-.3.1-.4.2-.1.1-.1.4-.2.6-.1.1-.5.1-.6.2-.1.1-.2.6-.2.8 0 .4-.9.6-1 .8-.1.2-.1.4-.2.6-.1.1-.3.1-.4.2-.1.2-.1.4-.2.6l-.4.4c-.1.2 0 .5-.2.6-.2 0-.3.2-.4.4-.1.1-.3-.1-.4 0-.3.3-.2.8-.6.8-.2 0-.5.3-.6.4-.1.1-.2.6-.4.8l-.6.6-.6.6h-.2c-.1 0 0 .3 0 .4h-.2c-.1 0 0 .3 0 .4h-.2c-.1 0 0 .3 0 .4-.3.6.1.9.4 1.4.8.1 1.6-.2 1.9-.4.8-.3 1.4-.4 2.1-.6.5-.1.9-.2 1.4-.4 1.4-.4 2.4-1.1 3.7-1.4.5-.1 1.1 0 1.6-.2.5-.1.5-.4 1-.4.4 0 .8-.8 1.2-.8.2 0 .1-.2.2-.2.4-.2.9 0 1.4-.2.8-.2 1.3-.9 1.9-1 .4 0 1-.2 1.4-.4.4-.2.4-.3.8-.4.2 0 .1-.1.2-.2.2-.1.4-.1.6-.2.2-.1.3-.3.4-.4.6-.2.7.1 1-.2 0-.1.3 0 .4 0v-.2c0-.1.3 0 .4 0 .6-.2 1.5-.6 1.7-.8.4-.3 1.1-.6 1.4-.6.2 0 .1-.1.2-.2.4-.3.8-.5 1.4-.4.5 0 .4-.7.8-1 0-.2.1-.1.2-.2.7-.5.9-1 1.4-1.6.2-.3.5-.5.8-.8.3-.3.7-.5 1-.8.1-.1.1-.5.2-.6.3-.3.6-.5.8-.8.4-.6.8-.9 1.2-1.4.3-.3.5-.7 1-.8-.1-.4.3-.4.4-.6.1-.2.2-.6.4-.8.7-1 2-2.1 2.7-2.9.1-.1.2-.4.4-.4s.1-.2.2-.2c.4-.1 1 0 1.2 0 0 0 .3-.2.2-.2.3 0 .6.5.8.6.2.1.4.1.6.2.1.1.4.5.4.6 0 .2.1.1.2.2.3.4 1.2 1 1.4 1.2.1.1-.1.3 0 .4.1.1.5.1.6.2l.4.4c.1.2.1.4.2.6.2.3.6.3.8.6.1.1.1.5.2.6 0 .1.1.1.2.2.2.4.2.8.2 1.4 0 .4.3.8 0 1 0 .2-.1.3-.2.4-.1.2-.2.3-.4.4-.2.1-.4.1-.6.2-.1.1.1.3 0 .4-.1.1-.3-.1-.4 0-.5.4-.6 1.4-1.6 1.4-.3.9-1.1 1.4-1.6 2.1-.4.1-.6.5-1.2.4-.6.6-1.1 1.6-1.8 2.1-.1.1-.3 0-.4 0-.1.1-.1.4-.4.4-.2 0-.4.3-.6.4-.5.3-.9 1-1.6.8-.5.4-.7 1.3-1.4 1.4.1.8-.8 1.1-1.2 1.6-.4.5-.6 1.3-1.4 1.4-.1.9-.8 1.1-1.4 1.6-.1.7-1 1.1-1 1.6 0 .4-.7.7-.8.8-.1.1-.1.4-.2.6l-1.2 1.2c-.1.1-.5.1-.6.2-.1.1.1.3 0 .4-.2.2-.6.4-.8.6-.2.2-.2.6-.4.8-.4.5-.9.8-1.2 1.2-.1.1-.1.3-.2.4-.1.2-.3.2-.4.4-.2.2-.2.6-.4.8l-.6.6c-.1.2-.5.4-.6.6-.2.3-.1.7-.4 1-.4.1-.7.5-1 .8l-1.4 1.4c-.2.2-.5.7-.6.8-.2.2-.2.4-.4.6-.1.1-.3.4-.4.4-.4 0-.4.6-.8.6-.2 0-.1.1-.2.2l-.4.4c-.2.2-.4.6-.6.8-.2.3-.6.4-.8.6-.1.1 0 .3 0 .4.9-1.2.5-1.2.5-.9 0 .2-.1.1-.2.2-.3.4-.4.8-.6 1.2-.2.2-.4.3-.6.6-.2.2-.2.6-.4.8l-.6.6c-.2.2-.4.3-.6.6-.2.2-.1.8-.6.6 0 1.3-.7 1.9-1.4 2.5 0 1.8-1 2.6-1.7 3.7v.6c0 .1-.2.2-.2.2 0 .6.2.8.2 1 0 .2-.2.2-.2.4 0 .3.2.4.2.6 0 .3-.3.4-.2.8.1.6.4.9.4 1.4 0 .6.9 1 .4 1.8-.8.2-1.5-.1-2.1-.4-.1 0-.3-.3-.4-.4-.2-.1-.4-.1-.6-.2l-.4-.4c-.5-.4-.9-.6-1.4-1l-.8-.8c-.3-.2-.5-.5-.8-.8l-.8-.8c0-1.1 0-2.2.2-3.3.1-.4.2-.7.4-1.2v-.4c.1-.4.3-.5.4-.8 0-.1.2 0 .2-.2v-.4c.1-.5.3-.5.4-.8.2-.7 0-1.1.2-1.4.1-.1.1-.3.2-.4.1-.3.1-.8.2-1 0 0 .3-.2.4-.2.1-.1 0-.3 0-.4h.2c.1-.1-.1-.3 0-.4.3-.4.6-.2.6-.8 0-.2.1-.1.2-.2.2-.4.4-.6.6-.8.1-.1-.1-.3 0-.4.1-.1.3-.1.4-.2l.4-.8c.3-.5.6-1 .8-1.6.5-.3.9-.7 1.4-1 0-.5.3-.7.4-.8.1-.1-.1-.3 0-.4.2-.3.6-.4.8-.6.1-.1 0-.3 0-.4h.2c.1-.1-.1-.3 0-.4.2-.3.6-.2.6-.6 0-.4.4-.5.6-.6.1 0-.1-.3 0-.4.1-.2.4-.4.6-.6.2-.2.4-.4.4-.8.5-.2 1.2-.7 1.2-1 0-.4.4-.5.6-.6.1 0 0-.3 0-.4.1-.2.4-.4.4-.6 0-.2.1-.1.2-.2s.4-.4.4-.6c0-.3.6-.4.8-.4.2-.6.4-1 .6-1.6.4-.2.8-.5 1.2-.8.1-1 1-1.5 1.2-2.1.1-.3.1-.4.2-.6.2-.4.5-.9.2-1.4-.4-.5-.9.2-1.2.2-.3 0-.3.4-.6.4-.2 0-.1.1-.2.2-.2.1-.4-.1-.6 0-.1 0-.1.3-.2.4-.3.1-.7.1-1 .2-.2.1-.3.2-.6.2-.2 0-.1.2-.2.2-1.4.5-2.7.9-3.5 1.8-.6-.1-1 .1-1.2.2-.4.2-.5.2-1 .2-.2 0-.1.2-.2.2-.4.1-.8.3-1 .4-.4.2-.8.2-1.2.4-.4.2-1 .3-1.2.8-.8-.1-1.5.3-1.9.4-.2 0-.5-.1-.8 0-.3.1-.5.3-.8.4-.5.2-.8.2-1 .4H9c-.2 0-.2.2-.2.2-.2.1-.5 0-.8 0-.1 0-.2.2-.2.2-.1 0-.8-.1-1-.2v-.2c-.1-.2-1 .1-1.2 0-.1 0-.3-.3-.4-.4-.3-.1-.5 0-.8-.2-.2-.1-.2-.5-.4-.6-.1-.1-.3 0-.4 0-.1 0-.1-.3-.2-.4-.1-.1-.3 0-.4 0-.1 0-.1-.3-.2-.4-.1 0-.3-.2-.4-.2-.2 0-.1-.1-.2-.2-.4-.3-.8-.4-1.2-.8.1.1 0-.3-.1-.7-.3-.3-.6-.5-.8-1-.2-.6 0-.4 0-.8 0-.8.1-1.3.2-1.6V46c0-.2.1-.1.2-.2.2-.4.4-.6.6-.8.1 0 0-.3 0-.4.2-.5.3-.6.6-.8.1-.1-.1-.3 0-.4l.4-.4c.4-.4.9-.8 1.4-1 .1-.5.5-.9.8-1.4.1-.2.4-.4.6-.6 0 0 .1-.3.3-.5.1-.2.4-.4.6-.6l.6-.6c.3-.4.5-1.1 1.2-1.2-.1-.3.2-.4.2-.6 0-.4.4-.5.6-.6.1-.1-.1-.3 0-.4.3-.4 1.2-1.1 1.2-1.4 0-.2.3-.4.4-.6.2-.3.4-.3.6-.6.1-.2.2-.2.4-.4.1-.1-.1-.3 0-.4.1-.1.7-.8.8-.8.4 0 .3-.6.8-.4-.1-.5.6-.8.6-.8.3-.2 0-.8.4-.8.6-.5.7-1.2 1.2-1.8.2-.3.6-.5.8-.8.1-.2.1-.4.2-.6 0-.1.3.1.4 0 .1-.1-.1-.4.2-.4.5 0 .6-1 .8-1.2.3-.3.6-.5.8-.8.1-.2.1-.4.2-.6l.4-.4c.1-.2.1-.4.2-.6.1-.2.4-.2.6-.4.2-.2.2-.4.4-.6.1-.2.5-.2.6-.4.2-.2 0-.6.2-.8.1-.1.1-.3.2-.4.1-.1.3.1.4 0 .2-.2 0-.5.2-.8.1-.2.5-.2.6-.4.1-.1 0-.3 0-.4 0-.1.3-.1.4-.2.4-.6.5-1 .8-1.6 0-.1.3-.1.4-.2.2-.2.3-.4.4-.6.4-.6.9-1.3 1.2-1.8.1-.3 0-.6.4-.8.2-.4.8-.8.8-1.2 0-.4.4-.5.6-.6.1 0 0-.3 0-.4h.2c.1 0 0-.3 0-.4.1-.2.3-.2.4-.4.3-.5.4-.9.8-1.2.1 0 0-.3 0-.4h.2c.1 0 0-.3 0-.4h.2c.1 0 0-.3 0-.4.2-.5.5-1.1.8-1.4.3-.4.4-.7.6-1l.4-.4c.1-.1 0-.4 0-.6 0-.2.2-.1.2-.2.1-.5.4-1 .4-1.2 0-.4.4-.5.4-.8 0-.2.2-.1.2-.2.1-.3.1-.8.2-1.2.1-.4.5-.7.4-1.2-.6 1.1-.2 1.1-.2.9"/></symbol><symbol id="5" viewBox="0 0 72.1 75.5"><path fill="#0D0F0F" d="M71.7 10.2c-1.1.1-1.4-.3-1.8-1-.1-.1-.1-.4-.2-.6 0-.1-.4-.1-.4-.2-.2-.4 0-.5-.2-1-.1-.1-.4-.3-.4-.4-.1-.2 0-.4-.2-.6 0 0-1.4-.8-1.8-.8-.4 0-.6 0-.8-.2-.4-.3-.5.1-1.4 0-.1 0-.2-.2-.4-.2h-.6c-.8-.1-1.4-.4-2-.4-1-.1-1.8.1-2.6 0-.6-.1-1.2-.5-1.8-.6-.2 0-.9.1-1 0-.2-.2-.1-.1-.4 0-.9.2-2.4.1-3.8.2-1.5.1-2.9.3-4.1.6-.2 0-.2.2-.2.2-.7.2-1.3.1-1.8.4-.2.1-.4.3-.6.4-.2.1-.4.2-.6.4-.1.1-.6.2-.7.6.1.3-.2.3-.2.4-.1.7.3 1.6.2 2.2 0 0-.2 0-.2.2v.2c-.1.2-.1.3-.2.6-.1.2-.1.1-.2.2-.3.6-.7 1.3-1.2 2l-.4.4c-.1.2-.1.4-.2.6-.2.3-.6.6-.8.8-.3.3-.6.5-.8.8-.1.1-.1.5-.2.6-.3.3-.9.8-1.4 1-.1.2 0 .6-.2.8 0 .1-.4-.1-.4 0v.2c-.4.6-.9 1.6-1.6 2.2-.1.1-.3-.1-.4 0-.1.1.1.3 0 .4-.1.1-.3-.1-.4 0v.2c-.3.4-.7.7-1 1.2-.1.1-.2 0-.2.2s-.6.7-.8 1c-.2.2-.4.5-.6.8-.2.2-.4.4-.6.8-.1.2-.5.4-.4 1 .4 2 5.2.8 6.5 2.4.9 0 1.5.4 2.2.6.4.1.7.2 1 .4.2.1.3.3.4.4.1 0 .4-.1.4 0 .1.1.1.3.2.4.1.1.3-.1.4 0 .1.1-.1.4 0 .4.1.1.3-.1.4 0 .4.4.9 1.1 1.6 1.4.4.9 1 1.5 1.6 2.2.6.7 1.4 1.3 1.8 2 0 .1-.1.4 0 .4h.2c0 .1-.1.4 0 .4.1.1.4.2.4.4 0 0-.3.2-.2.4.1.3.2.5.4.8.1.2.4.3.4.6.3.8.1 2.1.6 2.6 0 .8-.8 1.3-.4 1.8-.1.9 0 1.7-.2 2.4 0 0-.2 0-.2.2 0 .3.1.6-.2.6 0 .4-.6.3-.4.8-.2 1.3-.4 2.4-.8 3.4 0 .1.1.4 0 .4h-.2c0 .1.1.4 0 .4-.3.3-.7 1.3-1 2-.2.3-.6.9-.6 1.2 0 .3-.4.4-.4.8s-1.3 1-1.4 1.6c-.1.5-.4 1-.8 1.4-.1.2-.5.2-.6.4-.1.1-.1.5-.2.6-.3.4-.7.6-1 1-.8.9-1.9 1.6-2.6 2.8-.4.1-.6.5-1.2.4-.5.7-.9 1.4-1.4 2-.6.2-1 .5-1.6.6-.3.2-.7 1.2-1.2 1.2-.4 0-.6 1.3-1.4 1.2.2.4-.3.3-.4.4-.1.2 0 .5-.2.6-.2.2-.9.1-.8.6-.6-.2-1 .3-1.4.4-.5.1-.7.1-1.2.4l-.2.2c-.2.1-.5.4-.8.4-.1 0-.3.2-.4.2-.2.1-.5.4-.8.4-.1 0-.3.2-.4.2-.2.1-.4.1-.6.2-.1 0-.1.4-.2.4s-.3-.1-.4 0c-.1.1-.3.4-.4.4-.3.1-.9.1-1.4.2-.2 0-.4.1-.6.2-.1 0-.4-.1-.4 0-.2.3-.3.1-1 .2-.2 0-.3.2-.6.2-.4 0-.9-.1-1.4 0-.6.1-2.8.4-3.6.2h-.4v-.2c-.1 0-.4.1-.4 0-.2-.2-.1-.3-.4-.4-.1 0-.4.1-.4 0v-.2c-.1 0-.4.1-.4 0v-.2c-.1 0-.4.1-.4 0v-.2c-.3-.1-.8-.1-1-.2-.2-.1-.5-.6-.8-.8-.8.6-1 .2-1.3 0-.2-.1-.4-.1-.6-.2-.2-.1-.2-.3-.4-.4-.6-.4-1.2-.5-1.4-1.4-.2-.2-.6-.1-.6-.4-.3-.3-.5-.7-.8-1-.1-.1-.3-.1-.4-.2-.2-.1-.3-.3-.6-.6l-.2-.4c-.1 0-.3.1-.4 0-.1-.1-.1-.5-.2-.6-.3-.3-.8-.5-1-.8-.1-.1.1-.4 0-.4-.1-.1-.6-.3-.8-.6-.2-.2-.1-.5-.2-.8l-.4-.4c-.1-.1-.1-.3-.2-.4-.1-.2-.3-.2-.3-.3-.1-.2-.1-.4-.2-.6-.2-.3-.6-.8-.6-1-.1-.3.2-1.2 0-1.8 0-.2-.2-.8-.2-1.5 0 .1.3-.1.2-.2-.4-.3-.1-1.2 0-2V56c.4-.3.5-1.6.8-2 .1-.2.4-.3.6-.6.2-.3.1-.7.6-.8H4c-.1.2.3.1.4.2.2.2.1.5.2.8.2.2.4.1.5.4 0 .1.1.6.2.8 0 .2.2.1.2.2.3.9.4 1.9 1 2.6 0 .6.1 1.3-.2 1.6.5.4.3 1.3.4 2.4 0 .3.2.6.2 1.2 0 1.5.1 2.2.8 3.3 0 .1.2.2.2.2.1.3 0 .6.2.8.1.1.4.1.4.2s-.1.3 0 .4c.2.2.5.3.6.5.3.3.4.5.8.8.2.2.4.2.8.2h.4v.2c1 .1 2.1.1 3-.2.1 0 0-.2.2-.2.3 0 .6.1.6-.2.5.3 1 .1 1.6 0 .8-.1 1.7-.1 2.4-.4 0 0 .1-.2.2-.2.4-.1.7-.3 1-.4.2 0 .6.1.8 0 .8-.3 1.5-.7 2-1.2.5 0 1.2.1 1.4-.2.6.3.5-.5.6-.6.2-.2.5-.1.6-.4.7-.3 1.4-.5 2-.8 1.1-.6 1.8-1.8 3.2-2 .6-1 1.4-1.8 2.6-2.2.6-1 1.5-1.6 2.2-2.4.7-.8 1.2-1.8 2.2-2.2.3-.7.7-1.3 1.4-1.6.3-.9.9-1.7 1.4-2.4.1-.1.2 0 .2-.2 0-.6.8-.6.8-1.2 0-.4.2-.6.6-.8V48c.8-.1.4-1 .6-1.4 0-.1.4-.1.4-.2.1-.3 0-.7.4-1 0-1.3.3-2.3.6-3.6.2-1 .3-2.7 0-4-.2-.8-.2-1.3-.6-1.8 0-.1-.4-.1-.4-.2s.1-.4 0-.4c-.2-.2-1-.5-1.6-.8-.1 0-.4.1-.4 0v-.2c-.1 0-.4.1-.4 0v-.2c-.1 0-.4.1-.4 0V34c-.1 0-.4.1-.4 0-.2-.2-.4-.1-.8-.2s-.7-.1-1.4-.2c-.3 0-.4-.2-.6-.2-.2 0-.3.2-.6.2.1 0-.1-.2-.2-.2-.3-.1-1.2 0-1.8 0-.9.1-1.9.2-2.8.4-.4.1-.7.3-1.2.4.1 0-.1-.2-.2-.2-.2 0-.1.2-.2.2-.5.1-.8 0-1.2.2-.1 0-.4-.1-.4 0v.2c-.1 0-.4-.1-.4 0-.1.2.1.4-.2.4-.1 0-.6-.1-.6 0v.2c-.1 0-.4-.1-.4 0-.2.3-.7.6-1.2.8-.6.1-.5 1.2-1.2 1.2-.4 0-1 1-1.6 1 .1-.4-.7 0-.8-.2l-.4-.4c-.3-.3-1-.6-1.6-.8-.3-.8-1.1-1.2-1.6-1.8-.5-.1-.4-.7-.6-1-.2-.3-.6-.6-.8-.8-.3-.3-.7-.5-1-.8-.3-.3-.5-.7-.6-1.2.2-.7.9-.8 1.4-1.2.6-.3.8-1 1.6-1 .5-1.9 2.3-2.4 3-4.1.7 0 1-.7 1.4-1 .3-.3.5-.5.8-1 .2-.3.7-.4.4-.8.3-.3.6 0 .8-.4.2-.3 0-.6.2-.8.2-.2.9-1 1.2-1l.4-.2c.1-.1.1-.5.2-.6.5-.6 1-1.3 1.6-1.8.4-.1.2-.6.4-.8.1-.2.3.1.4-.2v-.4c.3 0 .4-.4.6-.6l.6-.6c.3-.4.7-.7 1-1.2.3-.4.5-1 .8-1.4.3-.4.8-.7 1.2-1 .2-1 .8-1.7 1.4-2.4.3-.4.5-.9.8-1.2.2-.2.7.1.8-.2.5-1 .1-1.1.2-1.3.2-.5-.4-.5-.8-.4-.2 0-1 .5-1.4.4 0 .4-.6.1-1 .2-.3.1-.8.3-1.2.6-1.7 0-2.8.7-4 1.2-.2.1-.3.4-.4.6l-.4.4c-.1.2-.1.4-.2.6l-.4.4c-.2.4-.2.8-.4 1.2l-.4.4c-.1.2 0 .5-.4.4-.5.4-.8.1-1.2-.2-.2-.1-.5-.6-.8-.6-.3 0-.7-1-1.2-1-.3 0-.3-.4-.6-.6-.4-.3-.9-.5-1.2-.8-.4-.1-.5-.6-.7-.8-.1-.2-.5-.2-.6-.4-.4-.6-.5-1.4-1-1.8-.5-.4-.7-1.1-.6-2 .2.1.1-.3.2-.4.2-.1.8-.1 1.2-.2.1 0 0-.2.2-.2h.2c.5-.2 1.7-.5 2.4-.6.2-.1.4-.2.8-.2.5 0 1 0 1.4-.2.1 0 0-.2.2-.2.8-.2 1.7-.3 3-.4.3 0 .6.1.8 0 .2 0 .2-.2.4-.2.5 0 .9.1 1.4 0 .3-.1.6-.4 1-.4s.7.1 1.2 0c.1 0 .3-.2.2-.2.9 0 1.1.2 2 0 .4-.1.5-.3 1-.2.1 0 .3.2.2.2.1 0 .3-.2.6-.2 1.6-.1 3 .1 4.3-.2h.4c.2-.3.1 0 .2 0h1.6c.5 0 .9.2 1.4.2 0 0 0-.2.2-.2 0 0 0 .2.2.2.3 0 .4-.2.6-.2.5 0 1 .2 1.4.2.5 0 1.1-.2 1.6-.2s1.1.2 1.6.2c2 .1 4.1-.2 6.1 0 .9.1 1.7.3 2.6.4.9.1 1.9.1 2.8.4.2.1.2.2.4.2 1.2.2 2.8-.1 3.4.8 1.3-.2 2.3.5 3 .8.3.1.5.1.8.2.1 0 .1.4.2.4s.3-.1.4 0c.4.3.8 1.1 1.2 1.6.3.4 1 1.8 1.2 2.6.3.9.5 1.7-.1 2.4"/></symbol><symbol id="6" viewBox="0 0 59.4 74.4"><path fill="#0D0F0F" d="M59 7.4c-.1 0 0-.3 0-.4h-.2c-.3-.2 0-.8-.4-.8-.1 0-.5-.3-.6-.4-.1-.2-.1-.4-.2-.6-.5-.6-.8-1.1-1.2-1.6-.2-.3-.3-.6-.8-.6.1-.6-.5-.8-.8-1.2-.3-.3-.6-.9-1-1.2-.1-.1-.4.1-.6 0-.1 0-.1-.3-.2-.4-.2-.1-.7 0-.8-.4-.7.1-1.4-.1-2.1 0-.2 0-.2.2-.4.2s-.1.2-.2.2c-.7.2-.9-.1-1.2.2 0 .1-.3 0-.4 0 .1.3 0 .5-.2.6-.2.1-.4-.1-.6 0-.1 0-.2.3-.4.4-.4.1-.8.1-1.2.2v.2c.1 0-.5.2-.5.2-.2.1-.3 0-.4.2-.1.1-.3-.1-.4 0-.4.3-.3.9-.8 1-.5.3-.6-.1-.8 0-.2.1-.4.7-.6.8-.1.1-.4-.1-.6 0-.1.1-.1.4-.4.4-.2 0-.1.1-.2.2-.5.3-.7.5-1.2.8v.2c0 .1-.3 0-.4 0l-.4.4h-.2c-.2 0-.1.1-.2.2-.4.3-1 .5-1.4.8l-.4.4c-.1.2-.1.4-.2.6-.1.1-.5.1-.6.2-.1.1 0 .5-.2.6-.5-.5-.8.2-1 .4-.2.2-.2 0-.4.2-.3.2-.4.5-.6.6-.3.2-.7 0-1 .2-.2.1-.2.4-.4.6l-1.6 1.6c-.4.3-1 .5-1.4.8-.1.1 0 .3 0 .4 0 0-.3.2-.4.2-.3.3-.2.5-.8.4-.2.1-.1.4-.2.6-.1.1-.3-.1-.4 0-.1.1-.1.3-.2.4-.1.1-.4.1-.6.2-.5.4-.7 1.1-1.2 1.6-.5-.2-.5.3-1 .2-.3.1 0 .9-.4 1-.4-.1-.4.2-.6.4-.7.6-.9 1.3-1.7 1.6 0 .8-.9 1.3-1 1.8 0 .6-1.2.7-1 1.4-.6-.1-.8.3-1.2.4-.1.6-.3 1.1-.6 1.6-.5.2-1.1.4-1.6.8-.2.1-.1.4-.2.6-.1.2-.5.2-.6.4-.3.3-.5.9-.8 1.2-.2.1-.4.1-.6.2-.1 0-.1.3-.2.4-.1.1-.3-.1-.4 0-.1.1 0 .3 0 .4 0 .1-.3.1-.4.2-.1.2-.2.2-.4.4-.1.1 0 .3 0 .4l-.6.6c-.2.3-.1.8-.6.6-.1.2-.1.4-.2.6l-.4.4c-.1.2-.1.4-.2.6-.1.2-.5.2-.6.4-.5.7-.9 1.5-1.4 2.1-.1.1-.3.2-.4.4-.1.2-.2.4-.4.6-.2.3-.6.6-.6.8 0 .3-.3.6-.4.8 0 .1-.1.1-.2.2-.3.5-.7.9-1.2 1.2 0 .2.1.4 0 .6 0 .1-.3.3-.4.4-.2.4-.4.7-.6 1-.2.3-.2.7-.4 1l-.4.4c-.1.2-.2.4-.4.6-.1 0 0 .3 0 .4 1-1 .7-.8.7-.7v.4c0 .2-.2.1-.2.2-.4 1-.7 1.7-1 2.7-.4.2-.6.4-.6.8 0 .2-.2.1-.2.2-.1.2 0 .5 0 .8 0 .3-.2.4-.2.6-.1.4-.1 1-.2 1.4 0 .1-.4.3-.4.4-.1.2.1.5 0 .8 0 .1-.2 0-.2.2 0 .1 0 .2-.1.4-.2.4-.1.7-.2 1.2-.1.8-.6 2.1-.6 2.5 0 .4.4.6.4 1-.3.1-.3.3-.4.6 0 .2.2.1.2.2 0 .2-.2.3-.2.4-.2 1.5-.1 2.5.2 3.8.1.8.4 2 .6 2.3.1.2.1.3.2.5.3.4.5.6.8.8.1 0 0 .3 0 .4h.2c.1 0 0 .3 0 .4h.2c.1.1-.1.3 0 .4.4.6 1.5 1.2 1.8 1.6.1.2.1.4.2.6.2.3.6.4.6.8.6-.1.4.5 1 .4 0 .4.2.4.4.6.4.4.6.4 1 .6.1 0 .1.3.2.4.4.3.8.8 1.2.8.2 0 .1.1.2.2s.4-.1.6 0c.1.1 0 .6.2.6.4-.1.9.1 1.2.2.5.2.5.3.8.4.7.2 1.6.3 1.9.4.3.1.4.2.6.2 1.2.3 2.4-.2 3.1-.4.1 0 .2-.2.2-.2.2 0 .2.2.4.2 0 0 .1-.2.2-.2h.2c.2 0 .1-.2.2-.2.6-.2.8-.2 1.4-.2.2 0 .2-.2.2-.2.6-.1 1.1-.3 1.7-.2.9-.7 1.9-1.1 2.9-1.6.2-.1.6.1.6-.2 0-.3.6-.4.8-.4.2 0 .1-.2.2-.2.5-.2 1.3-.3 1.8-.6 0 0 .2-.3.2-.4.1-.1.3 0 .4 0 .1 0 .1-.3.2-.4.1-.1.3 0 .4 0 .1 0 .1-.3.2-.4.1-.1.3 0 .4 0 .2-.2.4-.5.6-.6.2 0 .3-.2.4-.4 0-.3.3-.2.4-.4.2-.1.5.1.8 0 .1 0 .3-.3.4-.4.8-.3 1.1-.4 1.4-.8.1-.1.3.1.4 0 .1-.1 0-.3 0-.4 0 0 .3-.2.4-.2.2-.2.4-.2.6-.4.2-.2.2-.5.4-.8.7.3 1-.5 1.2-.6.2-.1.4-.1.6-.2v-.2c.1-.1.3 0 .4 0 .4-.3.7-1.1 1.2-1.2.2 0 .1-.1.2-.2.3-.2.6-.3.8-.4.2-.1.4-.4.6-.4.2 0 .1-.1.2-.2.5-.3.9-.7 1.4-.8.2-1 1-1.3 1.2-2.3.5-.2.8-.6 1.4-.8.2-.5.3-.8.6-1.2.5-.6 1.4-.8 1.7-1.4.1-.1-.1-.4 0-.6 0-.1.3-.1.4-.2.2-.4.3-.7.2-1.2.5-.4 1.3-1 1.4-1.6 0-.2.2-.1.2-.2.1-.3 0-.8 0-1.2 0-.2.2-.2.2-.4 0-.1-.3-.2-.2-.4.3-.5.8-.9.8-1.7.1-.8-.5-.8-.6-1.4 0 .1.2-.3.2-.4v-.8c-.3-.1-.4-.4-.6-.6-.3-.2-.7-.2-.8-.6-.2-.6-1.3-1.3-1.4-1.8 0-.2-.1-.1-.2-.2-.2-.4-.7-1.3-1.2-1.4-.3 0-.2-.5-.4-.6-.7.2-.8-.3-1-.4-.2-.1-.4-.1-.6-.2-.1-.1-.4-.4-.6-.4-.2 0-.1-.1-.2-.2-.4-.3-.7-.4-1-.6-.1 0-.1-.1-.2-.2l-.2-.2c-.4-.2-1.1 0-1.8-.2v-.2c0-.1-.3 0-.4 0v-.2c0-.1-.3 0-.4 0-.4-.2-.6-.4-1-.4s-.8.4-1.2.2c-.4-.4-.8-.4-1.4-.4-.1 0-.2-.2-.2-.2-.3 0-.8.2-1.2.2-1.1.1-1.9-.1-2.5-.2h-.6c-.4 0-.4-.2-.6 0-.1.1-.8 0-1 0-.3.1-.7.4-1 .4-.2 0-.1.1-.2.2-.6.3-.7 0-1.2 0 .1 0-.1.2-.2.2-.8.2-1.6 0-2.1.2-.1 0-.3.4-.4.4h-.4c-.2 0-.1.2-.2.2-.4.2-.8.2-1.2.4-.3.2-.7.4-1 .6-.4.2-.8.3-1 .8-.4-.1-.4.3-.6.4v2.3c.5.3 1.1.7 1.4.8.3.1.4.1.6.2.4.3.3.1.8 0 .7-.1 1.1.2 1.6.2.3 0 .4-.2.6-.2.1 0 .2.2.2.2.8 0 1.3-.1 1.6-.2.2-.1.5.1.8 0 .5-.1.9-.5 1.4-.6.2-.1.6.1.8 0 .1-.1.2-.4.4-.4-.1 0 .3.2.4.2.6.1.8-.1 1-.2.6-.1.5-.1 1-.2.4 0 .8.4 1 .2.3-.3 1-.3 1.4-.4.5.3 1.1.7 1.7.8.2 0 .3-.2.6-.2 1.2-.2 3.1-.1 3.5.4.1.1.8 0 1 0 .7.2 1.2.6 1.9.4 0 .4.7.5.8.6.1.1-.1.3 0 .4.1.1.5 0 .6.2.1.1.1.5.2.6.3.4.7 1.1.8 1.6 0 .2-.2.1-.2.2-.1.2 0 .4 0 .6-.2 1.1-.3 1.8-.4 2.5-.2.3-.7.3-1 .6-.3 1.7-2 2-2.3 3.7-.5-.1-.4.4-1 .2-.3 1.2-1.5 1.5-1.9 2.5-1.5.5-2.1 1.7-3.1 2.7-.5 0-.7.4-1 .6-.2.1-.4.1-.6.2-.2.2-.2.4-.4.6-.3.2-.6.3-1 .6-.3.2-.6.8-1.2.6-.6.8-1.5 1.2-2.5 1.6-.3.5-.7.9-1.2 1.2-2 .2-2.8 1.6-4.9 1.7-.5.3-.7.8-1.4 1-1 .1-2.5.7-3.3 1-.2.1-.4.1-.8.2s-.8.5-1.2.6c0 0-.2-.2-.4-.2s-.3.2-.6.2c-1.3.1-2.4.1-3.3.2 0 0 0-.2-.2-.2-.1 0 0 .2-.2.2h-.8c-.3 0-.4-.2-.8-.4-.5-.2-.9-.3-1-.4 0-.1-.3 0-.4 0-.5-.2-1.3-.5-1.4-.8 0-.2-.1-.1-.2-.2-.2-.2-.3-.2-.4-.4-.2-.3-.1-.4-.2-.8s-.5-.9-.6-1.2c-.4-1.6.2-3.4-.4-5.1.3 0 .2-.3.2-.6 0-.2.2-.1.2-.2.2-.7.2-1.4.4-1.9 0-.1.7-.6.2-.6.1-1.5 1-2.1 1-3.7.5-.4.7-1.1.8-1.4-.2-.2-.1-.7.1-.9.2-.4.4-.6.4-1 0-.2.1-.1.2-.2.3-.5.7-.9.6-1.6.1-.2.4-.1.6-.2.1-.1 0-.3 0-.4h.2c.1 0 0-.3 0-.4.1-.2.3-.2.4-.4.1-.2 0-.4 0-.6 0-.1.3-.3.4-.4.1-.2-.1-.4 0-.6 0-.1.3-.3.4-.4.2-.4.4-.9.4-1.2 0-.4.5-.4.6-.6.3-.6.4-1.3 1-1.7.3-.2.2-.8.4-1.2.4-.3.9-.6 1.4-.8.1-.8.8-1.3 1.2-1.8.1-.2.5-.4.6-.6.2-.2.1-.5.2-.8.2-.4.6-.6.8-.8.1 0 0-.3 0-.4.1-.3.4-.4.4-.8.5-.2.8-.6 1.2-1l1.2-1.2c.2-.2 1.2-1.1 1.2-1.2 0-.3.4-.6.6-.6.3 0 .3-.3.6-.4.3-.6.6-1.2 1-1.8.5.2.5-.3 1-.2 0-.7.6-.9 1-1.4l.6-.6c.2-.3.1-.6.4-.8.4-.3.8-.6 1.4-.8.3-.5.8-.8 1.4-1 .3-.6.7-1 1.2-1.4.2-.1.4-.1.6-.2.2-.1.2-.4.4-.6.2-.1.4-.1.6-.2.2-.1.2-.4.4-.6.3-.3.7-.5 1-.8.3-.3.6-.7 1-1 1.3-.4 2.4-1.7 3.9-2.5.4-.2 1.4-.4 1.6-.6.2-.2.4-.2.6-.4.3-.2.9-.3 1.2-.4.3-.1.7-.2 1-.2 2.4-.2 3 .7 4.7 1.2.2.3.4.6.8.8.3.3.5.6 1 .8-.1.4.1.6.2.8.1.2.4.8.6.8.5 0 .2.6.6.6.2 0 .1.1.2.2.5.3.6.6 1.2.8.2.1.4-.1.6 0 .1 0 .2.4.4.4l.2-.4c.3-.3.5-.4.8-.6.1-.1 0-.3 0-.4h.2c.1 0 0-.3 0-.4h.2c.1 0 0-.3 0-.4h.2c.2-.1.1-.6.2-.8.4-.2.7-.5 1-.8.3-.3.3-.5.4-.8 0-.1.3-.1.4-.2.3-.3.3-.5.4-.8 0-.1.3-.1.4-.2.3-.3.5-.7.8-1v-1.2c.7-.5.7-1.4 1-2.1-.9-.4-.3-2.2-1.1-2.9"/></symbol><symbol id="7" viewBox="0 0 77 75.9"><path fill="#0D0F0F" d="M75.9 6.4c0-.4.3-.8-.1-1.1-.3-.6-.9-.9-1.4-1.3.2-.5-.3-.8-.4-.9-.1 0 0-.3 0-.4-.3-.6-.6-.7-1-1-.3-.2-.5-.5-.8-.7-.2-.2-.5-.5-.8-.7-.3-.2-.7-.2-.9-.5-.4.1-.7 0-1.1.1-.4.1-.6.2-.7.2-.1 0-.1 0-.2-.1h-.1c-.1 0-.4.1-.5.1-.1 0-.2-.2-.2-.2h-.3c-1 0-1.7.3-2.5.4-1.4.2-3 0-4.3.2 0 0-.1 0-.1.1h-.1v.1h-.1c-.2 0-.5-.1-.8-.1h-.1c-.4 0-.7.1-1.1.3-.3-.3-.7-.4-1-.4-.3 0-.6.1-.8.2-.6.2-1.1.2-1.5.2h-.9c-.3 0-.6.1-.9.1H51.4c-.4 0-.8.2-1.2.3-.2 0-.2-.1-.4-.1h-.1c-.2 0-.2.2-.5.2-.2 0-.4-.1-.7-.1v-.2c-.1-.1-.2-.1-.4-.1-.6 0-1.7.5-2 .5H46c-.2 0-.5-.1-.8-.1-.3 0-.8.3-1.1.3-.2 0-.2-.1-.4-.1h-.2c-.3 0-.7.1-.8.1-.4.1-.5.1-.6.1h-.3-.1c-.2 0-.3 0-.5.1-1.6 0-3.1.1-4.1.4-1.4.3-2.9.2-4.3.4-.5.1-1 .3-1.4.3h-2c-.5.1-1.1.4-1.6.5-.3.1-.7 0-1.1.1-.4.1-.7.3-1.1.3h-.2c-.4 0-.8-.1-1.1-.1H24c-.4 0-.7.2-1.1.3-.3.1-.6 0-.9.1 0 0-.1 0-.1.1h-.1v.1h-.1c-.2 0-.4-.1-.5-.1H21h-.5c-.4 0-.6.2-.7.3-.2.1-.3.1-.4.1h-.7c-.4.4-.4.9-.6 1.1H17.8h-.1c0 .1.1.3 0 .4-.3 1.1.5 2.2.1 3.4.5.3.6 1.2.8 1.4v.5c0 .2.2.1.2.2.2.4.3.8.4.9.1 0 0 .3 0 .4h.1c.1 0 0 .3 0 .4.1.1.5.3.6.5.4.4.6.9 1 1.2.1.1.3.1.4.1.4.2.7.5 1.1.5h.3c.3.4 1.1 1.5 1.6 1.5.2 0 .1.1.2.2.2.1.4.1.6.1h.3c.2 0 .1.1.2.2.3.2.7.2 1.1.2.7 0 1.3-.2 1.7-.3.2-.1.4-.3.5-.4.1-.1.2-.3.3-.4.2-.2.7-.2.9-.4.1-.1-.1-.3 0-.4h.4c.2-.2.1-.4.5-.4.2 0 .1-.1.2-.2.2-.1.3-.1.5-.2.1-.1.6-.2.7-.2 0-.1-.1-.3 0-.4.3-.2.6-.2.9-.4.2-.2.4-.5.7-.6h.5c.1 0 .2-.3.3-.4.4-.2.9-.3 1-.5l.5-.2H36.6c.3-.1.6-.4.9-.4.4-.1 1 0 1.4-.1 0 0 .1-.2.2-.2.2-.1.2-.1.3-.2 0 0 .2-.1.3-.1h.4c.6-.2 1.2-.4 1.4-.5.4-.1.7-.2.9-.2.2 0 .4 0 .5.1h.4c1 0 1.9-.4 2.6-.5H48c.2 0 .2-.2.3-.2.6-.2 1.3-.1 1.8-.2.3 0 .7-.2 1.1-.2.3 0 .5.1.7.4 0 .2.1.4 0 .5 0 .1-.3.3-.3.4-.1.3-.3.9-.6 1-.2 0-.6.3-.7.4-.1.1-.2.3-.3.4-.1.1-.3.2-.3.4-.7.3-.5.3-1.2.5 0 .2-.2.4-.3.6-.1.2-.3.4-.5.6-.2.2-.5.3-.7.4-.2.2-.3.4-.5.6-.2.2-.5.3-.7.4-.2.2-.3.4-.5.6-.2.2-.2.2-.3.4H44.7h-.1v.2H44.3h-.1c-.3.2-.4.6-.7.8-.3.2-.5.6-.7.6-.2 0-.4.3-.5.4-.2.2-.3.4-.5.6-.4.4-.8.7-1.2 1-.4.4-.6.8-1 1.2-.4 0-.5.3-.9.4-.6.8-1.1 1.8-1.8 2.5-.3.3-.8.4-1 .6-.3.3-.1.7-.5.8-.2 0-.1.1-.2.2s-.4.1-.5.2c-.3.3-.5.8-.6 1-.1.2-.3.3-.3.6-.2.3-.7.4-.8.8-.3.1-.3.4-.5.6-.2.2-.5.4-.7.6-.1.1-.3.1-.3.2-.1.1-.1.5-.3.6-.2 0-.1.2-.2.2-1.2.7-2.6.6-4.1 1.3-.5-.1-1-.2-1.5-.2-1.4.7-3 .5-4.5.8-.5.1-.8.4-1.2.5-.5.1-1.1 0-1.6.1 0 0-.1.2-.2.2-.2.1-.5.1-.7.1H16.6c-.3 0-.3.2-.7.2-.2 0-.3-.1-.6-.1h-.2s-.1.2-.2.2c-.7.3-1.1.2-1.6.3-.2.1-.4.2-.5.2-.9.2-1.9.2-2.9.4-.3.1-.7.3-1 .5-.3-.1-1.9-.1-2.9.4-.7.3-1.4.5-1.9.9-.1-.1-.3-.1-.5-.1s-.4 0-.6.1c-.4.4-1 .4-1.4.7-.1.1-.2.3-.3.4-.2.1-.5.2-.7.2-.8.3-.6 1.3-.4 1.8.1.2.1.2.2.3.1 0 0 .3 0 .4.1 0 .1.1.2.1h.1c.1 0 .2 0 .2.1.4.5.7 1.1 1.2 1.5-.1.8.3.9.5 1.2.1.1.1.4.2.5.1.1.5.1.6.1.1.1 0 .3.2.3s.6.2.7.3c.2.1.2.4.4.5.6.3 1.2.6 1.9.6.2 0 .4 0 .6-.1.3-.6.2-1.3.4-2 .1-.7.6-1.3.5-2 .4-.4.8-.8 1.2-1 .1-.1.2-.3.3-.4.4-.2.6-.2.9-.3.4-.1.8-.5 1.2-.7.1 0 .2-.1.3-.1.2 0 .2.1.3.1 0 0 .1 0 .1-.1h.4v-.2c.1-.1 1-.3 1.1-.3h.4c.2 0 .4 0 .5-.3 1.3-.6 3.1-.7 4.4-1.1.5-.1.9-.4 1.4-.5.7-.2 1.5-.1 2.2-.2.4-.1.7-.4 1-.5.4-.1.9-.2 1.2-.3v.1l.1.1c.1 0 .2-.2.2-.2.2-.1.5 0 .7-.1h.4s.1 0 .1-.1h.1c.2 0 .4.1.4.2.1.5-.5.5-.7.8-.2.3-.3.6-.5.9-.2.3-.5.5-.7.8-.1.2 0 .4-.1.6-.1.2-.4.3-.5.4-.3.4-.7.9-1 1.2-.1.2-.4.2-.5.4-.1.1 0 .4-.1.6-.1.1-.4.1-.5.2-.1.1-.1.4-.1.6-.1.2-.4.2-.3.6-.2.3-.6.4-.9.6-.2.3-.2.7-.5.9-.4.5-.9 1-1.3 1.6-.4.6-.7 1.2-1.1 1.7-.2.3-.5.5-.7.8-.2.3-.4.7-.6 1-.4.5-.9 1-1.3 1.6-.3.5-.5 1-.8 1.3-.4.5-.6.9-1 1.4-.2.3-.5.5-.7.8-.2.3-.2.6-.5.9-.2.3-.7.5-.8.8-.2.3 0 .8-.1.9-.1.1-.4 0-.3.2-.3 0-.1.3-.1.6-.1.2-.5.2-.3.6-.4.1-1.2.9-1.2 1.2 0 .3-.4.5-.5.6-.1.1.1.3 0 .4-.1.2-.4.2-.5.4-.2.2-.1.5-.3.8-.1.1-.4 0-.3.2 0 .4-.6.7-.6 1 0 .2-.1.1-.2.2-.2.4-.2.5-.5.8-.1.1.1.3 0 .4-.1.2-.4.4-.5.6v.2c0 .4-.7.8-.8 1-.1.1.1.3 0 .4 0 .1-.3.1-.3.2-.1.2 0 .4-.1.6-.2.3-.4.3-.5.6-.4.8-.3 1.2 0 2.2.1.2.2.2.2.5.1.6 0 .7.3.9.1 0 0 .3 0 .4.1.1.3.2.4.3.3.3.8.6 1 .8.5.7 1.2 1.1 1.8 1.5.4.3.8.6 1 .8.3.2.6.2.9.2h.9c.4-1 .2-2.2.5-2.8l.3-.6.3-.6c.3-.5.3-.8.4-1.3 0-.1.3-.2.3-.2.2-.3.5-.7.5-.9 0-.2.2-.4.3-.6.1-.2.5-.3.5-.6s.3-.3.3-.6.3-.3.3-.6.3-.3.3-.6c0-.2.1-.1.2-.2.2-.4.2-.6.3-.9 0-.1.3-.1.3-.2s-.1-.3 0-.4c0-.1.3-.1.3-.2.1-.3 0-.6.1-.9.4-.2.5-.6.8-1 .3-.3.8-.6 1-1 .2-.3.1-.7.3-1.1.2-.3.8-.5.5-.9.6-.2 1-.8 1.3-1.2.4-.5.7-1.1.9-1.7.5-.2.7-.6 1.2-.8.1-.6.5-1 .8-1.3.2-.3.1-.5.3-.8.3-.5 1.7-1.5 1.6-2 0-.2.1-.1.2-.2.3-.4.7-.6.6-1.1.6-.5 1.1-1 1.1-1.9h.1c.3 0 .3-.3.7-.3h.2c-.1-.4.1-.6.5-.6.1-.2 0-.3.1-.6 0-.1.3-.3.3-.4.1-.2 0-.4.1-.6h.4s.1-.3.1-.4c.4-.6.9-1.2 1.5-1.6-.1-.2.1-.4.1-.6 0-.2.1-.1.2-.2.1-.3.1-.7.3-.9.2-.3.7-.5 1-.8l1-1c.4-.5.8-.9 1-1.5.7-.1 1-.9 1.7-1.2.4-.2.9-.3 1.4-.5 1.1-.4 2.5-.9 3.5-1 .2 0 .1-.2.2-.2.4-.1.6-.2.8-.2.2 0 .3 0 .5.1h.1c.2 0 .4-.1.6-.1h.1c.2 0 .2.1.4.1h.1c.2 0 .4-.1.6-.1h.1c.2 0 .3.2.6.3.9.3 1.8.2 2.6.3.2.4.7.6 1 .8.7.6 1.2 1.3 2.1 1.4.2 0 .4.1.6.1.3 0 .6-.1 1-.2.4-.9.1-1.8-.2-2.5 0-.1-.3-.2-.4-.3-.1-.1 0-.3 0-.4 0-.1-.3-.1-.4-.1-.3-.4-.4-.8-.6-1-.3-.3-1.4-1.1-1.5-1.1-.2 0-.1-.1-.2-.2-.4-.2-.6-.2-.9-.3-.1 0-.1-.3-.2-.3h-.4c-.1 0-.1-.3-.2-.3-.3-.1-.8-.1-1.1-.3-.2-.1-.4 0-.6-.1-.1 0-.3-.3-.4-.3-.6-.3-1.5-.4-1.6-1.3.1-.7.7-.9 1.2-1.2.4-.8 1.2-1.6 1.8-1.8.4-.2.5-.2.7-.4.6-.6 1.2-1.1 1.8-1.8.2-.2.4-.5.7-.8.2-.2.4-.6.7-.8.1-.1.4-.1.5-.2.3-.3.4-.6.7-.8.3-.3.5-.3.9-.4.4-.1.9-.5 1-.6.3-.3.6-.4 1-.5.3-.7.8-1 1.3-1.4h.4c.1 0 .1-.3.1-.4.2-.2.5-.1.7-.2.3-.2.4-.4.7-.4.2 0 .1-.1.2-.2.4-.2.7-.3 1-.5v-.2h.4v-.2h.4s.1-.3.1-.4h.4v-.2h.4c.2-.1.4-.3.5-.4.2-.2.1-.1.3-.2.1-.1.5-.2.5-.2.2 0 .1-.2.2-.2.6-.3 1.3-.4 1.7-.7.1 0 .1-.3.1-.4.3-.1.6-.1.9-.3 0 0 .1-.3.1-.4h.4c.5-.3 1.2-.6 1.7-.7.6-.1 1-.6 1.6-.9.1.1.2.1.4.1.4 0 .8-.2.9-.4l.5-.2c.4-.1.3-.2.5-.4.1-.1.5-.2.5-.2.5-.2.7-.1.9-.3.5-.4 1.4-.2 1.6-.5h.4c.8-.4 1.7-.3 2.3-1.1.1-1.4-.3-2.9-1.1-3.5M60.7.7c0 .1 0 .1 0 0 0 .1-.1.1 0 0-.1.1-.1.1-.1.2V.8l.1-.1zM22.2 4.2c0 .1 0 .1 0 0 0 .1-.1.1-.1.2v-.1l.1-.1zm-.2.3zm3.5 32.1l-.1-.1v-.1c-.1.1 0 .1.1.2-.1-.1-.1-.1-.1-.2v-.1c.1.1.1.2.1.3"/></symbol><symbol id="8" viewBox="0 0 71 71.1"><path fill="#0D0F0F" d="M8.4 64.2c.2.1.3.1.6.2.1 0 .2.2.2.2.8.2 1 .2 1.9.4.4.1.9.4 1.2.4v-.2c.1-.1.3.2.2.2.4 0 .7-.2 1.2-.2-.1 0 .1.2.2.2.3.1.4-.2.6-.2h.4c.5 0 1.1.2 1.6.2 1.2 0 2.9-.1 3.5-.2.3-.1.4.2.6.2 2 .5 3.2-.5 4.5-.6 1.1-.1 2.3.1 3.3 0 .4-.1.7-.3 1.2-.4.5-.1 1-.1 1.4-.2.4-.1.6-.4.8-.4.8-.2 1.5 0 2.1-.2 0 0 0-.2.2-.2.3-.1.4-.1.6-.2h.2c.2 0 .1-.2.2-.2.5-.2 1.1-.2 1.6-.4.1 0 0-.2.2-.2.7-.2 1.1-.3 1.4-.4h.2c.5 0 .4-.6.8-.6 1.7-.4 3-1.9 3.9-2.9.2-.2.5-.2.6-.4.2-.2.1-.6.2-.8h.2c.1-.1-.1-.3 0-.4.1-.1.4-.1.4-.2.1-.2 0-.6 0-.8 0-.2.2-.2.2-.2.3-1.2.4-3.6.2-4.3V51c0-.1-.2-.3-.2-.2 0-.1.4-.6.2-.8-.4-.4-.2-1.3-.4-1.6-.4-.6-.3-1.2-.2-1.9-.4-.3-.3-.6-.4-1 0-.1-.2 0-.2-.2v-.4c-.1-.2-.4-.3-.4-.4-.2-.5-.1-.7-.2-1-.1-.5-.6-.9-.6-1.4h-.4c0-.2-.3-.1-.6 0-.5.2-1.1.8-1.9.6-.7.7-1.6 1-2.5 1.2-.4.1-.6.1-.8.2l-.2.2c-.4.3-.9.2-1.2.4-.8.4-1.4 1.1-2.3 1.4-.3.1-.7.1-1 .2-.2.1-.5.2-.6.2-.2 0-.1.2-.2.2-.6.2-1.3.4-1.9.6-.4.5-.9.8-1.4 1-.6.3-1.3.3-1.9.6-.4.2-.8.7-1 .8-.2.1-.3.1-.6.2-.2 0-.1.2-.2.2-.3.2-.6.4-.8.4-.6.1-.5.2-.8.4.1.1-.1 0-.3.1-.6.3-1.4.9-1.9 1-.1 0-.3-.1-.4 0l-.4.4c-.4.3-.8.4-1 .6l-.4.4c-.4.2-.9.2-1.2.4l-.4.4-.4.4c-.3.2-.7.4-1 .6-.3.2-.5.6-.8.8-.3.2-.7.4-1 .6-.8.5-1.2 1-1.9 1.4l-.4.4c-.2.1-.5 0-.6.2-.8 1.6-2.3 2.5-2.3 4.9.1.4.2.6.5.7M55.1 7.6c-1.1.2-2 .2-2.9.4 0 0 0 .2-.2.2-.6.2-.7.1-1.2.2-.4.3-.9.7-1.2.8h-.4c-.1 0-.3.3-.4.4-.8.4-1.5.8-2.3 1.2-.2.4-.6.7-.6 1 0 .4-.6.5-.6.8 0 .2-.1.1-.2.2-.1.2-.1.5-.2.6-.1.2-.5.1-.6.2-.1.1-.1.5-.2.6-.4.5-.8 1.1-1.2 1.7h-.2c-.1.1.1.3 0 .4-.1.2-.3.2-.4.4-.2.3-.3.7-.4.8-.2.3-.3.8-.4 1-.3 1.2-.3 2.6-.4 3.7-.1.9-.4 2-.2 2.9.1.3.3.2.4.4.1.1 0 .3 0 .4.1.2.1.1.2.2.2.3.4.8.6 1 .5.6 1.1 1 1.4 1.9.6 0 .6 0 1 .2.1 0 .1.4.2.4.5.2 1 .2 1.4.6 1.9-.5 3.7-1 5.4-1.6.2-.1.4-.1.6-.2l.4-.4c.1-.1.3 0 .4 0 .4-.1.5-.5.8-.6.2-.1.4-.1.6-.2.2-.1.4-.3.6-.4.4-.2 1-.1 1.4-.4 1.3-.9 2.5-2 4.1-2.7.2-.4.5-.8.8-1.2.1-.1.4.1.4-.2 0-.3.4-.3.4-.6 0-.2.1-.1.2-.2.4-.6 1-1.4 1.2-1.9.2-.4.4-1.1.6-1.4.2-.2.2-.4.2-.8.1-1.3.7-3.4.4-4.7-.1-.4-.5-1.1-.8-1.6-.3-.6-.5-1.3-.8-1.6-.1-.1-.3-.1-.4-.2l-.4-.4c-.6-.4-1.1-.6-1.6-.8-.4-.1-.7-.1-1-.2-.3-.1-.6-.4-.8-.4-.5 0-.6.4-1 .2-.9-1-1.8-.3-2.7-.1m-7.8 32.7c.1.5-.1 1 0 1.4.1.3.4.6.4.8.1.6.2 1.3.4 2.1.1.9 1 .9.8 2.1.1.3.4.4.6.8.2.3 0 .8.4 1 .2.8-.5 1.2 0 1.6-.1.6.5 1 .6 1.6.2.9 0 2.2.2 3.1 0 0 .2 0 .2.2.1 1.4.3 2.7-.2 3.9 0 .1.1.4 0 .4-.1.1-.4.3-.6.8-.4.9-.8 1.8-1.9 2.3-.2.5-.1 1.2-.4 1.6-.6.1-.6.7-1.4.6-.6 1.2-2.6 1.2-3.3 2.3-1.6-.2-2.9.9-4.5 1.2-.8.2-1.3.1-2.1.2h-.4c-.2.2-.6.2-1.2.4-.3.1-.7.3-1 .4-.9.5-1.9.4-2.9.5-.3 0-.6.2-1.2.2-1 0-1.9 0-2.9.2 0 0-.1.2-.2.2s-.7-.1-.8 0c-.2.3-.7.1-1.4.2-1.1.1-2.5.3-4.1.2 0 0 0-.2-.2-.2 0 0 0 .2-.2.2h-1c-.5.1-1.6.4-2.3.4h-.6c-.1 0-.3-.2-.2-.2-.5 0-.5.2-.8.2 0 0-.2-.3-.4-.2-.1 0 0 .2-.2.2h-.8c-.9-.1-1.7-.3-2.5-.6-1.3.1-1.8-.7-2.7-1-.5-.4-1.3-.3-1.8-.6l-.4-.4-.4-.4c-.2-.3-.3-.5-.6-.8l-1.4-1.4c-.2-.3-.6-.5-.8-.8-.1-.2-.1-.5-.2-.6-.1-.2-.6-.3-.8-.6-.1-.1.1-.4 0-.4-.2-.1-.5-.3-.6-.4-.1-.1.1-.4 0-.4h-.2C1 62 1 61.3.7 60.9c-.1-.1-.2 0-.2-.2 0 .2-.2-1-.2-1-.2-.2-.2-.3-.2-.6v-.4c-.2-.1-.1-.2 0-.4 0-.1-.1-.4 0-.4.3-.2 0-.4.2-1 0-.1.2 0 .2-.2 0-.3.1-.4.2-.6.2-.4.3-.8.6-1.2.3-.3.6-1 1-1.4.2-.3.6-.6.8-.8.2-.3.4-.6.6-.8.3-.3.7-.3 1-.6.2-.1.1-.5.2-.6.1-.1.4.1.4 0v-.2c.3-.3.7-.3 1-.6.3-.2.4-.6.6-.8 1.2-.3 2.1-1 3.1-1.6l.8-.4c.2-.2.4-.5.6-.6.3-.2.8-.3 1.2-.6.1 0 .6-.1.6-.2v-.2c.1 0 .4.1.4 0 .2-.2.2-.3.4-.4.1 0 .4.1.4 0v-.2c.1 0 .4.1.4 0v-.2c.1 0 .4.1.4 0 .1-.1.2-.4.6-.6.3-.1.5-.3.8-.4.1 0 .4.1.4 0v-.2c.1 0 .4.1.4 0v-.2c.1 0 .4.1.4 0v-.2c.1 0 .4.1.4 0v-.2c.4-.2.8-.2 1.2-.4.1 0 0-.2.2-.2.5 0 .4-.4.8-.4-.2 0 1-.2 1-.2.2-.2.2-.3.4-.4.1 0 .6-.1.6-.2.2-.2.2-.3.4-.4.4-.2 1-.1 1.4-.4.1-.1 0-.2.2-.2s.3-.2.6-.2c.5 0 .4-.2.6-.4.1-.1.4.1.4 0v-.2c.1 0 .4.1.4 0v-.2c.1 0 .4.1.4 0v-.2c.3-.1 1.1-.3 1.4-.4.2-.1.8-.2 1.2-.4.1 0 0-.2.2-.2.1 0 .8-.1.8-.2.2-.3.6-.6 1-.8.3-.1.6-.1 1-.2.1 0 0-.2.2-.2h.2c.2-.1.7-.1 1.2-.4.1-.1 0-.2.2-.2.1 0 .3-.2.4-.2 1-.4 2-.9 3.1-1.2-.2-1.7-.3-3.3-.8-4.5-.1-.4-.6-.7-.6-1.4-.2-.4-.8-.3-1.2-.6-.1-.1-.2 0-.2-.2 0-.5-.6-.1-.8-.4-.1-.2.1-.4-.2-.4-.3 0-1.2-1-1.4-1.4-.2-.3-.4-.4-.6-.8-.2-.3-.4-.3-.6-.6-.1-.1.1-.4 0-.4-.2-.1-.1-.2-.2-.4l-.2-.6c-.2-.2-.4-1-.4-1.4 0-.4.1-1.1.2-1.7.2-1 .4-1.7.6-2.7.1-.5.1-1.1.2-1.4 0-.1.3-.3.4-.4 0-.1.1-.8.2-.8h.2c0-.1-.1-.4 0-.4h.2c.3-.7.6-1.3.6-2.1.4-.1.4-.6.6-.8.1-.2.6-.2.6-.6 0-.2.3-.5.4-.6.2-.2.5-.8.6-1.2.6-.3.8-.6 1.2-1 .2-.2.3-.4.4-.6.1-.1.4-.1.4-.2s-.1-.3 0-.4c.1-.1.4.1.4 0 .2-.3.4-.5.8-.8.4-.3.7-.8 1-1 .2-.1.4-.1.6-.2l.4-.4c.2-.1.8-.3 1-.4C42.7 2.3 42.9 2 43 2c.2-.1.4-.1.6-.2.1-.1.5-.1.6-.2.1 0 .2-.4.2-.4.3-.2.9-.1 1.3-.2s.7-.1 1-.2c.1 0 0-.2.2-.2.1 0 .6.1.6 0 .2-.2 1.2-.6 1.9-.4.2 0 .2.2.4.2.3 0 .7-.2 1-.2.4 0 1.2.1 1.9 0 .5-.1.7-.2 1.6 0 .2.1 1.2.2 1.9.4.6.2.9.4 1.4.6.1 0 .4-.1.4 0v.2c.1 0 .4-.1.4 0 .2.2.2.3.4.4.1 0 .4-.1.4 0 .2.2.3.2.5.4l.6.6c.3.2.6.2.8.4.9.7 1.8 1.6 2.7 2.5.4.4.9.8 1.2 1.2.1.2.2.6.4.6.4 0 .3.5.6.8.1.2.5.4.6.6l.6.6c.2.3.3.8.6 1.2.1.1.2 0 .2.2s.1.5.2.6c.1.1.4.1.4.2.2.3.1.5.2.8.3.5.4 1.1.6 1.6 0 .1.4.1.4.2.1.2-.1.4 0 .6 0 .1.2 0 .2.2v.2c.1.3.2 1.6.4 2.7 0 .2.2.3.2.6.1.6.3.8.2 1.6 0 .4-.1.5-.2.8 0 .2.1.7 0 .8-.2.2-.3.2-.4.4-.2.2 0 .4-.2 1s-.3 1.1-.4 1.6c-.3.9-.5 1.2-.8 1.9 0 .1.1.4 0 .4-.5.4-1.1 1-1.9 1.4 0 .6-.2 1-.6 1.2.1.2-.3.1-.4.2-.1.2-.1.5-.4.8-.1.1-.4.4-.6.4-.3 0-.3.3-.4.4-.1 0-.3-.1-.4 0-.2.1-.2.5-.4.6-.1.1-.4-.1-.4 0s-.1.4-.2.4c-.3.2-.5.1-.8.2-.1.1-.3.4-.4.4-.4.2-.9.2-1.2.4-.1 0 0 .2-.2.2s-.6.3-1 .4c-.4.1-.8.2-1.2.4-.6 0-.6.3-1 .6-.2.1-1 .3-1.4.6-.2.1-.4.3-.6.4-.2.1-.8 0-1 .2v.2c-.3.1-.7.3-1 .4h-.4c-.5.2-1 .5-1.4.6-.5.2-1.2.2-1.6.4-.3.1-.6.4-1 .6-.4.3-.5.2-.8.6-.5 1-.6 1.2-.8 1.2"/></symbol><symbol id="9" viewBox="0 0 77.3 71.7"><path fill="#0D0F0F" d="M76.9 8.8c-.1-.4-.3-.8-.5-1.2-.1-.2-.3-.3-.3-.5-.1-.3-.1-.5-.2-.7l-.2-.2c-.2-.3-.4-.6-.3-1-.8-.6-1.4-1.4-2.1-1.9-.4-.3-.8-.7-1-.9-.1-.1-.2-.3-.3-.3-.3-.2-.4-.3-.7-.3-.2 0-.1-.1-.2-.2-.2-.1-.3-.1-.5-.2s-.2-.3-.3-.3c-.3-.2-.6-.2-.9-.5H68c-1-.9-2.2-.4-3.5-.3-.5-.1-.9-.3-1.4-.3-.2 0-.3.1-.5.2-.5.1-.8.1-1.2.2-.2 0-.1.2-.2.2-.8.3-2.5.4-2.9.5h-.2c-.2-.1-.1.1-.1.1-.3.1-.7.1-.9.2-.1.1-.3.4-.5.5h-.2c-.2 0-.1.1-.2.2-.3.2-.3 0-.5 0v.2h-.3c-.1 0-.2.2-.3.2-.2 0-.1.1-.2.2-.3.1-.4.1-.7.2-.2.1-.3.2-.5.3h-.3c-.1 0-.1.3-.2.3-.2.1-.5.1-.7.2l-.2.2c-.2.1-.5.3-.7.3-.2 0-.3.3-.5.3s-.1.1-.2.2c-.2.1-.5 0-.7.2-.4.2-.7.5-1 .7h-.3c-.1 0-.1.3-.2.3-.1.1-.3 0-.3 0-.1 0-.1.3-.2.3-.4.2-.8.4-1.2.5-.1.3-.3.3-.5.5s-.2.5-.5.5c-.4.1-.5.4-1 .3-.2.4-.5.8-.9 1-.2.1-.4.2-.5.3l-.5.5c-.3.3-.7.6-1 .9-.3.3-.8.7-.9 1.2-.4-.1-.7 0-.9.2-.1.4-.5.6-.7.9l-.2.2c-.2.2-.2.3-.3.5-.1.1-.1.2-.2.3-.4 0-.5.3-.9.3-.4 1.2-1.7 1.6-2.1 2.9-.3.1-.6.3-.9.5-.1.1 0 .4-.2.5-.2.2-.5 0-.5.3s-.4.4-.5.5c-.1 0 0 .3 0 .3-.1.1-.3.2-.3.3-.3.5-.9.9-.7 1.6-.4.2-.8.3-1 .5 0 .9-1 .9-.9 2.1-.5.2-.7.8-.9 1-.1.1-.3.2-.3.3-.1.3 0 .6-.2.9 0 .1-.3.1-.3.2l-.2.5c0 .3-.3.4-.3.7 0 .2-.3.3-.3.5-.7 1.7-.7 3.7-.7 5.9.2 0 .2.3.2.5.6.3.7 1 .9 1.7 1 .5 1 1.4 1.6 2.1.3.4.9.7 1.2.9.2.1.1.2.3.2.2 0 .1.1.2.2.3.2.4.5.7.5.4 0 .6.7.9.7.2 0 .1.1.2.2s.4 0 .5 0c.1 0 .3.3.3.3.3.1.8.1 1 .2 1 .1 1.9 0 2.4-.2.1 0 .2-.2.2-.2.6-.2 1.2-.2 1.4-.3.2-.1.3-.3.5-.3.6-.2.6-.1.9-.3.2-.1.3-.2.5-.3.3-.2.7-.5 1-.7.3-.1.7-.3.9-.3.2 0 .1-.1.2-.2.2-.1.7-.3.9-.3.4 0 .6-.7 1-.7.2 0 .1-.1.2-.2.4-.2.5-.3.7-.5 0-.1.3 0 .3 0 .2-.1.3-.4.5-.5.2-.2.4-.4.7-.5.4-.1.9-.2 1.2-.3l.5-.5c.2-.2.5-.3.7-.5.6-.2.7-.9 1.6-.9.4.8 0 1.6-.2 2.2-.1.2-.1.3-.2.5-.1.1-.3.2-.3.3-.1.2-.1.4-.2.5 0 .1-.2.3-.2.3 0 .2-.1.1-.2.2-.1.2-.1.3-.2.5 0 .1-.3.2-.3.3-.6.9-1.1 1.8-1.4 2.9-.2.2-.3.5-.7.5-.1 1.8-1.4 2.5-1.7 4.1-.6.3-1 1.1-1.2 1.6-.1.1-.3.4-.3.5 0 .2-.4.6-.5.7-.1 0 0 .3 0 .3l-.3.3c-.1.1-.1.2-.2.3-.4.6-1.2 1.1-1.2 1.9-.6.1-.7.8-1 1.2-.1.1-.3.1-.3.2-.1.2-.1.4-.2.5-.3.3-.7.6-.9.9-.1.1-.3.4-.3.5 0 .3-.4.4-.5.5-.4.4-.7.9-1.2 1.2-.2.7-.6 1.1-.9 1.7-.7-.1-.8.3-1.2.5-.2.3-.5.5-.7.9-.7.2-1.2.7-1.7 1.2-.3.2-.4.5-.7.7-.1.1-.4.1-.5.2-.1.1-.2.4-.3.5-.2.1-.3.1-.5.2s-.2.3-.3.3c-.5.3-1.3.8-1.7.9-.3.1-.5.2-.7.3-.1 0-.3.2-.3.2-.2 0-.1.1-.2.2-.4.2-1 .5-1.2.5-.2.1-.2 0-.3.2-.2.2-.7 0-.9.2-.3.2-.5.1-.9.2 0 0 0 .1-.2.2s-.2 0-.3.2c-.1.1-.6 0-.7 0-.8.2-1.6.4-2.4.5-1.3.2-2.5.4-3.8.3-.4 0-.8-.2-.9-.2-.1 0 0 .2-.2.2-.4 0-.8-.2-1.2-.2-1-.1-1.8 0-2.1-.3h-.3c-.3 0-.4 0-.5-.2 0-.1-.3 0-.3 0-.1-.1-.1-.3-.2-.3-.1-.1-.4.1-.5 0-.1-.1-.1-.3-.3-.3-.3 0-1-.8-1-.9-.1-.1-.2-.5-.3-.7-.1-.2-.4-.3-.5-.5V63c0-.4-.6-.6-.7-.7-.1-.1-.1-.4-.2-.5-.2-.3-.3-.8-.5-1.2-.8-.1-1.2-.6-1.3-.9-.2-.6-.4-1.6-.5-2.1-.3-.8 0-1.6.2-2.4.1-.6.4-1.1.3-1.9.3 0 .4-.4.5-.5.6-.6 1.1-1.1 1.7-1.6.2-.2.3-.4.5-.5.2-.1.5-.2.7-.3.1-.1.4-.1.5-.2.1 0-.1-.3 0-.3.2-.2.5-.4.7-.5v-2.6c-.3-.3-.4-.3-.9-.3-.2 0-.1-.2-.2-.2-.9-.2-1.5-.2-2.2 0-.2.1-.6.1-.9.2-.1 0-.3.3-.3.3-.3.2-.4.2-.8.3-.4.1-.9.4-1 .5H5c-.1 0 .1.3 0 .3-.2.1-.5 0-.7.2l-.2.2c-.3.2-.9.4-1 .5-.3.2-1 1.1-1.2 1.4 0 .1-.3-.1-.3 0-.4.4-1.2 1.1-1.2 1.6 0 .2-.2.1-.2.2-.1.2-.2 1-.2 1.5 0 .2.1.1.2.2 0 .1-.2.2-.2.3 0 .6.2 1 .2 1.2 0 .2.1.1.2.2s-.1.4 0 .5c0 .1.3.1.3.2.1.2.1.5.2.7.2.4.4.7.5.9.1.1.2.5.2.5 0 .2.3.4.3.5.2.4.4.6.5.7.1 0 0 .3 0 .3h.2c.1 0 0 .3 0 .3 0 .1.3.1.3.2.1 0 0 .3 0 .3.1.2.4.3.5.5.3.4.4.6.7.9.1 0 0 .3 0 .3.3.4 1 .7 1 1 0 .5.8.7 1 .9 0 .6.7.9 1 1.2.4.4.8.9 1.2 1.2.4.4 1.1.9 1.4 1.2 0 .1.3-.1.3 0 .2.2 0 .5.3.5s.4.5.7.5c.3 0 .4.3.7.3.2 0 .1.1.2.2.2.1.3.1.5.2.2.2.3.4.5.5.2.2.7.1.7.5.7 0 1.3.3 1.9.5.3.1.7.1 1 .2.3.1.6.3.9.3.6.1 1.3 0 1.9 0 .4 0 .8.2 1.2.2.3 0 .5-.1.7-.2h.9c.7-.1 2-.3 2.4-.5h.2c.1 0 .2-.2.2-.2.7-.1.4.3.7 0 .1-.1.6 0 .7 0 .3-.1.7-.3 1-.3.5-.1 1-.1 1.4-.2V70c0-.1.3 0 .3 0v-.2h.3v-.2h.3c.5-.2 1.2-.7 1.6-.7.3 0 .4-.4.5-.5 0-.1.3 0 .3 0v-.2h.3c.4-.2.5-.3.7-.5.2-.2 1.1 0 1.2-.2.1-.3.5-.5.7-.7.4-.3.8-.8 1-1 .1-.1.4-.1.5-.2.3-.2.4-.5.5-.7 0-.1.3 0 .3 0 .2-.2.4-.5.7-.7.2-.1.4-.1.5-.2l.3-.3c.2-.2.4-.5.7-.7.3-.3.6-.4 1-.5.2-.7.8-1.1 1.2-1.6.2-.3.5-.4.7-.7.1-.1.1-.4.2-.5.1-.2.2-.2.3-.3.5-.5.5-1.3 1.2-1.6 0-.8.8-1.2 1-1.6.1-.2 0-.5.2-.7.1-.2.3-.2.5-.3.3-.3.2-.6.3-.9 0-.1.3-.1.3-.2.1-.2.2-.2.3-.3.1-.1-.1-.6 0-.7 0 0 .3-.1.3-.2.1-.2.2-.3.3-.5.1-.1 0-.3 0-.3 0-.1.3-.1.3-.2.1-.2.2-.2.3-.3.1 0 0-.3 0-.3.2-.3.6-.6.9-.9.3-.4.3-1 .9-1v-.3c0-.2.1-.1.2-.2.1-.3.3-.5.3-.7.1-.5.2-.4.3-.7.1-.1.3-.2.3-.3.1-.2.1-.4.2-.5.1-.1.3-.2.3-.3.1-.1.1-.3.3-.3 0-1.2.9-1.5.9-2.8.2-.1.2-.4.3-.5.1-.2.4-.2.3-.5.3 0 .1-.3.2-.5s.3-.2.3-.3c.2-.4.1-.7.3-1 .1-.1.4-.1.5-.2V40c.1-.4.7-.7.9-.9.1-.1-.1-.4 0-.5 0-.1.3-.2.3-.3.2-.4.4-.8.5-.9.1 0 0-.3 0-.3.1-.1.3-.2.3-.3.2-.2.4-.6.7-.7-.1-.7.3-.8.2-1.6.5-.2.7-.8 1.2-1v-1c1.2-.7 1.4-2.5 2.6-3.3 0-.6.3-.8.3-1.4.4-.3.6-.5.9-.7.1 0 0-.3 0-.3l.9-1.2c.4-.3.4-.8.7-1.2.8-.5 1.2-1.3 1.4-2.4.5-.2.5-.8.9-1.2.1-.2.4-.3.5-.5.3-.4.5-.7.7-1 .1-.3.3-.5.3-.9.1-.2.3-.3.3-.5 0-.3.3-.5.3-.7.2-.5.6-.6.9-.9.1-.1 0-.3 0-.3 0-.1.3-.1.3-.2.1-.3.1-.8.2-1h.2v-.3c.1-.2 0-.4.2-.5-.2-.3-.3-.7-.5-1-.1-.2-.3-.2-.3-.3-.1-.2 0-.5-.2-.7-.2-.2-.6-.4-.9-.7-.2-.2-.4-.6-.5-.7v-.2c0-.1-.3.1-.3 0l-.5-.5c-.2-.1-.3-.2-.5-.3-.4-.2-.6-.4-.9-.2-.8.1-1 1.1-1.2 1.6 0 .1-.3.1-.3.2-.2.4 0 .8-.2 1 0 .1-.3.1-.3.2-.2.3-.2.7-.3.9-.2.2-.2.3-.3.5-.1.2-.3.5-.3.7 0 .2-.3.3-.3.5s-.1.1-.2.2c-.2.4-.3.8-.5 1.2l-.2.2c-.3.5-.6 1-.7 1.6-.6.3-1 .9-1.4 1.2-.3.2-.6.7-.7.9-.2.4-.4.6-.5.9 0 .1-.3.2-.2.5-.5 0-.7.4-.9.7l-.2.2c-.3.2-.4.6-.5.9-.7.4-1.3.9-1.7 1.4-.2.2-.3.5-.5.7-.1.1-.4.1-.5.2-.1.1-.2.3-.3.3-.3.2-.6.5-1 .5-.2.5-.5 1-.9 1.4-.9.1-1.3.8-1.7 1.2l-.9.9c-.1.1-.4.1-.5.2-.1.1-.1.3-.2.3-.1.1-.5 0-.3.3-.5-.1-.7.3-1 .5-.5.4-.8.8-1.4.9-.2 0-.1.1-.2.2-.6.3-1 .5-1.4.9-.3.2-.6.5-.7.5-.3 0-.4.3-.7.3-.2 0-.6.4-.7.5 0 .1-.3 0-.3 0v.2c0 .1-.3 0-.3 0-.3.2-.4.4-.5.5-.4.2-.7.2-.9.3 0 .1-.3 0-.3 0-.1.1-.1.3-.3.3-.4.2-1 .3-1.6.5v.2c0 .1-.3 0-.3 0v.2h-.3c-1.3.5-3.4.9-4.5 0-.3-1.1-.2-2.5.5-3.1 0-.6.3-.7.2-1.4.4-.3.5-.8.7-1.2 0-.1.3-.1.3-.2.1-.3 0-.4.2-.5v-.3h.2c.1 0 0-.3 0-.3 0-.1.3-.1.3-.2.3-.3.3-.7.5-.9.1-.1.3-.2.3-.3.2-.3.2-.7.3-1h.2c.1 0-.1-.3 0-.3.1-.1.3.1.3 0 .1-.1 0-.3 0-.3.1-.1.3-.2.3-.3.1-.2.1-.4.2-.5h.2c.1 0 0-.3 0-.3l.3-.3c.2-.2.5-.5.5-.9.2-.3.9-.1.9-.7.3-.1.5-.7.5-.9 0-.2.4-.2.5-.3.1 0-.1-.3 0-.3.4-.4 1.1-.6 1.6-1 .2-.4.4-.8.7-1.2.1-.1.3.1.3-.2 0-.3.5-.5.5-.9.7-.1 1-.5 1.2-1 .3-.2.8-.3.9-.5 0-.2.2-.3.3-.3.2-.1.3-.2.5-.3.2-.1.4-.2.5-.3.1-.1.4-.2.5-.3.2-.2.3-.2.5-.3.4-.2.5-.3.7-.5 0-.1.3 0 .3 0 .2-.1.4-.4.5-.5.2-.2.2-.4.5-.5.3-.2.6-.3.9-.3.2 0 .1-.1.2-.2.4-.3.7-.5 1-.7v-.2h.3c.3-.1.1-.3.3-.5h.3c.2-.1.2-.2.3-.3 0-.1.5-.1.5-.2.3-.2.7-.2 1-.3l.9-.3c.1 0 .1-.3.2-.3.3-.1.4 0 .5-.2h.3c.2-.1.4-.2.5-.3h.3c.2-.1.2-.2.3-.3h.3c.5-.2.9-.4 1.2-.5.3-.1.7-.1 1-.2.4-.1.8-.4.9-.5h.3c.7-.3 1.5-.4 2.2-.2 0-.2.3-.2.5-.2C65 7.6 65 7.4 65 7.4c.7-.2.9-.1 1.4 0 .9.1 1.3-.3 1.9-.3.3 0 .4.2.7.2-.1 0 .1-.2.2-.2.5-.1.7.1.9.2.8.2.7-.1 1 .3h.3l.9.3c.3.2.7.1.9.2 0 0 .1.3.2.3l.3.3c.3.5.5 1.6.2 1.9-.1.1.2.2.2.2.1.7-.2.9 0 1 .3.3-.4 1.2.2 1.4 0-.1 0-.2.2-.2s.1.1.2.2c.2.1.3.5.5.5.4.1 1.1-.1.5-.3 0 .2-.5.2-.5 0 .2 0 .4-.1.3-.3.2 0 .4.1.5.2.3.1-.2.5.3.7-.1-.3.2-.5.2-.7 0-.1-.1-.3-.2-.2.1-.5.4-.5.5-.9.1-.3.1-.7.2-1 0-.1.3-.2.3-.3.2-.9-.2-1.5-.4-2.1"/></symbol><symbol id="bron" viewBox="246 300.1 1006.6 599.9"><path d="M649.3 348h76v72.4C492.1 432.5 305.9 621.2 305.9 852H246v48h1006.6v-48h-59.9c0-230.8-186.2-419.5-419.4-431.6V348h76v-48h-200m100 168c219 0 395.4 172 395.4 384H353.8c0-212 176.4-384 395.5-384z"/></symbol><symbol id="calendar" viewBox="0 0 1792 1792"><path fill="#fff" d="M192 1664h288v-288H192v288zm352 0h320v-288H544v288zm-352-352h288V992H192v320zm352 0h320V992H544v320zM192 928h288V640H192v288zm736 736h320v-288H928v288zM544 928h320V640H544v288zm768 736h288v-288h-288v288zm-384-352h320V992H928v320zM576 448V160q0-13-9.5-22.5T544 128h-64q-13 0-22.5 9.5T448 160v288q0 13 9.5 22.5T480 480h64q13 0 22.5-9.5T576 448zm736 864h288V992h-288v320zM928 928h320V640H928v288zm384 0h288V640h-288v288zm32-480V160q0-13-9.5-22.5T1312 128h-64q-13 0-22.5 9.5T1216 160v288q0 13 9.5 22.5t22.5 9.5h64q13 0 22.5-9.5t9.5-22.5zm384-64v1280q0 52-38 90t-90 38H192q-52 0-90-38t-38-90V384q0-52 38-90t90-38h128v-96q0-66 47-113T480 0h64q66 0 113 47t47 113v96h384v-96q0-66 47-113t113-47h64q66 0 113 47t47 113v96h128q52 0 90 38t38 90z"/></symbol><symbol id="key" viewBox="0 0 56.1 96"><path fill="#FFF" d="M39.7 94.9c.1-.1.1-.1 0 0 .1-.1 0-.1 0 0M.6 92.6c0-.1 0-.1 0 0 0-.1 0-.1 0 0m.1-.2v0M47.3 78s-.1 0 0 0c-.1 0 0 0 0 0m-43.8-.4s0-.1 0 0c0-.1 0 0 0 0M16 35.1s.1 0 0 0m-4-1h.2-.2m.5-.2c.1 0 .1 0 0 0 .1 0 0 0 0 0m29.9-20c0-.1-.1-.1 0 0-.1-.1 0-.1 0 0M3.1 94.2v.2c-.1-.1-.1-.2 0-.2m-2.7-.7v0m0-.7h.2c.1 0 .2 0 .2.1v0h.1s-.1.1-.2.1v-.1c-.1 0-.3.1-.4.1 0 .1.1.1.1.1l-.1.1-.1.1H.1h.1c-.1 0 0-.3.2-.5M15 34.3c0-.1.1-.1.1 0s0 .1-.1 0c.1.1 0 0 0 0m-1.6-.1c0-.1.1-.1.1-.1.1 0 .1.1-.1.1.1 0 .1 0 0 0m2 .1v-.2s0-.1.1-.1v.1c0-.1.2.2.3.5-.1.1-.1.3-.2.3v.1s0-.1-.1-.2v.1h.1v-.1c.1-.1.1-.3.1-.4h-.1c-.1.1-.2 0-.2-.1m-2.7.1c-.1-.2-.3-.4-.2-.5h-.1l-.1-.1c.1 0 .2.1.3.2h-.1c0 .1.3.4.5.5.1-.1 0-.1 0-.1.1 0 .2.1.2.1h.1c.1 0 .1.1.2.1l.1.1c-.1 0-.1-.1-.2-.1 0 0-.3-.1-.7-.2m25.7-.6c0-.1 0-.1.1 0h-.1m.3-.2c0-.1-.1-.2-.1-.2v-.1.1c0-.1.1 0 .3.1-.1 0-.1.1-.2.1.1.1.1 0 0 0M24.5 0h-1c-.3 0-.6.1-1 .1-.3 0-.6.1-.9.1l-.9.3c-.2.1-.5.3-.7.4-.2.2-.4.3-.6.5-.4 0-.4.3-.9.4-.7 0-1.2.1-1.4.3-.1.2-.1.3.3.2-.9.6-1.8 1.1-2.5 1.6l-.9.9c-.2.3-.5.3-.7.3-.6.7-.5.4-1.3 1.1-.2 0-.5.5-.8 1.1-.3.5-.6 1.1-.7 1.2l.1-.1c-.4.4-.7.8-1 1.1-.4.3-.7.7-.9 1.2-.8 1.3-1.4 2.9-1.7 4.5-.1.4-.2.8-.2 1.2-.1.4-.1.8-.2 1.2 0 .4-.1.8-.1 1.1v1.1c.2 0 0-.6.3-.7-.1 1.7-.2 3.4.1 5.2v.9c.1.6.2.3.3.7L7 26c-.1.2 0 .4 0 .6 0 .2 0 .5.2.7.1 0 .2.2.3.4-.2.1.3.6.1.6.1.1.1.2.1.3.1.1.5.5.9 1 .5.4.9.8 1 .9v.1c.2.3.4.3.3.1 0 0 0 .1.1.2s.1.2.1.2l.2.3c0 .1 0 .2-.1.2.2.1.4.3.5.5-.3-.6-.6-1.3-.7-1.9.2.2.3.6.5.8.1.3.4 1 .6 1.5.1.1.3 0 .4.3 0 .2.2.2.3.5-.2-.1-.4-.3-.5-.5-.1.2.3.6.4.8.1 0 .4.5.7.6-.2 0-.1.1 0 .3h-.1.1c.1.1.1.1.1.2.1.2.3.2.3.1v-.1c.5.2 1 .5.9.4V35h.1s.1 0 0-.1h-.1c-.3-.3 0-.4.3-.5h.1v.1c.3-.3.2.1.2.4-.1 0-.2.1-.3.4 0 .2.1.1.1.2-.1.1-.1.3-.3.3.1.2-.1.2-.1.4 0 .1 0 .1.1.1h.1c0 .2-.1.6-.1.7-.1.1-.4.3-.5.1 0-.2.1-.1.2-.1s.1.1.1-.1c-.3.1 0-.3-.2-.4-.1.1-.2.3-.1.5 0 .2 0 .5-.1.7-.1-.1-.2 0-.2-.1v.2s.1.1.1 0c.1.1 0 .2-.1.3-.1 0 .3 1.3.2 1.3 0 .1 0 .1-.1.2 0-.4-.2-1.4-.2-1.3-.1.1.3 2 .1 2.1 0 .1 0 .3.1.3 0 .1-.1.1-.1 0 0 0-.1-.1-.2 0 0 0 .1 0 0 0l-.1.1c.1.4-.1.8 0 1.2-.1-.1-.3-.3-.4-.5h.1s0-.2-.1-.2c-.1.2-.1.4 0 .6l-.1.1c-.1.1-.1.1-.1 0-.3.1.1.9-.1 1.2 0 .1.1 0 .1.2-.2.4-.3.6-.4 1.1.1.1.2.2.3 0l-.1.3c-.2-.2-.3 0-.4.1-.1.1-.2.3-.4.1-.1-.3-.1-.1-.1.1.1 0 .2.1.2.3-.2.3-.1.2-.2.5-.1 0-.2-.1-.2-.1.1.4-.3.3-.3.7 0 .2 0 .7.2.7 0 .3-.2.3-.4.2l-.1.3c.1-.8.3-1.7.5-2.5-1 1.7-1.9 3.8-.7 5.5-.8 0-1.4 1.8-1.2 1.8.1.4.1.8.2 1.2.1 1.2 0 2.5-.3 3.8-.3 1.3-.7 2.6-1.1 3.9-.2.7-.6 2.1-1 3.4-.2.7-.4 1.3-.6 1.9-.2.6-.4 1.1-.5 1.5-.1.2-.2.4-.2.6.2-.3.2-.3.3-.7 0 1 0 1.8-.2 2.7.1-.1.3-.1.5-.4l-.2.4c.2.5-.1 1.3-.1 1.7-.1-.1-.3.2-.4.4l.1-.1c-.4 1-.6 2.3-1 3.3 0 .1-.1.2-.2.3l-.2 1c-.1-.1-.2.1-.2.2-.1.1-.2.3-.2.1 0 .7-.3 1.4-.3 2.1-.3 1.2-.7 2.4-.9 3.7-.1.6-.2 1.3-.3 1.9-.1.6-.2 1.3-.2 1.9h.1v1.3c0 .5 0 .9-.2 1.4.2.8.1 1.9.5 2.3h-.1.1v.2h-.4c-.1 0 0 .3-.2.2-.1-.1-.1 0-.2 0h-.2c.1-.1.3-.1.4-.2-.1-.1-.2-.1-.3-.1h-.2c0 .1-.3.1-.5.2 0-.1-.1-.1-.2-.1v0H.2c-.1 0-.2.1-.1.2 0 0 0 .1.1.1-.2.3-.5.5-.4.5 0 0 .1 0 .1.1v.1s0 .1.1.1v-.1c.3-.1.3.2.3.5s0 .6.3.5c-.3-.1 0-.3.2-.4.1.1.2.1.4.1.2-.1.1-.1.1-.2.1 0 .3 0 .3.1 0-.1.1-.1.2-.1H2c.1-.1 0-.1 0-.2.1 0 .2 0 .2-.1v.3c.1-.1.1 0 .2.2v.1h.1c0 .2.1.4.2.2.1-.1.1-.1.1-.2h.1c.1-.1.4-.2.6-.1 0 .1.1.2 0 .2h.2v-.1c.1-.1.2-.1.3 0 0 0 .3-.1.5-.3.2-.1.5-.3.5-.2h.1c-.1 0-.3.1-.4.2-.3.2-.6.4-.5.3.1 0 .4-.2.8-.4s.8-.4.8-.3c.1 0 .2-.1.2-.2.2 0 0 .2.1.3v-.1l.1.1c.3-.2.7-.1 1-.3-.1.1-.1.3-.3.5 0 0-.2.1-.2.2.2 0 .3 0 .5-.1 0 0 .1 0 .1.1.2-.1.2-.1.2 0 .1.2.3 0 .5-.1s.4-.2.5-.1c.1-.1 0-.1.1-.1.4.1.7.2 1 .2.1-.1.1-.2 0-.3h.3c-.2.4.5.3.3.7.1.1.2.1.4 0 0-.1 0-.2.2-.3.3.1.2.1.4.2.1.1 0 .2 0 .3.2-.1.3 0 .3.1.1.1.1.1.3.1.2 0 .6-.1.6-.3.3 0 .3.1.3.3h.2c-.7.1-1.4 0-2.2 0 .8.3 1.7.6 2.5.6s1.6-.2 2.2-.9c.1.8 1.7 1.1 1.7.9.3-.1.7-.3 1-.3 2.1-.6 4.4-.2 6.8.2 1.3.2 5 .5 6.4.8.2 0 .4.1.6.1-.3-.1-.3-.1-.7-.1.9-.2 1.6-.4 2.4-.5-.1-.1-.2-.2-.5-.4l.4.1c.3-.3 1.2-.3 1.5-.5-.1.2.2.2.5.2l-.1-.1c.5 0 1 0 1.5-.1.5 0 1-.1 1.4-.1.1 0 .2.1.3.1l.8-.1c-.1.2.6.2.3.3.6-.2 1.2-.1 1.8-.3h3.2c1.1 0 2.2-.1 3.3-.1v-.1c.8-.1 1.5-.4 2.4-.1.7-.2 1.7-.2 2-.6h1.1c.2 0 .5-.1.8 0-.1-.3.8-.1.5-.4-.4-.4-.5-.2-.9-.5v.1c-.5-.2-1-.4-1.5-.5-.5-.2-1-.3-1.5-.4-1-.3-2-.5-3-.7-.7 0-1.4 0-2.1-.1-.4 0-.7-.1-1.1-.1h-2.3c-.4 0-.8 0-1.2.1-.8.1-1.5.1-2.2.2-.3.1-.5-.1-.8-.2-.3 0-.6 0-1 .1-.3 0-.7 0-1 .1-.7 0-1.4.1-2.1.2h.1c-.4 0-.7 0-1-.1-.3 0-.6-.1-.9-.1 0 .1-.1.1-.2.1-.1-.2-1.1 0-2.1.2s-2.1.3-2.2.2h-.2c-1.4-.2-2.9-.9-4.2-.9-.3.1-.6.2-.8.4-.1-.1-.2 0-.3 0-.1 0-.1.1-.3.1-.7-.6-1.1-.4-.7-.2H19.6c-.2 0-.5.1-.7.1-.2 0-.3 0-.4-.2-.5.1-.4-.1-.9-.1-.1-.1-.5 0-.9.1l-.6.2h.1c-.6 0-1-.5-1.7-.5-.9-.1-1.8-.1-2.6 0-.4 0-.9.1-1.3.1s-.8.1-1.3.1c0 .1.1.1.2.1s.2 0 .2.1H6.8c-.2 0-.4-.1-.5-.2-.3 0-.2.1-.4.1l.1-.5c-.2.1-.3.1-.4 0-.1 0-.2-.1-.4 0 0 .1-.1.1-.2.1 0-.1-.1-.1-.2-.1s-.2 0-.2-.1h-.2s-.3.2-.6.5l.2-.8c.2-.5.3-1.1.5-1.6s.3-1.1.5-1.6c0-.4.1-.8.2-1.1.1-.4.2-.8.3-1.1.2-.8.4-1.5.6-2.3.2-.8.4-1.7.6-2.5.2-.8.3-1.7.5-2.4 0-.4.3-.5.5-.8.3-1.3.9-3 1.2-4.5v.1c.2-.8.6-1.3.8-2.1-.1 0 0-.1-.1-.2.3-.1.6-4.8.8-5V65c.5-1.6 1.5-3.2 1.7-4.6-.1-.3-.1-.7-.2-1 .2-.2-.1-.3 0-.6.8-.7.6-1.2.3-.8.1-.6.2-1.3.3-1.9v-.8c0-.2.1-.3.3-.4 0-.6.1-.4.3-1 .2-.1-.1-1.6 0-1.7v.1c.1-.7.6-1.1.7-1.8.2-.9.4-1.9.5-2.9.1-1 .2-1.9.4-2.8-.1 0-.1.1-.1.2s0 .2-.2.2c.2-1 .6-2 .7-3.1.1-.2.2-.4.3-.5.1-.3-.1-.2 0-.5h.2c-.1-.4.3-.5.2-.9-.1 0-.1-.2-.1-.3.1 0 .1-.1.1-.2s0-.2.1-.2c0-.1 0-.1.1-.2-.1-.1-.5-1.5-.6-1.7v-.1c0-.2-.1-.3-.2-.2v-.4s.1-.1.2 0c-.1-.1-.1-.3 0-.4-.2.4-.4.8-.7 1.2-.1-.2.1-.4.1-.6.2-.2.3-.6.5-.9 0-.1-.2-.1-.1-.3.2-.1 0-.2.1-.3.1.2 0 .3 0 .5.2 0 .2-.4.2-.5-.1-.1 0-.4 0-.6.1.1.1 0 .2-.1v-.1.1s0 .1.1.1c0 0 0-.1-.1-.1 0 0 0-.1.1-.1 0-.1 0-.2-.1-.2h-.1c-.1-.3-.3-.7-.3-.6h-.1-.1-.1v.1c-.1.4-.6-.1-.9-.1.1-.1.2-.2 0-.4.1.5-.3.1-.6-.2 0-.1 0-.3-.2-.6-.2-.2-.2-.1-.3 0-.1-.2-.2-.4-.1-.5-.3-.1-.2-.3-.4-.5-.1-.1-.1 0-.1 0h-.1c-.1-.1-.2-.3-.4-.5-.1-.2-.2-.3-.3-.4 0-.2 0-.5.3-.5.3.4-.4 0 0 .4 0-.2.2-.1.3.1.1.1.2.2.3.2 0-.2-.2-.5-.4-.7v.1c-.2-.2-.5-.6-.6-.9.1 0 .1-.1.2 0 0 0 0-.1-.1-.1 0-.1-.1-.1-.1-.1s-.1 0-.1.1c-.1-.1-.2-.3-.2-.4 0 0-.3-.4-.6-.7-.3-.3-.6-.7-.6-.7-.1-.1-.1-.2-.1-.3.1.2.3.5.5.7.1.1.2.2.2.3l.2.2.1.1c0-.1-.1-.2-.3-.4-.2-.2-.4-.5-.6-.8-.1-.1-.2-.3-.3-.4-.1-.1-.2-.3-.2-.4-.1-.2-.2-.4-.2-.5-.1-.2-.2-.4-.3-.3 0-.2 0-.1.1-.1s.1 0 .1-.1h-.1l.1-.2c-.3-.4-.3-1.1-.6-1.6.1.1.4.2.5.5v.1s.2.3.3.2c0-.2 0-.3-.1-.4 0-.1-.1-.3-.2-.4v-.2c0-.1.1-.1.1-.1.1-.1 0-.4-.1-.7-.1-.3-.3-.7-.2-1-.1-.2-.1 0-.1-.2.1-.6.1-1 .2-1.5-.1-.2-.2-.2-.3 0l.1-.4c.2.2.3 0 .3-.2.1-.2.2-.4.4-.2.1-.1.1-.4.1-.6-.1 0-.2-.1-.2-.4.2-.4.1-.3.3-.6H10c-.1-.5.3-.4.4-.9 0-.3.2-.9 0-1 .1-.4.3-.4.4-.3l.1-.3c.2.2.1.4.1.7l-.1.4c0 .1-.1.3-.1.4-.1.3-.1.5-.2.8l-.1.8c.4-1.2 1-2.4 1.5-3.5.1-.3.2-.6.3-.8.1-.3.2-.6.2-.8.1-.3.1-.6.1-.9v-.9c.2.1.4 0 .7-.2.3-.1.5-.3.8-.5.2-.2.5-.4.6-.6.2-.2.3-.3.2-.3.1-.2.2-.4.3-.7.1-.2.3-.4.4-.6.9-1.3 2.2-2.4 3.8-3.2 1.5-.8 3.3-1.2 5.1-1.3 1-.1 2.9-.2 4.7.1.2 0 .5.1.7.1h.3c.1 0 .2.1.3.1.4.1.8.2 1.1.3.7.2 1.3.6 1.7.8.2.2.4.4.7.5-.4-.3-.4-.3-.8-.5 1.1.3 2.2.7 3.1 1.3-.1-.2 0-.3-.3-.7l.4.4c.3 0 .7.2 1.1.5.4.2.7.5 1 .7-.2 0 .1.4.4.7v-.2c1 1.1 2.2 2.5 2.8 3.7.1.2.1.3.1.4 0 0 0 .1.1.2s.2.2.2.4c.2.3.4.5.4.5-.2 0 .2.9-.1.6.3.4.5.8.7 1.2.1.2.2.4.3.7l.3.6c1 3.2 1.4 6.7.4 10h.1c-.2.6-.3 1.2-.5 1.7-.1.3-.2.6-.4.9-.2.3-.4.6-.7.8-.1.2-.3.5-.5.8-.2.3-.4.5-.6.7-.4.5-.7.9-.8 1.2-.5.4-.9.7-1.3.9-.1.1-.2.1-.3.2-.2-.2-.4-.4-.4-.3 0 0 0 .1-.1.1h-.1s-.1 0-.1.1h.1c.1.3-.2.3-.5.2-.3 0-.6 0-.6.3.1-.4.3 0 .4.3 0 0-.1.1-.1.2l-.1.1c-.3.2-.5.3-.1.3h.4c0 .1 0 .3-.1.3.2.1 0 .3.1.4.1.1.1.1.1 0h.1c.1.2.1.5.2.7-.1.1-.2.4-.5.3 0-.2 0-.2.1-.2s.1 0 .1-.2c-.1.1-.2 0-.2-.1s-.1-.2-.2-.2c-.1.2 0 .4.1.6.1.2.2.5.2.7h-.1-.1l.1.2h.1c.1.1.1.2.1.3-.1.1.8 1.1.7 1.1v.2c-.2-.4-.7-1.2-.7-1.1-.1.2 1.1 1.7.9 1.9 0 .1.1.3.2.2 0 .1-.1.1-.1.1-.1 0-.1 0-.1.1h.1l-.1.2c.3.3.2.8.5 1.1-.1-.1-.4-.1-.5-.3v-.1s-.1-.2-.2-.2c0 .2.1.4.2.6v.1c0 .1-.1.1-.1.1-.3.2.4.8.4 1.2.1.1.1 0 .1.1v1.1c.2.1.2.1.3-.1v.3c-.2-.1-.2.1-.3.2 0 .2-.1.3-.3.2-.1.1 0 .3.1.5.1 0 .2 0 .3.2v.5c-.1.1-.1 0-.2 0h-.1c.2.3-.1.4 0 .8.1.2.2.7.4.6.1.3-.1.3-.2.4v.3c-.2-.8-.4-1.7-.6-2.5-.2 2-.1 4.3 1.6 5.3-.7.4-.6 2.2-.4 2.2.2.3.4.7.6 1 1.2 2.2 1.7 4.9 2.2 7.6.1.4.2.9.3 1.5.1.6.3 1.3.4 2 .1.7.3 1.4.4 2 .1.6.2 1.2.2 1.5 0 .2.1.4.1.7v-.8c.4.9.8 1.7 1.1 2.4.1-.2.2-.2.2-.6v.4c.4.3.6 1.2.8 1.6-.2 0-.1.3-.1.6l.1-.1c.2 1.1.6 2.3.8 3.3v.3l.4.9c-.1 0-.1.1-.1.3 0 .2 0 .4-.1.2.4.6.4 1.3.9 1.9.7 2.4 1.6 4.9 2.8 7.2h.1c.5.8 1.1 1.4 1.4 2.4.6.6 1.2 1.5 1.7 1.6.2.4.4.6.6.8.2.2.4.4.7.8 0-.1.2 0 .3.1.2.1.3.3.3 0 0-.6-.2-.5-.2-1.1h-.1c-.7-2.1-1.4-4.2-2-6.3-.7-1.3-1-2.9-1.5-4.4-.5-1.6-1.1-3.4-1.7-4.7-.1-.3 0-.6 0-.9-.4-1.3-.7-3-1.2-4.5v.1c-.2-.8-.1-1.4-.4-2.2-.1 0-.1-.1-.1-.1.1-.1-.3-1.2-.8-2.3-.5-1.1-1-2.3-1-2.4 0-.1-.1-.2-.1-.2-.2-.8-.2-1.7-.3-2.6-.1-.8-.2-1.6-.4-2.3-.2-.3-.4-.6-.7-.8.1-.3-.2-.3-.3-.6.4-.9 0-1.3-.1-.8-.3-.6-.4-1.2-.6-1.8-.1-.2-.2-.5-.3-.7-.1-.2-.1-.4.1-.5-.2-.5 0-.4-.1-1 .2-.2-.7-1.4-.7-1.6l.1.1c-.1-.7.1-1.3 0-1.9-.3-1.9-1.1-3.9-1.5-5.6-.2 0 .2.4-.1.5-.2-1-.3-2.1-.5-3.2 0-.2.1-.5.1-.6 0-.3-.2-.2-.2-.4l.2-.1c-.3-.3.1-.6-.1-.9-.1 0-.1-.1-.2-.2.2-.1-.1-.4.1-.4v-.2c-.1-.1-1.1-1.2-1.2-1.3v-.1c-.1-.2-.2-.2-.2-.1l-.1-.2-.1-.2s.1-.1.2-.1c-.1-.1-.2-.2-.2-.4 0 .4 0 .9-.1 1.4-.1-.1-.1-.4-.2-.6.1-.2.1-.7 0-1 0-.1-.3 0-.2-.2.1-.1-.1-.2 0-.4.1.1.1.3.2.4.2-.1 0-.4 0-.6 0 0-.1-.1-.1-.3 1.7-.6 3.3-1.5 4.7-2.8 1.5-1.3 2.6-3.1 3.3-5 0-.2.1-.3.1-.5s.1-.3.1-.5c.1-.3.2-.7.2-1 .1-.7.2-1.3.3-2 .1-1.4.1-2.7-.1-4-.2-1.4-.7-2.8-1.1-4.1-.3-.6-.5-1.3-.9-1.8-.2-.3-.3-.6-.5-.8-.2-.3-.3-.5-.5-.8-.3-.5-.4-.9-.5-1.4-.6-.9-1.3-1.9-2.1-2.9s-1.7-1.9-2.7-2.6l.1.1c-.3-.2-.5-.4-.7-.6-.2-.2-.4-.4-.7-.6-.2-.2-.4-.4-.7-.6-.2-.2-.5-.3-.8-.5 0 .1-.2 0-.3-.1 0-.1-.5-.3-1.1-.6-.3-.2-.8-.3-1.2-.4-.2-.1-.4-.1-.7-.2-.2 0-.5-.1-.7-.1-.2 0-.5-.1-.7-.1-.2 0-.5-.1-.7-.1-.5-.1-.9-.1-1.3-.1-.7 0-1.3 0-1.4-.1h-.4C27.2.1 26 0 24.7 0h-.2"/></symbol><symbol id="list" viewBox="0 0 186.4 165.8"><use xlink:href="#a" overflow="visible" fill="#FFF"/></symbol><symbol id="logo-small" viewBox="0 0 105.8 89.5"><g fill="inherit"><path d="M44.7 0H28v2.8h11.4l3.6 7.7-13 28h8l8.8-19.2-3.7-8.3L59 45.6H19.7c-1.3-4.1-5.1-7.1-9.6-7.1C4.5 38.5 0 43 0 48.6c0 5.5 4.5 10.1 10.1 10.1 4.5 0 8.3-3 9.6-7.1h19.7v7.1l7.5-3.8 7.5 3.8v-7.1h7.3L77.2 85H66.8v4.5h19L44.7.2V0zM10.1 52.7c-2.2 0-4.1-1.8-4.1-4.1 0-2.2 1.8-4.1 4.1-4.1 2.2 0 4.1 1.8 4.1 4.1-.1 2.2-1.9 4.1-4.1 4.1zM94.8 85L55.7.1h-6.6l41.2 89.4h15.5V85z"/><path d="M20.8 58.7L8.7 85H.4v4.5h24.2V85h-7.9l12.1-26.3z"/></g></symbol></svg>