<?xml version="1.0" encoding="UTF-8"?><!DOCTYPE svg PUBLIC "-//W3C//DTD SVG 1.1//EN" "http://www.w3.org/Graphics/SVG/1.1/DTD/svg11.dtd"><svg xmlns="http://www.w3.org/2000/svg"><symbol id="bron" viewBox="246 300.1 1006.6 599.9"><path d="M649.3 348h76v72.4C492.1 432.5 305.9 621.2 305.9 852H246v48h1006.6v-48h-59.9c0-230.8-186.2-419.5-419.4-431.6V348h76v-48h-200m100 168c219 0 395.4 172 395.4 384H353.8c0-212 176.4-384 395.5-384z"/></symbol><symbol id="logo-small" viewBox="0 0 105.8 89.5"><g fill="inherit"><path d="M44.7 0H28v2.8h11.4l3.6 7.7-13 28h8l8.8-19.2-3.7-8.3L59 45.6H19.7c-1.3-4.1-5.1-7.1-9.6-7.1C4.5 38.5 0 43 0 48.6c0 5.5 4.5 10.1 10.1 10.1 4.5 0 8.3-3 9.6-7.1h19.7v7.1l7.5-3.8 7.5 3.8v-7.1h7.3L77.2 85H66.8v4.5h19L44.7.2V0zM10.1 52.7c-2.2 0-4.1-1.8-4.1-4.1 0-2.2 1.8-4.1 4.1-4.1 2.2 0 4.1 1.8 4.1 4.1-.1 2.2-1.9 4.1-4.1 4.1zM94.8 85L55.7.1h-6.6l41.2 89.4h15.5V85z"/><path d="M20.8 58.7L8.7 85H.4v4.5h24.2V85h-7.9l12.1-26.3z"/></g></symbol></svg>